SplineFontDB: 3.2
FontName: ATM132-Regular
FullName: ATM132-Regular
FamilyName: ATM 132
Weight: Book
Copyright: AzhaguThamizh
Version: 1.001
ItalicAngle: -11
UnderlinePosition: -271
UnderlineWidth: 102
Ascent: 1600
Descent: 400
InvalidEm: 0
sfntRevision: 0x00010042
LayerCount: 2
Layer: 0 1 "Back" 1
Layer: 1 1 "Fore" 0
XUID: [1021 192 2086997156 8310]
StyleMap: 0x0040
FSType: 8
OS2Version: 3
OS2_WeightWidthSlopeOnly: 0
OS2_UseTypoMetrics: 0
CreationTime: 1537158661
ModificationTime: 1545800760
PfmFamily: 17
TTFWeight: 400
TTFWidth: 5
LineGap: 0
VLineGap: 0
Panose: 2 11 6 4 2 2 2 2 2 4
OS2TypoAscent: 2000
OS2TypoAOffset: 0
OS2TypoDescent: -1320
OS2TypoDOffset: 0
OS2TypoLinegap: 0
OS2WinAscent: 2000
OS2WinAOffset: 0
OS2WinDescent: 744
OS2WinDOffset: 0
HheadAscent: 2000
HheadAOffset: 0
HheadDescent: -1320
HheadDOffset: 0
OS2SubXSize: 1400
OS2SubYSize: 1300
OS2SubXOff: 0
OS2SubYOff: 0
OS2SupXSize: 1400
OS2SupYSize: 1300
OS2SupXOff: 0
OS2SupYOff: 0
OS2StrikeYSize: 100
OS2StrikeYPos: 518
OS2CapHeight: 1586
OS2XHeight: -200
OS2Vendor: '    '
OS2CodePages: 00000001.00000000
OS2UnicodeRanges: 00100003.00000000.00000000.00000000
Lookup: 4 0 0 "'akhn' Akhand in Tamil2 lookup 0" { "'akhn' Akhand in Tamil2 lookup 0 subtable"  } ['akhn' ('tml2' <'dflt' > ) ]
Lookup: 4 0 0 "'akhn' Akhand in Tamil lookup 1" { "'akhn' Akhand in Tamil lookup 1 subtable"  } ['akhn' ('taml' <'dflt' > ) ]
Lookup: 4 0 0 "'half' Half Forms in Tamil lookup 2" { "'half' Half Forms in Tamil lookup 2 subtable"  } ['half' ('taml' <'dflt' > ) ]
Lookup: 4 0 0 "'haln' Halant Forms in Tamil2 lookup 3" { "'haln' Halant Forms in Tamil2 lookup 3 subtable"  } ['haln' ('tml2' <'dflt' > ) ]
Lookup: 4 0 0 "'haln' Halant Forms in Tamil lookup 4" { "'haln' Halant Forms in Tamil lookup 4 subtable"  } ['haln' ('taml' <'dflt' > ) ]
Lookup: 4 0 0 "'abvs' Above Base Substitutions lookup 5" { "'abvs' Above Base Substitutions lookup 5 subtable"  } ['abvs' ('taml' <'dflt' > 'tml2' <'dflt' > ) ]

StartChar: .notdef
Encoding: 65536 -1 0
Width: 1600
Flags: W
LayerCount: 2
Fore
SplineSet
100 0 m 1,0,-1
 100 1600 l 1,1,-1
 1500 1600 l 1,2,-1
 1500 0 l 1,3,-1
 100 0 l 1,0,-1
1400 100 m 1,4,-1
 1400 1500 l 1,5,-1
 200 1500 l 1,6,-1
 200 100 l 1,7,-1
 1400 100 l 1,4,-1
EndSplineSet
EndChar

StartChar: exclam
Encoding: 33 33 4
Width: 537
GlyphClass: 2
Flags: W
LayerCount: 2
Fore
SplineSet
254 977 m 2,0,-1
 371 977 l 2,1,2
 398 977 398 977 418.5 948.5 c 128,-1,3
 439 920 439 920 439 879 c 0,4,5
 439 869 439 869 436.5 854.5 c 128,-1,6
 434 840 434 840 430 820 c 2,7,-1
 342 371 l 2,8,9
 338 354 338 354 329 343 c 128,-1,10
 320 332 320 332 312 332 c 0,11,12
 305 332 305 332 296 343 c 128,-1,13
 287 354 287 354 283 371 c 2,14,-1
 205 820 l 2,15,16
 201 840 201 840 198 854.5 c 128,-1,17
 195 869 195 869 195 879 c 0,18,19
 195 920 195 920 212.5 948.5 c 128,-1,20
 230 977 230 977 254 977 c 2,0,-1
312 273 m 0,21,22
 354 273 354 273 382 233 c 128,-1,23
 410 193 410 193 410 137 c 0,24,25
 410 80 410 80 382 40 c 128,-1,26
 354 0 354 0 312 0 c 0,27,28
 271 0 271 0 243 40 c 128,-1,29
 215 80 215 80 215 137 c 0,30,31
 215 193 215 193 243 233 c 128,-1,32
 271 273 271 273 312 273 c 0,21,22
EndSplineSet
EndChar

StartChar: quotedbl
Encoding: 34 34 5
Width: 840
GlyphClass: 2
Flags: W
LayerCount: 2
Fore
SplineSet
646 784 m 1,0,-1
 674 1070 l 1,1,-1
 690 1200 l 2,2,3
 698 1264 698 1264 735 1309 c 128,-1,4
 772 1354 772 1354 832 1354 c 0,5,6
 896 1354 896 1354 904 1288 c 0,7,8
 904 1262 904 1262 890 1222 c 0,9,10
 858 1126 858 1126 830 1070 c 2,11,-1
 692 784 l 1,12,-1
 646 784 l 1,0,-1
288 784 m 1,13,-1
 318 1074 l 2,14,15
 330 1192 330 1192 334 1210 c 0,16,17
 350 1292 350 1292 396 1328 c 1,18,19
 438 1354 438 1354 472 1354 c 0,20,21
 546 1354 546 1354 546 1286 c 0,22,23
 546 1248 546 1248 464 1072 c 2,24,-1
 330 784 l 1,25,-1
 288 784 l 1,13,-1
EndSplineSet
EndChar

StartChar: numbersign
Encoding: 35 35 6
Width: 1068
GlyphClass: 2
Flags: W
LayerCount: 2
Fore
SplineSet
998 278 m 1,0,-1
 746 278 l 1,1,-1
 680 -36 l 1,2,-1
 584 -36 l 1,3,-1
 650 278 l 1,4,-1
 320 278 l 1,5,-1
 254 -36 l 1,6,-1
 158 -36 l 1,7,-1
 224 278 l 1,8,-1
 68 278 l 1,9,-1
 68 374 l 1,10,-1
 244 374 l 1,11,-1
 304 664 l 1,12,-1
 68 664 l 1,13,-1
 68 760 l 1,14,-1
 324 760 l 1,15,-1
 392 1076 l 1,16,-1
 488 1076 l 1,17,-1
 420 760 l 1,18,-1
 748 760 l 1,19,-1
 814 1076 l 1,20,-1
 910 1076 l 1,21,-1
 844 760 l 1,22,-1
 998 760 l 1,23,-1
 998 664 l 1,24,-1
 826 664 l 1,25,-1
 764 374 l 1,26,-1
 998 374 l 1,27,-1
 998 278 l 1,0,-1
730 664 m 1,28,-1
 400 664 l 1,29,-1
 340 374 l 1,30,-1
 668 374 l 1,31,-1
 730 664 l 1,28,-1
EndSplineSet
EndChar

StartChar: dollar
Encoding: 36 36 7
Width: 932
GlyphClass: 2
Flags: W
LayerCount: 2
Fore
SplineSet
774 296 m 2,0,1
 760 170 760 170 636 82 c 0,2,3
 534 12 534 12 392 -16 c 1,4,-1
 376 -90 l 1,5,-1
 314 -90 l 1,6,-1
 328 -20 l 1,7,-1
 302 -20 l 1,8,-1
 242 -18 l 1,9,-1
 210 -18 l 1,10,11
 194 -12 194 -12 188 -10 c 0,12,13
 112 6 112 6 30 46 c 1,14,-1
 46 88 l 1,15,-1
 66 160 l 1,16,-1
 86 242 l 1,17,-1
 130 242 l 1,18,-1
 124 188 l 1,19,20
 124 104 124 104 190 60 c 0,21,22
 248 20 248 20 336 20 c 1,23,-1
 432 464 l 1,24,25
 172 562 172 562 172 724 c 0,26,27
 172 760 172 760 176 776 c 0,28,29
 206 900 206 900 322 982 c 0,30,31
 424 1054 424 1054 562 1074 c 1,32,-1
 574 1134 l 1,33,-1
 636 1134 l 1,34,-1
 624 1074 l 1,35,36
 774 1074 774 1074 882 1008 c 1,37,-1
 830 830 l 1,38,-1
 786 830 l 1,39,-1
 788 868 l 2,40,41
 796 1030 796 1030 614 1030 c 1,42,-1
 524 602 l 1,43,44
 652 546 652 546 696 512 c 0,45,46
 780 448 780 448 780 350 c 1,47,-1
 774 296 l 2,0,1
468 630 m 1,48,-1
 552 1028 l 1,49,50
 362 996 362 996 314 824 c 1,51,-1
 310 792 l 1,52,53
 310 736 310 736 360 690 c 0,54,55
 388 664 388 664 468 630 c 1,48,-1
638 238 m 1,56,-1
 642 278 l 1,57,58
 642 364 642 364 488 438 c 1,59,-1
 398 20 l 1,60,61
 484 34 484 34 550 94 c 128,-1,62
 616 154 616 154 638 238 c 1,56,-1
EndSplineSet
EndChar

StartChar: percent
Encoding: 37 37 8
Width: 1230
GlyphClass: 2
Flags: W
LayerCount: 2
Fore
SplineSet
264 977 m 2,0,-1
 332 977 l 2,1,2
 396 977 396 977 442 931 c 128,-1,3
 488 885 488 885 488 820 c 2,4,-1
 488 566 l 2,5,6
 488 494 488 494 439.5 442.5 c 128,-1,7
 391 391 391 391 322 391 c 2,8,-1
 264 391 l 2,9,10
 195 391 195 391 146.5 442.5 c 128,-1,11
 98 494 98 494 98 566 c 2,12,-1
 98 820 l 2,13,14
 98 885 98 885 146.5 931 c 128,-1,15
 195 977 195 977 264 977 c 2,0,-1
811 977 m 0,16,17
 822 977 822 977 831 965 c 128,-1,18
 840 953 840 953 840 937 c 0,19,20
 840 930 840 930 837 920 c 128,-1,21
 834 910 834 910 830 898 c 2,22,-1
 439 39 l 2,23,24
 432 21 432 21 421 10.5 c 128,-1,25
 410 0 410 0 400 0 c 0,26,27
 381 0 381 0 374 25.5 c 128,-1,28
 367 51 367 51 381 78 c 2,29,-1
 771 937 l 2,30,31
 779 955 779 955 790 966 c 128,-1,32
 801 977 801 977 811 977 c 0,16,17
908 586 m 2,33,-1
 977 586 l 2,34,35
 1041 586 1041 586 1087 540 c 128,-1,36
 1133 494 1133 494 1133 430 c 2,37,-1
 1133 176 l 2,38,39
 1133 104 1133 104 1084 52 c 128,-1,40
 1035 0 1035 0 967 0 c 2,41,-1
 908 0 l 2,42,43
 840 0 840 0 791 52 c 128,-1,44
 742 104 742 104 742 176 c 2,45,-1
 742 430 l 2,46,47
 742 494 742 494 791 540 c 128,-1,48
 840 586 840 586 908 586 c 2,33,-1
908 508 m 2,49,50
 871 508 871 508 845.5 485.5 c 128,-1,51
 820 463 820 463 820 430 c 2,52,-1
 820 176 l 2,53,54
 820 135 820 135 845.5 106.5 c 128,-1,55
 871 78 871 78 908 78 c 2,56,-1
 967 78 l 2,57,58
 1004 78 1004 78 1029.5 106.5 c 128,-1,59
 1055 135 1055 135 1055 176 c 2,60,-1
 1055 430 l 2,61,62
 1055 463 1055 463 1032.5 485.5 c 128,-1,63
 1010 508 1010 508 977 508 c 2,64,-1
 908 508 l 2,49,50
264 898 m 2,65,66
 227 898 227 898 201.5 876 c 128,-1,67
 176 854 176 854 176 820 c 2,68,-1
 176 566 l 2,69,70
 176 525 176 525 201.5 497 c 128,-1,71
 227 469 227 469 264 469 c 2,72,-1
 322 469 l 2,73,74
 359 469 359 469 384.5 497 c 128,-1,75
 410 525 410 525 410 566 c 2,76,-1
 410 820 l 2,77,78
 410 854 410 854 387.5 876 c 128,-1,79
 365 898 365 898 332 898 c 2,80,-1
 264 898 l 2,65,66
EndSplineSet
EndChar

StartChar: ampersand
Encoding: 38 38 9
Width: 1034
GlyphClass: 2
Flags: W
LayerCount: 2
Fore
SplineSet
1006 -4 m 1,0,-1
 928 0 l 1,1,-1
 850 0 l 1,2,-1
 754 -4 l 1,3,-1
 676 98 l 1,4,5
 598 32 598 32 524 2 c 1,6,-1
 462 -14 l 2,7,8
 424 -24 424 -24 370 -24 c 0,9,10
 228 -24 228 -24 132 60 c 128,-1,11
 36 144 36 144 36 284 c 0,12,13
 36 470 36 470 260 586 c 2,14,-1
 310 612 l 1,15,-1
 248 730 l 1,16,-1
 232 778 l 1,17,-1
 226 828 l 1,18,19
 226 938 226 938 324 1010 c 0,20,21
 414 1076 414 1076 528 1076 c 0,22,23
 604 1076 604 1076 664 1029 c 128,-1,24
 724 982 724 982 724 908 c 0,25,26
 724 806 724 806 626 746 c 2,27,-1
 552 700 l 1,28,-1
 452 644 l 1,29,-1
 568 472 l 1,30,-1
 748 228 l 1,31,32
 812 312 812 312 812 416 c 256,33,34
 812 520 812 520 716 516 c 2,35,-1
 676 514 l 1,36,-1
 688 552 l 1,37,-1
 1006 552 l 1,38,-1
 1006 514 l 1,39,-1
 968 514 l 2,40,41
 916 514 916 514 892 486 c 0,42,43
 878 470 878 470 862 408 c 2,44,-1
 848 352 l 2,45,46
 840 322 840 322 828 300 c 0,47,48
 814 262 814 262 772 200 c 1,49,-1
 862 98 l 1,50,-1
 888 72 l 1,51,-1
 934 44 l 2,52,53
 950 32 950 32 980 32 c 2,54,-1
 1006 32 l 1,55,-1
 1006 -4 l 1,0,-1
590 890 m 0,56,57
 590 950 590 950 558 992 c 128,-1,58
 526 1034 526 1034 468 1034 c 0,59,60
 414 1034 414 1034 376 996 c 128,-1,61
 338 958 338 958 338 904 c 0,62,63
 338 874 338 874 342 858 c 2,64,-1
 360 806 l 2,65,66
 378 756 378 756 434 672 c 1,67,68
 500 712 500 712 530 744 c 0,69,70
 590 808 590 808 590 890 c 0,56,57
652 124 m 1,71,-1
 484 348 l 1,72,-1
 422 440 l 1,73,-1
 330 582 l 1,74,75
 178 470 178 470 178 326 c 0,76,77
 178 210 178 210 264 132 c 128,-1,78
 350 54 350 54 468 54 c 0,79,80
 522 54 522 54 580 78 c 0,81,82
 604 88 604 88 610 94 c 2,83,-1
 652 124 l 1,71,-1
EndSplineSet
EndChar

StartChar: quotesingle
Encoding: 39 39 10
Width: 428
GlyphClass: 2
Flags: W
LayerCount: 2
Fore
SplineSet
262 784 m 1,0,-1
 292 1074 l 2,1,2
 300 1144 300 1144 324 1264 c 1,3,4
 342 1322 342 1322 408 1346 c 0,5,6
 430 1354 430 1354 446 1354 c 0,7,8
 514 1354 514 1354 522 1286 c 0,9,10
 522 1256 522 1256 512 1236 c 1,11,12
 504 1208 504 1208 440 1072 c 2,13,-1
 306 784 l 1,14,-1
 262 784 l 1,0,-1
EndSplineSet
EndChar

StartChar: parenleft
Encoding: 40 40 11
Width: 723
GlyphClass: 2
Flags: W
LayerCount: 2
Fore
SplineSet
98 -391 m 2,0,-1
 98 1191 l 2,1,2
 98 1264 98 1264 143.5 1315.5 c 128,-1,3
 189 1367 189 1367 254 1367 c 2,4,-1
 488 1367 l 2,5,6
 545 1367 545 1367 585 1327 c 128,-1,7
 625 1287 625 1287 625 1230 c 0,8,9
 625 1211 625 1211 613.5 1196.5 c 128,-1,10
 602 1182 602 1182 586 1182 c 256,11,12
 570 1182 570 1182 558.5 1196.5 c 128,-1,13
 547 1211 547 1211 547 1230 c 0,14,15
 547 1254 547 1254 529.5 1271.5 c 128,-1,16
 512 1289 512 1289 488 1289 c 2,17,-1
 254 1289 l 2,18,19
 221 1289 221 1289 198.5 1260.5 c 128,-1,20
 176 1232 176 1232 176 1191 c 2,21,-1
 176 -391 l 2,22,23
 176 -439 176 -439 207 -473.5 c 128,-1,24
 238 -508 238 -508 283 -508 c 2,25,-1
 488 -508 l 2,26,27
 512 -508 512 -508 529.5 -485.5 c 128,-1,28
 547 -463 547 -463 547 -430 c 0,29,30
 547 -414 547 -414 558.5 -402.5 c 128,-1,31
 570 -391 570 -391 586 -391 c 256,32,33
 602 -391 602 -391 613.5 -402.5 c 128,-1,34
 625 -414 625 -414 625 -430 c 0,35,36
 625 -494 625 -494 585 -540 c 128,-1,37
 545 -586 545 -586 488 -586 c 2,38,-1
 283 -586 l 2,39,40
 207 -586 207 -586 152.5 -528.5 c 128,-1,41
 98 -471 98 -471 98 -391 c 2,0,-1
EndSplineSet
EndChar

StartChar: parenright
Encoding: 41 41 12
Width: 723
GlyphClass: 2
Flags: W
LayerCount: 2
Fore
SplineSet
98 -430 m 0,0,1
 98 -414 98 -414 109.5 -402.5 c 128,-1,2
 121 -391 121 -391 137 -391 c 0,3,4
 152 -391 152 -391 164 -402.5 c 128,-1,5
 176 -414 176 -414 176 -430 c 0,6,7
 176 -463 176 -463 196.5 -485.5 c 128,-1,8
 217 -508 217 -508 244 -508 c 2,9,-1
 439 -508 l 2,10,11
 484 -508 484 -508 515.5 -473.5 c 128,-1,12
 547 -439 547 -439 547 -391 c 2,13,-1
 547 1191 l 2,14,15
 547 1232 547 1232 524.5 1260.5 c 128,-1,16
 502 1289 502 1289 469 1289 c 2,17,-1
 234 1289 l 2,18,19
 211 1289 211 1289 193.5 1268.5 c 128,-1,20
 176 1248 176 1248 176 1221 c 0,21,22
 176 1201 176 1201 167 1186.5 c 128,-1,23
 158 1172 158 1172 146 1172 c 0,24,25
 127 1172 127 1172 112.5 1186.5 c 128,-1,26
 98 1201 98 1201 98 1221 c 0,27,28
 98 1281 98 1281 138 1324 c 128,-1,29
 178 1367 178 1367 234 1367 c 2,30,-1
 469 1367 l 2,31,32
 533 1367 533 1367 579 1315.5 c 128,-1,33
 625 1264 625 1264 625 1191 c 2,34,-1
 625 -391 l 2,35,36
 625 -471 625 -471 570.5 -528.5 c 128,-1,37
 516 -586 516 -586 439 -586 c 2,38,-1
 244 -586 l 2,39,40
 184 -586 184 -586 141 -540 c 128,-1,41
 98 -494 98 -494 98 -430 c 0,0,1
EndSplineSet
EndChar

StartChar: asterisk
Encoding: 42 42 13
Width: 1406
GlyphClass: 2
Flags: W
LayerCount: 2
Fore
SplineSet
98 605 m 1,0,-1
 566 605 l 1,1,-1
 693 1035 l 1,2,-1
 820 605 l 1,3,-1
 1309 605 l 1,4,-1
 918 332 l 1,5,-1
 1055 -117 l 1,6,-1
 713 166 l 1,7,-1
 322 -117 l 1,8,-1
 469 332 l 1,9,-1
 98 605 l 1,0,-1
EndSplineSet
EndChar

StartChar: plus
Encoding: 43 43 14
Width: 977
GlyphClass: 2
Flags: W
LayerCount: 2
Fore
SplineSet
449 664 m 2,0,1
 449 680 449 680 431.5 691.5 c 128,-1,2
 414 703 414 703 391 703 c 0,3,4
 375 703 375 703 363.5 715 c 128,-1,5
 352 727 352 727 352 742 c 0,6,7
 352 758 352 758 363.5 769.5 c 128,-1,8
 375 781 375 781 391 781 c 0,9,10
 408 781 408 781 439.5 766.5 c 128,-1,11
 471 752 471 752 488 752 c 0,12,13
 506 752 506 752 537 766.5 c 128,-1,14
 568 781 568 781 586 781 c 0,15,16
 602 781 602 781 613.5 769.5 c 128,-1,17
 625 758 625 758 625 742 c 0,18,19
 625 727 625 727 613.5 715 c 128,-1,20
 602 703 602 703 586 703 c 0,21,22
 562 703 562 703 544.5 691.5 c 128,-1,23
 527 680 527 680 527 664 c 2,24,-1
 527 430 l 1,25,-1
 850 430 l 2,26,27
 861 430 861 430 870 418 c 128,-1,28
 879 406 879 406 879 391 c 0,29,30
 879 375 879 375 867 363.5 c 128,-1,31
 855 352 855 352 840 352 c 2,32,-1
 527 352 l 1,33,-1
 527 117 l 2,34,35
 527 102 527 102 544.5 90 c 128,-1,36
 562 78 562 78 586 78 c 0,37,38
 602 78 602 78 613.5 66.5 c 128,-1,39
 625 55 625 55 625 39 c 256,40,41
 625 23 625 23 613.5 11.5 c 128,-1,42
 602 0 602 0 586 0 c 0,43,44
 568 0 568 0 537 14.5 c 128,-1,45
 506 29 506 29 488 29 c 0,46,47
 471 29 471 29 439.5 14.5 c 128,-1,48
 408 0 408 0 391 0 c 0,49,50
 375 0 375 0 363.5 11.5 c 128,-1,51
 352 23 352 23 352 39 c 256,52,53
 352 55 352 55 363.5 66.5 c 128,-1,54
 375 78 375 78 391 78 c 0,55,56
 414 78 414 78 431.5 90 c 128,-1,57
 449 102 449 102 449 117 c 2,58,-1
 449 352 l 1,59,-1
 137 352 l 2,60,61
 121 352 121 352 109.5 363.5 c 128,-1,62
 98 375 98 375 98 391 c 0,63,64
 98 406 98 406 106.5 418 c 128,-1,65
 115 430 115 430 127 430 c 2,66,-1
 449 430 l 1,67,-1
 449 664 l 2,0,1
EndSplineSet
EndChar

StartChar: comma
Encoding: 44 44 15
Width: 451
GlyphClass: 2
Flags: W
LayerCount: 2
Fore
SplineSet
266 273 m 256,0,1
 303 273 303 273 328.5 227.5 c 128,-1,2
 354 182 354 182 354 117 c 0,3,4
 354 -21 354 -21 297 -139.5 c 128,-1,5
 240 -258 240 -258 139 -332 c 0,6,7
 117 -348 117 -348 102.5 -319.5 c 128,-1,8
 88 -291 88 -291 109 -273 c 0,9,10
 187 -207 187 -207 235 -136.5 c 128,-1,11
 283 -66 283 -66 295 0 c 1,12,13
 250 -8 250 -8 214 30 c 128,-1,14
 178 68 178 68 178 127 c 0,15,16
 178 187 178 187 203.5 230 c 128,-1,17
 229 273 229 273 266 273 c 256,0,1
EndSplineSet
EndChar

StartChar: hyphen
Encoding: 45 45 16
Width: 781
GlyphClass: 2
Flags: W
LayerCount: 2
Fore
SplineSet
127 430 m 2,0,-1
 654 430 l 2,1,2
 666 430 666 430 675 418 c 128,-1,3
 684 406 684 406 684 391 c 0,4,5
 684 375 684 375 672 363.5 c 128,-1,6
 660 352 660 352 645 352 c 2,7,-1
 137 352 l 2,8,9
 121 352 121 352 109.5 363.5 c 128,-1,10
 98 375 98 375 98 391 c 0,11,12
 98 406 98 406 106.5 418 c 128,-1,13
 115 430 115 430 127 430 c 2,0,-1
EndSplineSet
EndChar

StartChar: period
Encoding: 46 46 17
Width: 371
GlyphClass: 2
Flags: W
LayerCount: 2
Fore
SplineSet
186 273 m 0,0,1
 223 273 223 273 248 233 c 128,-1,2
 273 193 273 193 273 137 c 0,3,4
 273 80 273 80 248 40 c 128,-1,5
 223 0 223 0 186 0 c 0,6,7
 148 0 148 0 123 40 c 128,-1,8
 98 80 98 80 98 137 c 0,9,10
 98 193 98 193 123 233 c 128,-1,11
 148 273 148 273 186 273 c 0,0,1
EndSplineSet
EndChar

StartChar: slash
Encoding: 47 47 18
Width: 1055
GlyphClass: 2
Flags: W
LayerCount: 2
Fore
SplineSet
928 1172 m 0,0,1
 939 1172 939 1172 948 1160 c 128,-1,2
 957 1148 957 1148 957 1133 c 0,3,4
 957 1121 957 1121 954 1111.5 c 128,-1,5
 951 1102 951 1102 947 1094 c 2,6,-1
 166 -156 l 2,7,8
 156 -174 156 -174 145.5 -184.5 c 128,-1,9
 135 -195 135 -195 127 -195 c 0,10,11
 105 -195 105 -195 98.5 -169 c 128,-1,12
 92 -143 92 -143 107 -117 c 2,13,-1
 889 1133 l 2,14,15
 898 1150 898 1150 909 1161 c 128,-1,16
 920 1172 920 1172 928 1172 c 0,0,1
EndSplineSet
EndChar

StartChar: zero
Encoding: 48 48 19
Width: 928
GlyphClass: 2
Flags: W
LayerCount: 2
Fore
SplineSet
461 -11 m 0,0,1
 310 -11 310 -11 227 121 c 0,2,3
 147 251 147 251 147 485 c 0,4,5
 147 717 147 717 227 848 c 0,6,7
 310 982 310 982 461 982 c 0,8,9
 613 982 613 982 694 848 c 0,10,11
 774 717 774 717 774 485 c 0,12,13
 774 367 774 367 753 275 c 128,-1,14
 732 183 732 183 692.5 119.5 c 128,-1,15
 653 56 653 56 594.5 22.5 c 128,-1,16
 536 -11 536 -11 461 -11 c 0,0,1
461 62 m 0,17,18
 570 62 570 62 631 171 c 0,19,20
 695 285 695 285 695 485 c 0,21,22
 695 686 695 686 631 800 c 0,23,24
 569 910 569 910 461 910 c 0,25,26
 352 910 352 910 290 800 c 0,27,28
 228 687 228 687 228 485 c 0,29,30
 228 384 228 384 243.5 305.5 c 128,-1,31
 259 227 259 227 289 173 c 128,-1,32
 319 119 319 119 362 90.5 c 128,-1,33
 405 62 405 62 461 62 c 0,17,18
EndSplineSet
EndChar

StartChar: one
Encoding: 49 49 20
Width: 926
GlyphClass: 2
Flags: W
LayerCount: 2
Fore
SplineSet
529 0 m 1,0,-1
 529 731 l 1,1,-1
 310 731 l 1,2,-1
 310 793 l 1,3,-1
 369 793 l 2,4,5
 433 793 433 793 483 840 c 0,6,7
 532 889 532 889 547 971 c 1,8,-1
 610 971 l 1,9,-1
 610 0 l 1,10,-1
 529 0 l 1,0,-1
EndSplineSet
EndChar

StartChar: two
Encoding: 50 50 21
Width: 926
GlyphClass: 2
Flags: W
LayerCount: 2
Fore
SplineSet
158 0 m 1,0,-1
 158 94 l 2,1,2
 158 188 158 188 247 285 c 0,3,4
 290 333 290 333 349.5 372 c 128,-1,5
 409 411 409 411 481 443 c 0,6,7
 523 463 523 463 558 490.5 c 128,-1,8
 593 518 593 518 618 553 c 0,9,10
 644 588 644 588 656.5 626 c 128,-1,11
 669 664 669 664 669 704 c 0,12,13
 669 786 669 786 608 843 c 0,14,15
 547 902 547 902 461 902 c 0,16,17
 378 902 378 902 321 834 c 0,18,19
 263 767 263 767 263 658 c 1,20,-1
 176 658 l 1,21,22
 176 799 176 799 260 890 c 0,23,24
 344 982 344 982 461 982 c 0,25,26
 523 982 523 982 576 961 c 128,-1,27
 629 940 629 940 673 900 c 0,28,29
 716 859 716 859 739 809.5 c 128,-1,30
 762 760 762 760 762 704 c 0,31,32
 762 606 762 606 694 517 c 0,33,34
 627 430 627 430 512 372 c 0,35,36
 452 344 452 344 404 311 c 128,-1,37
 356 278 356 278 321 243 c 0,38,39
 251 174 251 174 251 114 c 2,40,-1
 251 80 l 1,41,-1
 762 80 l 1,42,-1
 762 0 l 1,43,-1
 158 0 l 1,0,-1
EndSplineSet
EndChar

StartChar: three
Encoding: 51 51 22
Width: 928
GlyphClass: 2
Flags: W
LayerCount: 2
Fore
SplineSet
461 -11 m 0,0,1
 331 -11 331 -11 240 65 c 0,2,3
 147 143 147 143 147 254 c 2,4,-1
 147 274 l 1,5,-1
 232 274 l 1,6,-1
 232 254 l 2,7,8
 232 174 232 174 298 119 c 0,9,10
 367 62 367 62 461 62 c 0,11,12
 556 62 556 62 622 125 c 0,13,14
 689 189 689 189 689 278 c 0,15,16
 689 352 689 352 636 408 c 0,17,18
 583 463 583 463 509 463 c 2,19,-1
 391 463 l 1,20,-1
 391 544 l 1,21,-1
 509 544 l 2,22,23
 568 544 568 544 609 594 c 0,24,25
 653 645 653 645 653 717 c 0,26,27
 653 788 653 788 592 837 c 0,28,29
 533 889 533 889 450 889 c 0,30,31
 369 889 369 889 309 835 c 1,32,-1
 309 836 l 1,33,34
 251 784 251 784 251 710 c 2,35,-1
 251 669 l 1,36,-1
 165 669 l 1,37,-1
 171 730 l 1,38,39
 171 780 171 780 191 823 c 128,-1,40
 211 866 211 866 253 901 c 1,41,-1
 252 901 l 1,42,43
 332 971 332 971 450 971 c 256,44,45
 568 971 568 971 654 896 c 1,46,-1
 654 897 l 1,47,48
 738 822 738 822 738 717 c 0,49,50
 738 678 738 678 727.5 641 c 128,-1,51
 717 604 717 604 698 574 c 0,52,53
 682 549 682 549 665 531.5 c 128,-1,54
 648 514 648 514 626 504 c 1,55,56
 656 493 656 493 680 473.5 c 128,-1,57
 704 454 704 454 725 427 c 0,58,59
 774 360 774 360 774 278 c 0,60,61
 774 159 774 159 682 73 c 0,62,63
 637 33 637 33 581 11 c 128,-1,64
 525 -11 525 -11 461 -11 c 0,0,1
EndSplineSet
EndChar

StartChar: four
Encoding: 52 52 23
Width: 928
GlyphClass: 2
Flags: W
LayerCount: 2
Fore
SplineSet
560 0 m 1,0,-1
 560 231 l 1,1,-1
 133 231 l 1,2,-1
 133 317 l 1,3,-1
 577 971 l 1,4,-1
 641 971 l 1,5,-1
 641 312 l 1,6,-1
 788 312 l 1,7,-1
 788 231 l 1,8,-1
 641 231 l 1,9,-1
 641 0 l 1,10,-1
 560 0 l 1,0,-1
223 312 m 1,11,-1
 560 312 l 1,12,-1
 560 818 l 1,13,-1
 223 312 l 1,11,-1
EndSplineSet
EndChar

StartChar: five
Encoding: 53 53 24
Width: 928
GlyphClass: 2
Flags: W
LayerCount: 2
Fore
SplineSet
461 -11 m 0,0,1
 335 -11 335 -11 246 60 c 0,2,3
 155 135 155 135 146 251 c 1,4,-1
 227 251 l 1,5,6
 235 209 235 209 255.5 175.5 c 128,-1,7
 276 142 276 142 306 119 c 0,8,9
 373 69 373 69 461 69 c 0,10,11
 558 69 558 69 626 137 c 0,12,13
 695 207 695 207 695 302 c 0,14,15
 695 406 695 406 626 477 c 0,16,17
 558 548 558 548 461 548 c 0,18,19
 392 548 392 548 338 523 c 128,-1,20
 284 498 284 498 254 450 c 1,21,-1
 182 450 l 1,22,-1
 269 971 l 1,23,-1
 728 971 l 1,24,-1
 728 889 l 1,25,-1
 337 889 l 1,26,-1
 279 569 l 1,27,28
 343 623 343 623 474 623 c 0,29,30
 599 623 599 623 686 532 c 0,31,32
 774 443 774 443 774 314 c 0,33,34
 774 183 774 183 682 85 c 0,35,36
 637 39 637 39 581 14 c 128,-1,37
 525 -11 525 -11 461 -11 c 0,0,1
EndSplineSet
EndChar

StartChar: six
Encoding: 54 54 25
Width: 928
GlyphClass: 2
Flags: W
LayerCount: 2
Fore
SplineSet
474 -11 m 0,0,1
 310 -11 310 -11 228.5 100.5 c 128,-1,2
 147 212 147 212 147 435 c 0,3,4
 147 691 147 691 238 835 c 0,5,6
 332 982 332 982 498 982 c 0,7,8
 610 982 610 982 692 915 c 0,9,10
 774 849 774 849 774 742 c 1,11,-1
 689 742 l 1,12,13
 689 813 689 813 634 856 c 0,14,15
 579 902 579 902 498 902 c 0,16,17
 390 902 390 902 311 791 c 0,18,19
 232 681 232 681 232 521 c 2,20,-1
 232 478 l 1,21,22
 247 505 247 505 267.5 526.5 c 128,-1,23
 288 548 288 548 314 566 c 0,24,25
 349 589 349 589 390 602 c 128,-1,26
 431 615 431 615 474 615 c 0,27,28
 600 615 600 615 686 523 c 0,29,30
 774 432 774 432 774 302 c 256,31,32
 774 172 774 172 686 81 c 0,33,34
 599 -11 599 -11 474 -11 c 0,0,1
474 62 m 0,35,36
 566 62 566 62 630 132 c 0,37,38
 695 203 695 203 695 302 c 0,39,40
 695 402 695 402 630 472 c 0,41,42
 566 542 566 542 474 542 c 0,43,44
 430 542 430 542 388.5 522.5 c 128,-1,45
 347 503 347 503 315 472 c 0,46,47
 284 438 284 438 267.5 394 c 128,-1,48
 251 350 251 350 251 302 c 256,49,50
 251 254 251 254 268.5 210.5 c 128,-1,51
 286 167 286 167 315 132 c 1,52,53
 347 102 347 102 388.5 82 c 128,-1,54
 430 62 430 62 474 62 c 0,35,36
EndSplineSet
EndChar

StartChar: seven
Encoding: 55 55 26
Width: 926
GlyphClass: 2
Flags: W
LayerCount: 2
Fore
SplineSet
291 0 m 1,0,1
 291 121 291 121 319 246 c 128,-1,2
 347 371 347 371 398 491 c 0,3,4
 449 609 449 609 513.5 707.5 c 128,-1,5
 578 806 578 806 663 889 c 1,6,-1
 158 889 l 1,7,-1
 158 971 l 1,8,-1
 762 971 l 1,9,-1
 762 895 l 1,10,11
 590 714 590 714 487 474 c 0,12,13
 384 230 384 230 384 0 c 1,14,-1
 291 0 l 1,0,1
EndSplineSet
EndChar

StartChar: eight
Encoding: 56 56 27
Width: 928
GlyphClass: 2
Flags: W
LayerCount: 2
Fore
SplineSet
461 -11 m 256,0,1
 330 -11 330 -11 239 68 c 0,2,3
 147 149 147 149 147 264 c 0,4,5
 147 307 147 307 160.5 347.5 c 128,-1,6
 174 388 174 388 200 425 c 0,7,8
 224 456 224 456 255 481 c 128,-1,9
 286 506 286 506 323 522 c 1,10,11
 260 558 260 558 225 612.5 c 128,-1,12
 190 667 190 667 190 729 c 0,13,14
 190 832 190 832 269 907 c 0,15,16
 350 982 350 982 461 982 c 0,17,18
 570 982 570 982 654 907 c 0,19,20
 691 870 691 870 712.5 824.5 c 128,-1,21
 734 779 734 779 734 729 c 0,22,23
 734 661 734 661 698 605.5 c 128,-1,24
 662 550 662 550 602 521 c 1,25,26
 638 505 638 505 668 480 c 128,-1,27
 698 455 698 455 721 425 c 0,28,29
 747 388 747 388 760.5 347.5 c 128,-1,30
 774 307 774 307 774 264 c 0,31,32
 774 148 774 148 682 68 c 0,33,34
 592 -11 592 -11 461 -11 c 256,0,1
461 62 m 0,35,36
 557 62 557 62 626 122 c 256,37,38
 695 182 695 182 695 264 c 0,39,40
 695 351 695 351 626 413 c 0,41,42
 558 475 558 475 461 475 c 0,43,44
 365 475 365 475 296 414 c 0,45,46
 228 352 228 352 228 264 c 0,47,48
 228 182 228 182 296 122 c 0,49,50
 366 62 366 62 461 62 c 0,35,36
461 556 m 0,51,52
 541 556 541 556 596 608 c 0,53,54
 653 660 653 660 653 733 c 0,55,56
 653 807 653 807 596 858 c 0,57,58
 543 910 543 910 461 910 c 0,59,60
 381 910 381 910 326 858 c 0,61,62
 271 807 271 807 271 733 c 0,63,64
 271 660 271 660 326 608 c 0,65,66
 383 556 383 556 461 556 c 0,51,52
EndSplineSet
EndChar

StartChar: nine
Encoding: 57 57 28
Width: 928
GlyphClass: 2
Flags: W
LayerCount: 2
Fore
SplineSet
450 -11 m 0,0,1
 345 -11 345 -11 268 48 c 0,2,3
 188 110 188 110 169 214 c 1,4,-1
 249 214 l 1,5,6
 257 179 257 179 275 149.5 c 128,-1,7
 293 120 293 120 319 99 c 0,8,9
 345 79 345 79 379.5 67.5 c 128,-1,10
 414 56 414 56 450 56 c 0,11,12
 549 56 549 56 622 167 c 0,13,14
 695 277 695 277 695 435 c 2,15,-1
 695 483 l 1,16,17
 666 429 666 429 614 391 c 0,18,19
 546 341 546 341 461 341 c 0,20,21
 320 341 320 341 233 427 c 0,22,23
 147 516 147 516 147 655 c 0,24,25
 147 798 147 798 233 884 c 0,26,27
 320 971 320 971 461 971 c 0,28,29
 534 971 534 971 593 937.5 c 128,-1,30
 652 904 652 904 693 843 c 0,31,32
 733 780 733 780 753.5 693.5 c 128,-1,33
 774 607 774 607 774 498 c 0,34,35
 774 257 774 257 691 125 c 0,36,37
 606 -11 606 -11 450 -11 c 0,0,1
455 422 m 0,38,39
 546 422 546 422 608 490 c 0,40,41
 640 524 640 524 655.5 565.5 c 128,-1,42
 671 607 671 607 671 655 c 0,43,44
 671 753 671 753 608 820 c 0,45,46
 545 889 545 889 455 889 c 0,47,48
 403 889 403 889 362 873 c 128,-1,49
 321 857 321 857 289 825 c 0,50,51
 228 759 228 759 228 655 c 0,52,53
 228 549 228 549 289 485 c 0,54,55
 351 422 351 422 455 422 c 0,38,39
EndSplineSet
EndChar

StartChar: colon
Encoding: 58 58 29
Width: 371
GlyphClass: 2
Flags: W
LayerCount: 2
Fore
SplineSet
186 781 m 0,0,1
 223 781 223 781 248 741 c 128,-1,2
 273 701 273 701 273 645 c 0,3,4
 273 588 273 588 248 548 c 128,-1,5
 223 508 223 508 186 508 c 0,6,7
 148 508 148 508 123 548 c 128,-1,8
 98 588 98 588 98 645 c 0,9,10
 98 701 98 701 123 741 c 128,-1,11
 148 781 148 781 186 781 c 0,0,1
186 273 m 0,12,13
 223 273 223 273 248 233 c 128,-1,14
 273 193 273 193 273 137 c 0,15,16
 273 80 273 80 248 40 c 128,-1,17
 223 0 223 0 186 0 c 0,18,19
 148 0 148 0 123 40 c 128,-1,20
 98 80 98 80 98 137 c 0,21,22
 98 193 98 193 123 233 c 128,-1,23
 148 273 148 273 186 273 c 0,12,13
EndSplineSet
EndChar

StartChar: semicolon
Encoding: 59 59 30
Width: 557
GlyphClass: 2
Flags: W
LayerCount: 2
Fore
SplineSet
371 781 m 256,0,1
 408 781 408 781 433.5 741 c 128,-1,2
 459 701 459 701 459 645 c 0,3,4
 459 588 459 588 433.5 548 c 128,-1,5
 408 508 408 508 371 508 c 256,6,7
 334 508 334 508 308.5 548 c 128,-1,8
 283 588 283 588 283 645 c 0,9,10
 283 701 283 701 308.5 741 c 128,-1,11
 334 781 334 781 371 781 c 256,0,1
371 264 m 0,12,13
 408 264 408 264 433.5 224 c 128,-1,14
 459 184 459 184 459 127 c 0,15,16
 459 -16 459 -16 402.5 -137 c 128,-1,17
 346 -258 346 -258 244 -332 c 0,18,19
 238 -336 238 -336 226.5 -334 c 128,-1,20
 215 -332 215 -332 205 -322 c 0,21,22
 191 -311 191 -311 195 -293 c 128,-1,23
 199 -275 199 -275 215 -264 c 0,24,25
 297 -209 297 -209 344 -138.5 c 128,-1,26
 391 -68 391 -68 391 0 c 1,27,28
 346 -8 346 -8 309.5 30 c 128,-1,29
 273 68 273 68 273 127 c 0,30,31
 273 184 273 184 301.5 224 c 128,-1,32
 330 264 330 264 371 264 c 0,12,13
EndSplineSet
EndChar

StartChar: less
Encoding: 60 60 31
Width: 1068
GlyphClass: 2
Flags: W
LayerCount: 2
Fore
SplineSet
732 908 m 1,0,-1
 806 836 l 1,1,-1
 486 516 l 1,2,-1
 804 200 l 1,3,-1
 732 128 l 1,4,-1
 342 516 l 1,5,-1
 732 908 l 1,0,-1
EndSplineSet
EndChar

StartChar: equal
Encoding: 61 61 32
Width: 1074
GlyphClass: 2
Flags: W
LayerCount: 2
Fore
SplineSet
146 254 m 2,0,-1
 947 254 l 2,1,2
 959 254 959 254 968 245 c 128,-1,3
 977 236 977 236 977 225 c 0,4,5
 977 205 977 205 965 190.5 c 128,-1,6
 953 176 953 176 937 176 c 2,7,-1
 156 176 l 2,8,9
 133 176 133 176 115.5 187.5 c 128,-1,10
 98 199 98 199 98 215 c 0,11,12
 98 230 98 230 112.5 242 c 128,-1,13
 127 254 127 254 146 254 c 2,0,-1
146 645 m 2,14,-1
 947 645 l 2,15,16
 959 645 959 645 968 636 c 128,-1,17
 977 627 977 627 977 615 c 0,18,19
 977 596 977 596 965 581 c 128,-1,20
 953 566 953 566 937 566 c 2,21,-1
 156 566 l 2,22,23
 133 566 133 566 115.5 578 c 128,-1,24
 98 590 98 590 98 605 c 0,25,26
 98 621 98 621 112.5 633 c 128,-1,27
 127 645 127 645 146 645 c 2,14,-1
EndSplineSet
EndChar

StartChar: greater
Encoding: 62 62 33
Width: 1068
GlyphClass: 2
Flags: W
LayerCount: 2
Fore
SplineSet
866 516 m 1,0,-1
 476 128 l 1,1,-1
 404 200 l 1,2,-1
 722 516 l 1,3,-1
 402 836 l 1,4,-1
 476 908 l 1,5,-1
 866 516 l 1,0,-1
EndSplineSet
EndChar

StartChar: question
Encoding: 63 63 34
Width: 840
GlyphClass: 2
Flags: W
LayerCount: 2
Fore
SplineSet
332 1172 m 2,0,-1
 605 1172 l 2,1,2
 662 1172 662 1172 702 1132 c 128,-1,3
 742 1092 742 1092 742 1035 c 2,4,-1
 742 723 l 2,5,6
 742 682 742 682 726.5 650.5 c 128,-1,7
 711 619 711 619 684 605 c 1,8,-1
 547 508 l 2,9,10
 529 500 529 500 518.5 483.5 c 128,-1,11
 508 467 508 467 508 449 c 2,12,-1
 508 352 l 2,13,14
 508 336 508 336 496 324 c 128,-1,15
 484 312 484 312 469 312 c 0,16,17
 453 312 453 312 441.5 324 c 128,-1,18
 430 336 430 336 430 352 c 2,19,-1
 430 469 l 2,20,21
 430 496 430 496 445.5 520.5 c 128,-1,22
 461 545 461 545 488 557 c 1,23,-1
 625 654 l 2,24,25
 643 662 643 662 653.5 680.5 c 128,-1,26
 664 699 664 699 664 723 c 2,27,-1
 664 1035 l 2,28,29
 664 1059 664 1059 646.5 1076.5 c 128,-1,30
 629 1094 629 1094 605 1094 c 2,31,-1
 332 1094 l 2,32,33
 309 1094 309 1094 291 1076.5 c 128,-1,34
 273 1059 273 1059 273 1035 c 2,35,-1
 273 781 l 2,36,37
 273 748 273 748 304.5 725.5 c 128,-1,38
 336 703 336 703 381 703 c 0,39,40
 393 703 393 703 401.5 691.5 c 128,-1,41
 410 680 410 680 410 664 c 256,42,43
 410 648 410 648 401.5 636.5 c 128,-1,44
 393 625 393 625 381 625 c 0,45,46
 305 625 305 625 250 671 c 128,-1,47
 195 717 195 717 195 781 c 2,48,-1
 195 1035 l 2,49,50
 195 1092 195 1092 235 1132 c 128,-1,51
 275 1172 275 1172 332 1172 c 2,0,-1
469 264 m 0,52,53
 506 264 506 264 531.5 226.5 c 128,-1,54
 557 189 557 189 557 137 c 0,55,56
 557 80 557 80 531.5 40 c 128,-1,57
 506 0 506 0 469 0 c 0,58,59
 428 0 428 0 399.5 40 c 128,-1,60
 371 80 371 80 371 137 c 0,61,62
 371 189 371 189 399.5 226.5 c 128,-1,63
 428 264 428 264 469 264 c 0,52,53
EndSplineSet
EndChar

StartChar: at
Encoding: 64 64 35
Width: 1760
GlyphClass: 2
Flags: W
LayerCount: 2
Fore
SplineSet
936 128 m 1,0,1
 800 -2 800 -2 668 -2 c 0,2,3
 504 -2 504 -2 462 164 c 0,4,5
 450 212 450 212 450 262 c 2,6,-1
 450 314 l 1,7,-1
 458 348 l 2,8,9
 488 476 488 476 575 601 c 128,-1,10
 662 726 662 726 772 786 c 128,-1,11
 882 846 882 846 970 846 c 0,12,13
 1112 846 1112 846 1176 702 c 1,14,-1
 1228 824 l 1,15,-1
 1368 824 l 1,16,-1
 1094 180 l 1,17,18
 1094 160 1094 160 1102 142 c 1,19,20
 1112 132 1112 132 1138 128 c 1,21,22
 1184 128 1184 128 1258 174 c 0,23,24
 1356 236 1356 236 1434 343 c 128,-1,25
 1512 450 1512 450 1532 560 c 2,26,-1
 1540 604 l 1,27,-1
 1542 656 l 2,28,29
 1544 726 1544 726 1518 802 c 0,30,31
 1476 924 1476 924 1338 992 c 0,32,33
 1220 1052 1220 1052 1078 1052 c 0,34,35
 786 1052 786 1052 567 861 c 128,-1,36
 348 670 348 670 284 380 c 0,37,38
 266 298 266 298 266 224 c 0,39,40
 266 -50 266 -50 492 -154 c 0,41,42
 636 -220 636 -220 828 -220 c 0,43,44
 1204 -220 1204 -220 1428 14 c 1,45,-1
 1568 14 l 1,46,47
 1444 -182 1444 -182 1138 -286 c 0,48,49
 992 -336 992 -336 804 -336 c 0,50,51
 448 -336 448 -336 278 -162 c 0,52,53
 146 -26 146 -26 146 196 c 0,54,55
 146 464 146 464 320 730 c 0,56,57
 454 936 454 936 661 1051 c 128,-1,58
 868 1166 868 1166 1110 1166 c 0,59,60
 1524 1166 1524 1166 1634 852 c 0,61,62
 1662 770 1662 770 1660 686 c 2,63,-1
 1658 624 l 1,64,-1
 1646 556 l 2,65,66
 1608 342 1608 342 1402 156 c 0,67,68
 1224 -4 1224 -4 1058 -4 c 2,69,-1
 1036 -4 l 1,70,-1
 1006 0 l 2,71,72
 960 6 960 6 934 60 c 1,73,-1
 932 86 l 1,74,-1
 936 128 l 1,0,1
602 340 m 2,75,-1
 596 302 l 1,76,-1
 594 264 l 2,77,78
 590 202 590 202 625 158 c 128,-1,79
 660 114 660 114 720 114 c 0,80,81
 844 114 844 114 926 218 c 1,82,83
 978 258 978 258 1028 350 c 0,84,85
 1076 436 1076 436 1088 508 c 2,86,-1
 1094 542 l 1,87,-1
 1096 578 l 2,88,89
 1100 642 1100 642 1060 687 c 128,-1,90
 1020 732 1020 732 956 732 c 0,91,92
 800 732 800 732 660 490 c 0,93,94
 612 408 612 408 602 340 c 2,75,-1
EndSplineSet
EndChar

StartChar: bracketleft
Encoding: 91 91 36
Width: 556
GlyphClass: 2
Flags: W
LayerCount: 2
Fore
SplineSet
50 -398 m 1,0,-1
 442 1432 l 1,1,-1
 830 1432 l 1,2,-1
 798 1286 l 1,3,-1
 586 1286 l 1,4,-1
 258 -252 l 1,5,-1
 470 -252 l 1,6,-1
 438 -398 l 1,7,-1
 50 -398 l 1,0,-1
EndSplineSet
EndChar

StartChar: backslash
Encoding: 92 92 37
Width: 556
GlyphClass: 2
Flags: W
LayerCount: 2
Fore
SplineSet
416 -24 m 1,0,-1
 0 1456 l 1,1,-1
 142 1456 l 1,2,-1
 556 -24 l 1,3,-1
 416 -24 l 1,0,-1
EndSplineSet
EndChar

StartChar: bracketright
Encoding: 93 93 38
Width: 556
GlyphClass: 2
Flags: W
LayerCount: 2
Fore
SplineSet
340 -398 m 1,0,-1
 -48 -398 l 1,1,-1
 -16 -252 l 1,2,-1
 196 -252 l 1,3,-1
 524 1286 l 1,4,-1
 312 1286 l 1,5,-1
 344 1432 l 1,6,-1
 732 1432 l 1,7,-1
 340 -398 l 1,0,-1
EndSplineSet
EndChar

StartChar: asciicircum
Encoding: 94 94 39
Width: 938
GlyphClass: 2
Flags: W
LayerCount: 2
Fore
SplineSet
234 674 m 1,0,-1
 52 674 l 1,1,-1
 398 1456 l 1,2,-1
 540 1456 l 1,3,-1
 886 674 l 1,4,-1
 708 674 l 1,5,-1
 468 1256 l 1,6,-1
 234 674 l 1,0,-1
EndSplineSet
EndChar

StartChar: underscore
Encoding: 95 95 40
Width: 1112
GlyphClass: 2
Flags: W
LayerCount: 2
Fore
SplineSet
-30 -398 m 1,0,-1
 -30 -270 l 1,1,-1
 1134 -270 l 1,2,-1
 1134 -398 l 1,3,-1
 -30 -398 l 1,0,-1
EndSplineSet
EndChar

StartChar: grave
Encoding: 96 96 41
Width: 666
GlyphClass: 2
Flags: W
LayerCount: 2
Fore
SplineSet
454 1166 m 1,0,-1
 312 1166 l 1,1,-1
 86 1440 l 1,2,-1
 322 1440 l 1,3,-1
 454 1166 l 1,0,-1
EndSplineSet
EndChar

StartChar: braceleft
Encoding: 123 123 42
Width: 668
GlyphClass: 2
Flags: W
LayerCount: 2
Fore
SplineSet
184 598 m 1,0,1
 336 598 336 598 400 744 c 1,2,-1
 434 854 l 1,3,-1
 466 974 l 2,4,5
 480 1042 480 1042 520 1202 c 0,6,7
 550 1312 550 1312 650 1396 c 0,8,9
 686 1426 686 1426 756 1446 c 1,10,-1
 804 1454 l 1,11,-1
 878 1456 l 1,12,-1
 934 1456 l 1,13,-1
 900 1302 l 1,14,-1
 868 1302 l 2,15,16
 770 1302 770 1302 724 1264 c 0,17,18
 690 1236 690 1236 658 1102 c 2,19,-1
 644 1042 l 1,20,-1
 614 898 l 1,21,-1
 596 824 l 2,22,23
 590 800 590 800 578 780 c 0,24,25
 536 676 536 676 484 623 c 128,-1,26
 432 570 432 570 328 518 c 1,27,28
 468 460 468 460 468 296 c 0,29,30
 468 244 468 244 438 78 c 2,31,-1
 392 -178 l 1,32,33
 392 -220 392 -220 414 -242 c 1,34,-1
 450 -258 l 1,35,36
 486 -268 486 -268 532 -268 c 2,37,-1
 564 -268 l 1,38,-1
 532 -420 l 1,39,-1
 476 -420 l 2,40,41
 378 -420 378 -420 342 -406 c 0,42,43
 292 -386 292 -386 256 -334 c 1,44,-1
 234 -278 l 1,45,-1
 226 -206 l 1,46,47
 226 -160 226 -160 244 -72 c 2,48,-1
 268 46 l 1,49,-1
 296 194 l 1,50,-1
 304 290 l 2,51,52
 310 352 310 352 264 398 c 1,53,54
 214 438 214 438 150 438 c 1,55,-1
 184 598 l 1,0,1
EndSplineSet
EndChar

StartChar: bar
Encoding: 124 124 43
Width: 520
GlyphClass: 2
Flags: W
LayerCount: 2
Fore
SplineSet
184 -420 m 1,0,-1
 184 1456 l 1,1,-1
 336 1456 l 1,2,-1
 336 -420 l 1,3,-1
 184 -420 l 1,0,-1
EndSplineSet
EndChar

StartChar: braceright
Encoding: 125 125 44
Width: 668
GlyphClass: 2
Flags: W
LayerCount: 2
Fore
SplineSet
740 598 m 1,0,-1
 706 438 l 1,1,2
 632 438 632 438 570 398 c 128,-1,3
 508 358 508 358 486 290 c 2,4,-1
 456 200 l 1,5,-1
 372 -154 l 2,6,7
 354 -230 354 -230 310 -282 c 2,8,-1
 274 -324 l 1,9,-1
 234 -364 l 1,10,-1
 194 -386 l 1,11,-1
 134 -410 l 1,12,-1
 86 -418 l 1,13,-1
 10 -420 l 1,14,-1
 -44 -420 l 1,15,-1
 -12 -268 l 1,16,-1
 18 -268 l 2,17,18
 116 -268 116 -268 159 -231 c 128,-1,19
 202 -194 202 -194 230 -66 c 2,20,-1
 272 124 l 1,21,-1
 304 244 l 2,22,23
 354 432 354 432 558 518 c 1,24,25
 460 566 460 566 432 656 c 0,26,27
 422 688 422 688 422 748 c 0,28,29
 422 838 422 838 448 958 c 2,30,-1
 474 1078 l 1,31,-1
 486 1142 l 1,32,-1
 496 1212 l 1,33,-1
 496 1222 l 2,34,35
 496 1302 496 1302 354 1302 c 2,36,-1
 324 1302 l 1,37,-1
 358 1456 l 1,38,-1
 412 1456 l 2,39,40
 584 1456 584 1456 634 1370 c 0,41,42
 660 1326 660 1326 660 1240 c 1,43,-1
 650 1138 l 1,44,-1
 592 834 l 1,45,-1
 582 742 l 1,46,47
 582 686 582 686 624 638 c 1,48,49
 646 620 646 620 674 608 c 1,50,-1
 704 600 l 1,51,-1
 740 598 l 1,0,-1
EndSplineSet
EndChar

StartChar: asciitilde
Encoding: 126 126 45
Width: 1168
GlyphClass: 2
Flags: W
LayerCount: 2
Fore
SplineSet
84 544 m 1,0,-1
 84 744 l 1,1,2
 190 862 190 862 356 862 c 0,3,4
 402 862 402 862 480 844 c 1,5,6
 526 826 526 826 664 776 c 2,7,-1
 764 740 l 1,8,-1
 806 730 l 1,9,-1
 832 730 l 2,10,11
 950 730 950 730 1084 864 c 1,12,-1
 1084 658 l 1,13,14
 1024 604 1024 604 960 572 c 1,15,16
 876 544 876 544 814 546 c 2,17,-1
 758 548 l 1,18,-1
 726 548 l 1,19,20
 718 552 718 552 704 556 c 0,21,22
 662 568 662 568 524 628 c 0,23,24
 414 676 414 676 340 676 c 0,25,26
 276 676 276 676 222 650 c 1,27,-1
 162 612 l 1,28,-1
 136 592 l 1,29,-1
 84 544 l 1,0,-1
EndSplineSet
EndChar

StartChar: cent
Encoding: 162 162 46
Width: 721
GlyphClass: 2
Flags: W
LayerCount: 2
Fore
SplineSet
598 156 m 1,0,1
 537 71 537 71 467 31 c 128,-1,2
 397 -9 397 -9 304 -17 c 1,3,-1
 228 -265 l 1,4,-1
 187 -265 l 1,5,-1
 262 -17 l 1,6,7
 177 -8 177 -8 128.5 47 c 128,-1,8
 80 102 80 102 80 188 c 0,9,10
 80 345 80 345 191.5 478.5 c 128,-1,11
 303 612 303 612 457 638 c 1,12,-1
 541 917 l 1,13,-1
 580 917 l 1,14,-1
 499 638 l 1,15,16
 580 638 580 638 616.5 607 c 128,-1,17
 653 576 653 576 653 523 c 0,18,19
 653 482 653 482 631.5 455.5 c 128,-1,20
 610 429 610 429 580 429 c 0,21,22
 557 429 557 429 544 442 c 128,-1,23
 531 455 531 455 531 476 c 0,24,25
 531 491 531 491 536 502 c 128,-1,26
 541 513 541 513 560.5 534.5 c 128,-1,27
 580 556 580 556 580 570 c 0,28,29
 580 578 580 578 575 585 c 0,30,31
 565 596 565 596 549.5 601 c 128,-1,32
 534 606 534 606 489 606 c 1,33,-1
 322 49 l 1,34,-1
 352 47 l 1,35,36
 470 47 470 47 580 173 c 1,37,-1
 598 156 l 1,0,1
284 57 m 1,38,-1
 445 598 l 1,39,40
 383 570 383 570 342 533 c 0,41,42
 274 467 274 467 237 380.5 c 128,-1,43
 200 294 200 294 200 205 c 0,44,45
 200 146 200 146 224 108 c 0,46,47
 243 81 243 81 284 57 c 1,38,-1
EndSplineSet
EndChar

StartChar: multiply
Encoding: 215 215 47
Width: 975
GlyphClass: 2
Flags: W
LayerCount: 2
Fore
SplineSet
267 230 m 1,0,-1
 515 479 l 1,1,-1
 267 728 l 1,2,-1
 308 768 l 1,3,-1
 556 520 l 1,4,-1
 805 768 l 1,5,-1
 844 728 l 1,6,-1
 595 480 l 1,7,-1
 845 230 l 1,8,-1
 805 190 l 1,9,-1
 555 439 l 1,10,-1
 307 190 l 1,11,-1
 267 230 l 1,0,-1
EndSplineSet
EndChar

StartChar: divide
Encoding: 247 247 48
Width: 1014
GlyphClass: 2
Flags: W
LayerCount: 2
Fore
SplineSet
396 107 m 0,0,1
 396 152 396 152 427.5 183.5 c 128,-1,2
 459 215 459 215 504 215 c 256,3,4
 549 215 549 215 580 186.5 c 128,-1,5
 611 158 611 158 611 117 c 0,6,7
 611 72 611 72 583 41 c 128,-1,8
 555 10 555 10 514 10 c 0,9,10
 465 10 465 10 430.5 38 c 128,-1,11
 396 66 396 66 396 107 c 0,0,1
98 330 m 1,12,-1
 98 451 l 1,13,-1
 916 451 l 1,14,-1
 916 330 l 1,15,-1
 98 330 l 1,12,-1
396 664 m 0,16,17
 396 709 396 709 427.5 740 c 128,-1,18
 459 771 459 771 504 771 c 256,19,20
 549 771 549 771 580 743 c 128,-1,21
 611 715 611 715 611 674 c 0,22,23
 611 629 611 629 583 597.5 c 128,-1,24
 555 566 555 566 514 566 c 0,25,26
 465 566 465 566 430.5 594.5 c 128,-1,27
 396 623 396 623 396 664 c 0,16,17
EndSplineSet
EndChar

StartChar: tm_visarga
Encoding: 2947 2947 49
Width: 1334
GlyphClass: 2
Flags: W
LayerCount: 2
Fore
SplineSet
227 586 m 2,0,-1
 295 586 l 2,1,2
 359 586 359 586 405 540 c 128,-1,3
 451 494 451 494 451 430 c 2,4,-1
 451 156 l 2,5,6
 451 92 451 92 402.5 46 c 128,-1,7
 354 0 354 0 285 0 c 2,8,-1
 227 0 l 2,9,10
 158 0 158 0 109.5 46 c 128,-1,11
 61 92 61 92 61 156 c 2,12,-1
 61 430 l 2,13,14
 61 494 61 494 109.5 540 c 128,-1,15
 158 586 158 586 227 586 c 2,0,-1
227 508 m 2,16,17
 189 508 189 508 164 485.5 c 128,-1,18
 139 463 139 463 139 430 c 2,19,-1
 139 156 l 2,20,21
 139 123 139 123 164 100.5 c 128,-1,22
 189 78 189 78 227 78 c 2,23,-1
 285 78 l 2,24,25
 322 78 322 78 347.5 100.5 c 128,-1,26
 373 123 373 123 373 156 c 2,27,-1
 373 430 l 2,28,29
 373 463 373 463 350.5 485.5 c 128,-1,30
 328 508 328 508 295 508 c 2,31,-1
 227 508 l 2,16,17
1047 586 m 2,32,-1
 1115 586 l 2,33,34
 1180 586 1180 586 1225.5 540 c 128,-1,35
 1271 494 1271 494 1271 430 c 2,36,-1
 1271 156 l 2,37,38
 1271 92 1271 92 1222.5 46 c 128,-1,39
 1174 0 1174 0 1105 0 c 2,40,-1
 1047 0 l 2,41,42
 979 0 979 0 930 46 c 128,-1,43
 881 92 881 92 881 156 c 2,44,-1
 881 430 l 2,45,46
 881 494 881 494 930 540 c 128,-1,47
 979 586 979 586 1047 586 c 2,32,-1
1047 508 m 2,48,49
 1010 508 1010 508 984.5 485.5 c 128,-1,50
 959 463 959 463 959 430 c 2,51,-1
 959 156 l 2,52,53
 959 123 959 123 984.5 100.5 c 128,-1,54
 1010 78 1010 78 1047 78 c 2,55,-1
 1105 78 l 2,56,57
 1143 78 1143 78 1168 100.5 c 128,-1,58
 1193 123 1193 123 1193 156 c 2,59,-1
 1193 430 l 2,60,61
 1193 463 1193 463 1170.5 485.5 c 128,-1,62
 1148 508 1148 508 1115 508 c 2,63,-1
 1047 508 l 2,48,49
637 1367 m 2,64,-1
 705 1367 l 2,65,66
 770 1367 770 1367 815.5 1321 c 128,-1,67
 861 1275 861 1275 861 1211 c 2,68,-1
 861 937 l 2,69,70
 861 873 861 873 812.5 827 c 128,-1,71
 764 781 764 781 695 781 c 2,72,-1
 637 781 l 2,73,74
 568 781 568 781 519.5 827 c 128,-1,75
 471 873 471 873 471 937 c 2,76,-1
 471 1211 l 2,77,78
 471 1275 471 1275 519.5 1321 c 128,-1,79
 568 1367 568 1367 637 1367 c 2,64,-1
637 1289 m 2,80,81
 600 1289 600 1289 574.5 1266.5 c 128,-1,82
 549 1244 549 1244 549 1211 c 2,83,-1
 549 937 l 2,84,85
 549 904 549 904 574.5 881.5 c 128,-1,86
 600 859 600 859 637 859 c 2,87,-1
 695 859 l 2,88,89
 732 859 732 859 757.5 881.5 c 128,-1,90
 783 904 783 904 783 937 c 2,91,-1
 783 1211 l 2,92,93
 783 1244 783 1244 760.5 1266.5 c 128,-1,94
 738 1289 738 1289 705 1289 c 2,95,-1
 637 1289 l 2,80,81
EndSplineSet
EndChar

StartChar: tm_a
Encoding: 2949 2949 50
Width: 1293
GlyphClass: 2
Flags: W
LayerCount: 2
Fore
SplineSet
475 781 m 2,0,-1
 836 781 l 2,1,2
 893 781 893 781 933 741 c 128,-1,3
 973 701 973 701 973 645 c 2,4,-1
 973 312 l 1,5,-1
 1109 312 l 1,6,-1
 1109 664 l 2,7,8
 1109 680 1109 680 1091.5 691.5 c 128,-1,9
 1074 703 1074 703 1051 703 c 0,10,11
 1035 703 1035 703 1023.5 715 c 128,-1,12
 1012 727 1012 727 1012 742 c 0,13,14
 1012 758 1012 758 1020.5 769.5 c 128,-1,15
 1029 781 1029 781 1041 781 c 0,16,17
 1061 781 1061 781 1095 766.5 c 128,-1,18
 1129 752 1129 752 1148 752 c 0,19,20
 1168 752 1168 752 1202 766.5 c 128,-1,21
 1236 781 1236 781 1256 781 c 0,22,23
 1268 781 1268 781 1276.5 769.5 c 128,-1,24
 1285 758 1285 758 1285 742 c 0,25,26
 1285 727 1285 727 1273.5 715 c 128,-1,27
 1262 703 1262 703 1246 703 c 0,28,29
 1223 703 1223 703 1205 691.5 c 128,-1,30
 1187 680 1187 680 1187 664 c 2,31,-1
 1187 39 l 2,32,33
 1187 23 1187 23 1205 11.5 c 128,-1,34
 1223 0 1223 0 1246 0 c 0,35,36
 1262 0 1262 0 1273.5 -11.5 c 128,-1,37
 1285 -23 1285 -23 1285 -39 c 256,38,39
 1285 -55 1285 -55 1276.5 -66.5 c 128,-1,40
 1268 -78 1268 -78 1256 -78 c 0,41,42
 1236 -78 1236 -78 1202 -63.5 c 128,-1,43
 1168 -49 1168 -49 1148 -49 c 0,44,45
 1129 -49 1129 -49 1095 -63.5 c 128,-1,46
 1061 -78 1061 -78 1041 -78 c 0,47,48
 1029 -78 1029 -78 1020.5 -66.5 c 128,-1,49
 1012 -55 1012 -55 1012 -39 c 256,50,51
 1012 -23 1012 -23 1023.5 -11.5 c 128,-1,52
 1035 0 1035 0 1051 0 c 0,53,54
 1074 0 1074 0 1091.5 11.5 c 128,-1,55
 1109 23 1109 23 1109 39 c 2,56,-1
 1109 234 l 1,57,-1
 973 234 l 1,58,-1
 973 176 l 2,59,60
 973 70 973 70 901.5 -4 c 128,-1,61
 830 -78 830 -78 729 -78 c 2,62,-1
 182 -78 l 2,63,64
 121 -78 121 -78 78 -38 c 128,-1,65
 35 2 35 2 35 59 c 2,66,-1
 35 176 l 2,67,68
 35 232 35 232 78 272 c 128,-1,69
 121 312 121 312 182 312 c 2,70,-1
 895 312 l 1,71,-1
 895 645 l 2,72,73
 895 668 895 668 877 685.5 c 128,-1,74
 859 703 859 703 836 703 c 2,75,-1
 621 703 l 1,76,-1
 621 488 l 2,77,78
 621 432 621 432 581 392 c 128,-1,79
 541 352 541 352 484 352 c 2,80,-1
 465 352 l 2,81,82
 408 352 408 352 368 392 c 128,-1,83
 328 432 328 432 328 488 c 2,84,-1
 328 645 l 2,85,86
 328 701 328 701 371 741 c 128,-1,87
 414 781 414 781 475 781 c 2,0,-1
475 703 m 2,88,89
 447 703 447 703 426.5 685.5 c 128,-1,90
 406 668 406 668 406 645 c 2,91,-1
 406 488 l 2,92,93
 406 465 406 465 426.5 447.5 c 128,-1,94
 447 430 447 430 475 430 c 0,95,96
 502 430 502 430 522.5 447.5 c 128,-1,97
 543 465 543 465 543 488 c 2,98,-1
 543 703 l 1,99,-1
 475 703 l 2,88,89
182 234 m 2,100,101
 154 234 154 234 133.5 216.5 c 128,-1,102
 113 199 113 199 113 176 c 2,103,-1
 113 59 l 2,104,105
 113 35 113 35 133.5 17.5 c 128,-1,106
 154 0 154 0 182 0 c 2,107,-1
 729 0 l 2,108,109
 797 0 797 0 846 52 c 128,-1,110
 895 104 895 104 895 176 c 2,111,-1
 895 234 l 1,112,-1
 182 234 l 2,100,101
EndSplineSet
EndChar

StartChar: tm_aa
Encoding: 2950 2950 51
Width: 1555
GlyphClass: 2
Flags: W
LayerCount: 2
Fore
SplineSet
475 781 m 2,0,-1
 836 781 l 2,1,2
 893 781 893 781 933 741 c 128,-1,3
 973 701 973 701 973 645 c 2,4,-1
 973 312 l 1,5,-1
 1109 312 l 1,6,-1
 1109 664 l 2,7,8
 1109 680 1109 680 1091.5 691.5 c 128,-1,9
 1074 703 1074 703 1051 703 c 0,10,11
 1035 703 1035 703 1023.5 715 c 128,-1,12
 1012 727 1012 727 1012 742 c 0,13,14
 1012 758 1012 758 1020.5 769.5 c 128,-1,15
 1029 781 1029 781 1041 781 c 0,16,17
 1061 781 1061 781 1095 766.5 c 128,-1,18
 1129 752 1129 752 1148 752 c 0,19,20
 1168 752 1168 752 1202 766.5 c 128,-1,21
 1236 781 1236 781 1256 781 c 0,22,23
 1268 781 1268 781 1276.5 769.5 c 128,-1,24
 1285 758 1285 758 1285 742 c 0,25,26
 1285 727 1285 727 1273.5 715 c 128,-1,27
 1262 703 1262 703 1246 703 c 0,28,29
 1223 703 1223 703 1205 691.5 c 128,-1,30
 1187 680 1187 680 1187 664 c 2,31,-1
 1187 137 l 1,32,33
 1199 146 1199 146 1218.5 151 c 128,-1,34
 1238 156 1238 156 1266 156 c 2,35,-1
 1402 156 l 2,36,37
 1459 156 1459 156 1499 116 c 128,-1,38
 1539 76 1539 76 1539 20 c 2,39,-1
 1539 -293 l 2,40,41
 1539 -383 1539 -383 1473.5 -445.5 c 128,-1,42
 1408 -508 1408 -508 1314 -508 c 2,43,-1
 553 -508 l 2,44,45
 492 -508 492 -508 449 -473.5 c 128,-1,46
 406 -439 406 -439 406 -391 c 2,47,-1
 406 -332 l 2,48,49
 406 -283 406 -283 446 -249 c 128,-1,50
 486 -215 486 -215 543 -215 c 2,51,-1
 699 -215 l 2,52,53
 750 -215 750 -215 796 -200.5 c 128,-1,54
 842 -186 842 -186 875 -156 c 0,55,56
 883 -150 883 -150 894.5 -156 c 128,-1,57
 906 -162 906 -162 914 -176 c 0,58,59
 922 -188 922 -188 916 -204.5 c 128,-1,60
 910 -221 910 -221 895 -234 c 0,61,62
 861 -264 861 -264 810.5 -278.5 c 128,-1,63
 760 -293 760 -293 699 -293 c 2,64,-1
 543 -293 l 2,65,66
 520 -293 520 -293 502 -304.5 c 128,-1,67
 484 -316 484 -316 484 -332 c 2,68,-1
 484 -391 l 2,69,70
 484 -406 484 -406 504.5 -418 c 128,-1,71
 525 -430 525 -430 553 -430 c 2,72,-1
 1314 -430 l 2,73,74
 1375 -430 1375 -430 1418 -390 c 128,-1,75
 1461 -350 1461 -350 1461 -293 c 2,76,-1
 1461 20 l 2,77,78
 1461 43 1461 43 1443.5 60.5 c 128,-1,79
 1426 78 1426 78 1402 78 c 2,80,-1
 1266 78 l 2,81,82
 1232 78 1232 78 1209.5 66.5 c 128,-1,83
 1187 55 1187 55 1187 39 c 2,84,-1
 1187 -176 l 2,85,86
 1187 -191 1187 -191 1205 -203 c 128,-1,87
 1223 -215 1223 -215 1246 -215 c 0,88,89
 1262 -215 1262 -215 1273.5 -226.5 c 128,-1,90
 1285 -238 1285 -238 1285 -254 c 256,91,92
 1285 -270 1285 -270 1276.5 -281.5 c 128,-1,93
 1268 -293 1268 -293 1256 -293 c 0,94,95
 1236 -293 1236 -293 1202 -278.5 c 128,-1,96
 1168 -264 1168 -264 1148 -264 c 0,97,98
 1129 -264 1129 -264 1095 -278.5 c 128,-1,99
 1061 -293 1061 -293 1041 -293 c 0,100,101
 1029 -293 1029 -293 1020.5 -281.5 c 128,-1,102
 1012 -270 1012 -270 1012 -254 c 256,103,104
 1012 -238 1012 -238 1023.5 -226.5 c 128,-1,105
 1035 -215 1035 -215 1051 -215 c 0,106,107
 1074 -215 1074 -215 1091.5 -203 c 128,-1,108
 1109 -191 1109 -191 1109 -176 c 2,109,-1
 1109 234 l 1,110,-1
 973 234 l 1,111,-1
 973 156 l 2,112,113
 973 59 973 59 907.5 -9.5 c 128,-1,114
 842 -78 842 -78 748 -78 c 2,115,-1
 182 -78 l 2,116,117
 121 -78 121 -78 78 -38 c 128,-1,118
 35 2 35 2 35 59 c 2,119,-1
 35 176 l 2,120,121
 35 232 35 232 78 272 c 128,-1,122
 121 312 121 312 182 312 c 2,123,-1
 895 312 l 1,124,-1
 895 645 l 2,125,126
 895 668 895 668 877 685.5 c 128,-1,127
 859 703 859 703 836 703 c 2,128,-1
 621 703 l 1,129,-1
 621 488 l 2,130,131
 621 432 621 432 578 392 c 128,-1,132
 535 352 535 352 475 352 c 0,133,134
 414 352 414 352 371 392 c 128,-1,135
 328 432 328 432 328 488 c 2,136,-1
 328 645 l 2,137,138
 328 701 328 701 371 741 c 128,-1,139
 414 781 414 781 475 781 c 2,0,-1
475 703 m 2,140,141
 447 703 447 703 426.5 685.5 c 128,-1,142
 406 668 406 668 406 645 c 2,143,-1
 406 488 l 2,144,145
 406 465 406 465 426.5 447.5 c 128,-1,146
 447 430 447 430 475 430 c 0,147,148
 502 430 502 430 522.5 447.5 c 128,-1,149
 543 465 543 465 543 488 c 2,150,-1
 543 703 l 1,151,-1
 475 703 l 2,140,141
182 234 m 2,152,153
 154 234 154 234 133.5 216.5 c 128,-1,154
 113 199 113 199 113 176 c 2,155,-1
 113 59 l 2,156,157
 113 35 113 35 133.5 17.5 c 128,-1,158
 154 0 154 0 182 0 c 2,159,-1
 748 0 l 2,160,161
 809 0 809 0 852 46 c 128,-1,162
 895 92 895 92 895 156 c 2,163,-1
 895 234 l 1,164,-1
 182 234 l 2,152,153
EndSplineSet
EndChar

StartChar: tm_i
Encoding: 2951 2951 52
Width: 1375
GlyphClass: 2
Flags: W
LayerCount: 2
Fore
SplineSet
260 1055 m 2,0,-1
 1061 1055 l 2,1,2
 1117 1055 1117 1055 1157 1015 c 128,-1,3
 1197 975 1197 975 1197 918 c 2,4,-1
 1197 527 l 2,5,6
 1197 512 1197 512 1214.5 500 c 128,-1,7
 1232 488 1232 488 1256 488 c 0,8,9
 1271 488 1271 488 1283 476.5 c 128,-1,10
 1295 465 1295 465 1295 449 c 0,11,12
 1295 434 1295 434 1283 422 c 128,-1,13
 1271 410 1271 410 1256 410 c 0,14,15
 1238 410 1238 410 1207 424.5 c 128,-1,16
 1176 439 1176 439 1158 439 c 0,17,18
 1141 439 1141 439 1109.5 424.5 c 128,-1,19
 1078 410 1078 410 1061 410 c 0,20,21
 1045 410 1045 410 1033 422 c 128,-1,22
 1021 434 1021 434 1021 449 c 0,23,24
 1021 465 1021 465 1033 476.5 c 128,-1,25
 1045 488 1045 488 1061 488 c 0,26,27
 1084 488 1084 488 1101.5 500 c 128,-1,28
 1119 512 1119 512 1119 527 c 2,29,-1
 1119 918 l 2,30,31
 1119 941 1119 941 1101.5 959 c 128,-1,32
 1084 977 1084 977 1061 977 c 2,33,-1
 260 977 l 2,34,35
 236 977 236 977 218.5 959 c 128,-1,36
 201 941 201 941 201 918 c 2,37,-1
 201 420 l 1,38,-1
 318 312 l 1,39,-1
 865 312 l 1,40,-1
 885 342 l 1,41,-1
 885 645 l 2,42,43
 885 668 885 668 867.5 685.5 c 128,-1,44
 850 703 850 703 826 703 c 2,45,-1
 729 703 l 1,46,-1
 729 488 l 2,47,48
 729 432 729 432 686 392 c 128,-1,49
 643 352 643 352 582 352 c 256,50,51
 521 352 521 352 478.5 392 c 128,-1,52
 436 432 436 432 436 488 c 2,53,-1
 436 645 l 2,54,55
 436 701 436 701 478.5 741 c 128,-1,56
 521 781 521 781 582 781 c 2,57,-1
 826 781 l 2,58,59
 883 781 883 781 923 741 c 128,-1,60
 963 701 963 701 963 645 c 2,61,-1
 963 312 l 1,62,-1
 1197 312 l 2,63,64
 1254 312 1254 312 1294 272 c 128,-1,65
 1334 232 1334 232 1334 176 c 2,66,-1
 1334 -137 l 2,67,68
 1334 -227 1334 -227 1268.5 -289.5 c 128,-1,69
 1203 -352 1203 -352 1109 -352 c 2,70,-1
 992 -352 l 2,71,72
 949 -352 949 -352 911 -336 c 128,-1,73
 873 -320 873 -320 846 -293 c 2,74,-1
 689 -146 l 1,75,-1
 611 -293 l 2,76,77
 596 -320 596 -320 557 -336 c 128,-1,78
 518 -352 518 -352 465 -352 c 2,79,-1
 289 -352 l 2,80,81
 187 -352 187 -352 116 -289.5 c 128,-1,82
 45 -227 45 -227 45 -137 c 2,83,-1
 45 176 l 2,84,85
 45 232 45 232 91 272 c 128,-1,86
 137 312 137 312 201 312 c 1,87,-1
 123 391 l 1,88,-1
 123 918 l 2,89,90
 123 975 123 975 163 1015 c 128,-1,91
 203 1055 203 1055 260 1055 c 2,0,-1
582 703 m 2,92,93
 555 703 555 703 534.5 685.5 c 128,-1,94
 514 668 514 668 514 645 c 2,95,-1
 514 488 l 2,96,97
 514 465 514 465 534.5 447.5 c 128,-1,98
 555 430 555 430 582 430 c 256,99,100
 609 430 609 430 629.5 447.5 c 128,-1,101
 650 465 650 465 650 488 c 2,102,-1
 650 703 l 1,103,-1
 582 703 l 2,92,93
191 234 m 2,104,105
 164 234 164 234 143.5 216.5 c 128,-1,106
 123 199 123 199 123 176 c 2,107,-1
 123 -137 l 2,108,109
 123 -193 123 -193 172 -233 c 128,-1,110
 221 -273 221 -273 289 -273 c 2,111,-1
 465 -273 l 2,112,113
 496 -273 496 -273 519.5 -262.5 c 128,-1,114
 543 -252 543 -252 553 -234 c 2,115,-1
 631 -98 l 1,116,-1
 279 234 l 1,117,-1
 191 234 l 2,104,105
396 234 m 1,118,-1
 680 -10 l 1,119,-1
 826 234 l 1,120,-1
 396 234 l 1,118,-1
914 234 m 1,121,-1
 729 -78 l 1,122,-1
 895 -234 l 2,123,124
 914 -254 914 -254 939.5 -263.5 c 128,-1,125
 965 -273 965 -273 992 -273 c 2,126,-1
 1109 -273 l 2,127,128
 1170 -273 1170 -273 1213 -233 c 128,-1,129
 1256 -193 1256 -193 1256 -137 c 2,130,-1
 1256 176 l 2,131,132
 1256 199 1256 199 1238.5 216.5 c 128,-1,133
 1221 234 1221 234 1197 234 c 2,134,-1
 914 234 l 1,121,-1
EndSplineSet
EndChar

StartChar: tm_ii
Encoding: 2952 2952 53
Width: 881
GlyphClass: 2
Flags: W
LayerCount: 2
Fore
SplineSet
244 781 m 2,0,-1
 703 781 l 2,1,2
 715 781 715 781 723.5 769.5 c 128,-1,3
 732 758 732 758 732 742 c 0,4,5
 732 727 732 727 720.5 715 c 128,-1,6
 709 703 709 703 693 703 c 2,7,-1
 596 703 l 1,8,-1
 596 117 l 2,9,10
 596 102 596 102 613.5 90 c 128,-1,11
 631 78 631 78 654 78 c 0,12,13
 670 78 670 78 681.5 66.5 c 128,-1,14
 693 55 693 55 693 39 c 256,15,16
 693 23 693 23 684.5 11.5 c 128,-1,17
 676 0 676 0 664 0 c 0,18,19
 645 0 645 0 610.5 14.5 c 128,-1,20
 576 29 576 29 557 29 c 0,21,22
 537 29 537 29 503 14.5 c 128,-1,23
 469 0 469 0 449 0 c 0,24,25
 437 0 437 0 428.5 11.5 c 128,-1,26
 420 23 420 23 420 39 c 256,27,28
 420 55 420 55 431.5 66.5 c 128,-1,29
 443 78 443 78 459 78 c 0,30,31
 482 78 482 78 500 90 c 128,-1,32
 518 102 518 102 518 117 c 2,33,-1
 518 703 l 1,34,-1
 244 703 l 2,35,36
 221 703 221 703 203.5 685.5 c 128,-1,37
 186 668 186 668 186 645 c 2,38,-1
 186 117 l 2,39,40
 186 102 186 102 206.5 90 c 128,-1,41
 227 78 227 78 254 78 c 0,42,43
 270 78 270 78 281.5 66.5 c 128,-1,44
 293 55 293 55 293 39 c 256,45,46
 293 23 293 23 281.5 11.5 c 128,-1,47
 270 0 270 0 254 0 c 0,48,49
 234 0 234 0 200 14.5 c 128,-1,50
 166 29 166 29 146 29 c 0,51,52
 127 29 127 29 93 14.5 c 128,-1,53
 59 0 59 0 39 0 c 0,54,55
 27 0 27 0 18.5 11.5 c 128,-1,56
 10 23 10 23 10 39 c 256,57,58
 10 55 10 55 24.5 66.5 c 128,-1,59
 39 78 39 78 59 78 c 0,60,61
 78 78 78 78 92.5 90 c 128,-1,62
 107 102 107 102 107 117 c 2,63,-1
 107 645 l 2,64,65
 107 701 107 701 147 741 c 128,-1,66
 187 781 187 781 244 781 c 2,0,-1
332 586 m 2,67,-1
 371 586 l 2,68,69
 398 586 398 586 418.5 557.5 c 128,-1,70
 439 529 439 529 439 488 c 2,71,-1
 439 410 l 2,72,73
 439 369 439 369 417 340.5 c 128,-1,74
 395 312 395 312 361 312 c 2,75,-1
 342 312 l 2,76,77
 309 312 309 312 286.5 340.5 c 128,-1,78
 264 369 264 369 264 410 c 2,79,-1
 264 488 l 2,80,81
 264 529 264 529 284.5 557.5 c 128,-1,82
 305 586 305 586 332 586 c 2,67,-1
742 586 m 2,83,-1
 781 586 l 2,84,85
 809 586 809 586 829.5 557.5 c 128,-1,86
 850 529 850 529 850 488 c 2,87,-1
 850 410 l 2,88,89
 850 369 850 369 827.5 340.5 c 128,-1,90
 805 312 805 312 771 312 c 2,91,-1
 752 312 l 2,92,93
 719 312 719 312 696.5 340.5 c 128,-1,94
 674 369 674 369 674 410 c 2,95,-1
 674 488 l 2,96,97
 674 529 674 529 694.5 557.5 c 128,-1,98
 715 586 715 586 742 586 c 2,83,-1
EndSplineSet
EndChar

StartChar: tm_u
Encoding: 2953 2953 54
Width: 1488
GlyphClass: 2
Flags: W
LayerCount: 2
Fore
SplineSet
219 781 m 2,0,-1
 443 781 l 2,1,2
 500 781 500 781 540 741 c 128,-1,3
 580 701 580 701 580 645 c 2,4,-1
 580 410 l 2,5,6
 580 367 580 367 542 329 c 128,-1,7
 504 291 504 291 443 273 c 2,8,-1
 189 215 l 2,9,10
 172 209 172 209 161 198 c 128,-1,11
 150 187 150 187 150 176 c 2,12,-1
 150 117 l 2,13,14
 150 102 150 102 165 90 c 128,-1,15
 180 78 180 78 199 78 c 2,16,-1
 1420 78 l 2,17,18
 1443 78 1443 78 1461 66.5 c 128,-1,19
 1479 55 1479 55 1479 39 c 256,20,21
 1479 23 1479 23 1461 11.5 c 128,-1,22
 1443 0 1443 0 1420 0 c 2,23,-1
 199 0 l 2,24,25
 146 0 146 0 109 34 c 128,-1,26
 72 68 72 68 72 117 c 2,27,-1
 72 176 l 2,28,29
 72 211 72 211 91.5 238.5 c 128,-1,30
 111 266 111 266 141 273 c 2,31,-1
 443 352 l 2,32,33
 469 357 469 357 485.5 374 c 128,-1,34
 502 391 502 391 502 410 c 2,35,-1
 502 645 l 2,36,37
 502 668 502 668 484.5 685.5 c 128,-1,38
 467 703 467 703 443 703 c 2,39,-1
 365 703 l 1,40,-1
 365 488 l 2,41,42
 365 432 365 432 322 392 c 128,-1,43
 279 352 279 352 219 352 c 0,44,45
 158 352 158 352 115 392 c 128,-1,46
 72 432 72 432 72 488 c 2,47,-1
 72 645 l 2,48,49
 72 701 72 701 115 741 c 128,-1,50
 158 781 158 781 219 781 c 2,0,-1
219 703 m 2,51,52
 191 703 191 703 170.5 685.5 c 128,-1,53
 150 668 150 668 150 645 c 2,54,-1
 150 488 l 2,55,56
 150 465 150 465 170.5 447.5 c 128,-1,57
 191 430 191 430 219 430 c 0,58,59
 246 430 246 430 266.5 447.5 c 128,-1,60
 287 465 287 465 287 488 c 2,61,-1
 287 703 l 1,62,-1
 219 703 l 2,51,52
EndSplineSet
EndChar

StartChar: tm_uu
Encoding: 2954 2954 55
Width: 1662
GlyphClass: 2
Flags: W
LayerCount: 2
Fore
SplineSet
209 781 m 2,0,-1
 443 781 l 2,1,2
 500 781 500 781 540 741 c 128,-1,3
 580 701 580 701 580 645 c 2,4,-1
 580 410 l 2,5,6
 580 367 580 367 542 329 c 128,-1,7
 504 291 504 291 443 273 c 2,8,-1
 189 215 l 2,9,10
 172 209 172 209 161 198 c 128,-1,11
 150 187 150 187 150 176 c 2,12,-1
 150 117 l 2,13,14
 150 102 150 102 168 90 c 128,-1,15
 186 78 186 78 209 78 c 2,16,-1
 1586 78 l 2,17,18
 1598 78 1598 78 1606.5 66.5 c 128,-1,19
 1615 55 1615 55 1615 39 c 256,20,21
 1615 23 1615 23 1603.5 11.5 c 128,-1,22
 1592 0 1592 0 1576 0 c 2,23,-1
 209 0 l 2,24,25
 152 0 152 0 112 34 c 128,-1,26
 72 68 72 68 72 117 c 2,27,-1
 72 176 l 2,28,29
 72 211 72 211 93.5 238.5 c 128,-1,30
 115 266 115 266 150 273 c 2,31,-1
 443 352 l 2,32,33
 469 357 469 357 485.5 374 c 128,-1,34
 502 391 502 391 502 410 c 2,35,-1
 502 645 l 2,36,37
 502 668 502 668 484.5 685.5 c 128,-1,38
 467 703 467 703 443 703 c 2,39,-1
 365 703 l 1,40,-1
 365 488 l 2,41,42
 365 432 365 432 322 392 c 128,-1,43
 279 352 279 352 219 352 c 0,44,45
 158 352 158 352 115 392 c 128,-1,46
 72 432 72 432 72 488 c 2,47,-1
 72 645 l 2,48,49
 72 701 72 701 112 741 c 128,-1,50
 152 781 152 781 209 781 c 2,0,-1
209 703 m 2,51,52
 186 703 186 703 168 685.5 c 128,-1,53
 150 668 150 668 150 645 c 2,54,-1
 150 488 l 2,55,56
 150 465 150 465 170.5 447.5 c 128,-1,57
 191 430 191 430 219 430 c 0,58,59
 246 430 246 430 266.5 447.5 c 128,-1,60
 287 465 287 465 287 488 c 2,61,-1
 287 703 l 1,62,-1
 209 703 l 2,51,52
854 781 m 2,63,-1
 1068 781 l 2,64,65
 1115 781 1115 781 1152 765.5 c 128,-1,66
 1189 750 1189 750 1205 723 c 1,67,68
 1221 750 1221 750 1255 765.5 c 128,-1,69
 1289 781 1289 781 1332 781 c 2,70,-1
 1615 781 l 2,71,72
 1627 781 1627 781 1636 769.5 c 128,-1,73
 1645 758 1645 758 1645 742 c 0,74,75
 1645 727 1645 727 1633 715 c 128,-1,76
 1621 703 1621 703 1605 703 c 2,77,-1
 1498 703 l 1,78,-1
 1498 254 l 2,79,80
 1498 238 1498 238 1512.5 226.5 c 128,-1,81
 1527 215 1527 215 1547 215 c 2,82,-1
 1566 215 l 2,83,84
 1578 215 1578 215 1587 203 c 128,-1,85
 1596 191 1596 191 1596 176 c 0,86,87
 1596 160 1596 160 1587 148.5 c 128,-1,88
 1578 137 1578 137 1566 137 c 0,89,90
 1547 137 1547 137 1513 151.5 c 128,-1,91
 1479 166 1479 166 1459 166 c 256,92,93
 1439 166 1439 166 1400 151.5 c 128,-1,94
 1361 137 1361 137 1342 137 c 2,95,-1
 1322 137 l 2,96,97
 1303 137 1303 137 1264 151.5 c 128,-1,98
 1225 166 1225 166 1205 166 c 0,99,100
 1186 166 1186 166 1151.5 151.5 c 128,-1,101
 1117 137 1117 137 1098 137 c 0,102,103
 1078 137 1078 137 1063.5 148.5 c 128,-1,104
 1049 160 1049 160 1049 176 c 0,105,106
 1049 191 1049 191 1063.5 203 c 128,-1,107
 1078 215 1078 215 1098 215 c 2,108,-1
 1117 215 l 2,109,110
 1137 215 1137 215 1151.5 226.5 c 128,-1,111
 1166 238 1166 238 1166 254 c 2,112,-1
 1166 625 l 2,113,114
 1166 658 1166 658 1137.5 680.5 c 128,-1,115
 1109 703 1109 703 1068 703 c 2,116,-1
 854 703 l 2,117,118
 830 703 830 703 812.5 685.5 c 128,-1,119
 795 668 795 668 795 645 c 2,120,-1
 795 586 l 1,121,122
 803 596 803 596 820.5 600.5 c 128,-1,123
 838 605 838 605 863 605 c 0,124,125
 924 605 924 605 967 565 c 128,-1,126
 1010 525 1010 525 1010 469 c 2,127,-1
 1010 273 l 2,128,129
 1010 217 1010 217 967 177 c 128,-1,130
 924 137 924 137 863 137 c 0,131,132
 803 137 803 137 760 177 c 128,-1,133
 717 217 717 217 717 273 c 2,134,-1
 717 645 l 2,135,136
 717 701 717 701 757 741 c 128,-1,137
 797 781 797 781 854 781 c 2,63,-1
863 527 m 0,138,139
 836 527 836 527 815.5 509.5 c 128,-1,140
 795 492 795 492 795 469 c 2,141,-1
 795 273 l 2,142,143
 795 250 795 250 815.5 232.5 c 128,-1,144
 836 215 836 215 863 215 c 0,145,146
 891 215 891 215 911.5 232.5 c 128,-1,147
 932 250 932 250 932 273 c 2,148,-1
 932 469 l 2,149,150
 932 492 932 492 911.5 509.5 c 128,-1,151
 891 527 891 527 863 527 c 0,138,139
1332 703 m 2,152,153
 1295 703 1295 703 1269.5 680.5 c 128,-1,154
 1244 658 1244 658 1244 625 c 2,155,-1
 1244 254 l 2,156,157
 1244 238 1244 238 1264.5 226.5 c 128,-1,158
 1285 215 1285 215 1312 215 c 2,159,-1
 1352 215 l 2,160,161
 1379 215 1379 215 1399.5 226.5 c 128,-1,162
 1420 238 1420 238 1420 254 c 2,163,-1
 1420 703 l 1,164,-1
 1332 703 l 2,152,153
EndSplineSet
EndChar

StartChar: tm_e
Encoding: 2958 2958 56
Width: 789
GlyphClass: 2
Flags: W
LayerCount: 2
Fore
SplineSet
227 781 m 2,0,-1
 744 781 l 2,1,2
 756 781 756 781 764.5 769.5 c 128,-1,3
 773 758 773 758 773 742 c 0,4,5
 773 727 773 727 764.5 715 c 128,-1,6
 756 703 756 703 744 703 c 2,7,-1
 656 703 l 1,8,-1
 656 117 l 2,9,10
 656 102 656 102 673.5 90 c 128,-1,11
 691 78 691 78 715 78 c 0,12,13
 730 78 730 78 742 66.5 c 128,-1,14
 754 55 754 55 754 39 c 256,15,16
 754 23 754 23 742 11.5 c 128,-1,17
 730 0 730 0 715 0 c 0,18,19
 697 0 697 0 666 14.5 c 128,-1,20
 635 29 635 29 617 29 c 0,21,22
 600 29 600 29 568.5 14.5 c 128,-1,23
 537 0 537 0 520 0 c 0,24,25
 504 0 504 0 492 11.5 c 128,-1,26
 480 23 480 23 480 39 c 256,27,28
 480 55 480 55 492 66.5 c 128,-1,29
 504 78 504 78 520 78 c 0,30,31
 543 78 543 78 560.5 90 c 128,-1,32
 578 102 578 102 578 117 c 2,33,-1
 578 703 l 1,34,-1
 227 703 l 2,35,36
 203 703 203 703 185.5 685.5 c 128,-1,37
 168 668 168 668 168 645 c 2,38,-1
 168 449 l 1,39,40
 186 459 186 459 197.5 464 c 128,-1,41
 209 469 209 469 217 469 c 2,42,-1
 256 469 l 2,43,44
 309 469 309 469 346 429 c 128,-1,45
 383 389 383 389 383 332 c 2,46,-1
 383 137 l 2,47,48
 383 80 383 80 346 40 c 128,-1,49
 309 0 309 0 256 0 c 2,50,-1
 217 0 l 2,51,52
 164 0 164 0 127 40 c 128,-1,53
 90 80 90 80 90 137 c 2,54,-1
 90 645 l 2,55,56
 90 701 90 701 130 741 c 128,-1,57
 170 781 170 781 227 781 c 2,0,-1
236 391 m 0,58,59
 209 391 209 391 188.5 373 c 128,-1,60
 168 355 168 355 168 332 c 2,61,-1
 168 137 l 2,62,63
 168 113 168 113 188.5 95.5 c 128,-1,64
 209 78 209 78 236 78 c 0,65,66
 264 78 264 78 284.5 95.5 c 128,-1,67
 305 113 305 113 305 137 c 2,68,-1
 305 332 l 2,69,70
 305 355 305 355 284.5 373 c 128,-1,71
 264 391 264 391 236 391 c 0,58,59
EndSplineSet
EndChar

StartChar: tm_ee
Encoding: 2959 2959 57
Width: 771
GlyphClass: 2
Flags: W
LayerCount: 2
Fore
SplineSet
227 781 m 2,0,-1
 725 781 l 2,1,2
 740 781 740 781 752 769.5 c 128,-1,3
 764 758 764 758 764 742 c 0,4,5
 764 727 764 727 752 715 c 128,-1,6
 740 703 740 703 725 703 c 2,7,-1
 656 703 l 1,8,-1
 656 98 l 2,9,10
 656 57 656 57 645.5 25.5 c 128,-1,11
 635 -6 635 -6 617 -20 c 2,12,-1
 305 -264 l 2,13,14
 291 -273 291 -273 277.5 -276 c 128,-1,15
 264 -279 264 -279 256 -273 c 0,16,17
 242 -262 242 -262 245 -240.5 c 128,-1,18
 248 -219 248 -219 266 -205 c 2,19,-1
 539 10 l 2,20,21
 557 21 557 21 567.5 44.5 c 128,-1,22
 578 68 578 68 578 98 c 2,23,-1
 578 703 l 1,24,-1
 227 703 l 2,25,26
 203 703 203 703 185.5 685.5 c 128,-1,27
 168 668 168 668 168 645 c 2,28,-1
 168 449 l 1,29,30
 176 459 176 459 191.5 464 c 128,-1,31
 207 469 207 469 227 469 c 2,32,-1
 246 469 l 2,33,34
 303 469 303 469 343 429 c 128,-1,35
 383 389 383 389 383 332 c 2,36,-1
 383 137 l 2,37,38
 383 80 383 80 343 40 c 128,-1,39
 303 0 303 0 246 0 c 2,40,-1
 227 0 l 2,41,42
 170 0 170 0 130 40 c 128,-1,43
 90 80 90 80 90 137 c 2,44,-1
 90 645 l 2,45,46
 90 701 90 701 130 741 c 128,-1,47
 170 781 170 781 227 781 c 2,0,-1
305 332 m 2,48,49
 305 355 305 355 284.5 373 c 128,-1,50
 264 391 264 391 236 391 c 0,51,52
 209 391 209 391 188.5 373 c 128,-1,53
 168 355 168 355 168 332 c 2,54,-1
 168 137 l 2,55,56
 168 113 168 113 188.5 95.5 c 128,-1,57
 209 78 209 78 236 78 c 0,58,59
 264 78 264 78 284.5 95.5 c 128,-1,60
 305 113 305 113 305 137 c 2,61,-1
 305 332 l 2,48,49
EndSplineSet
EndChar

StartChar: tm_ai
Encoding: 2960 2960 58
Width: 943
GlyphClass: 2
Flags: W
LayerCount: 2
Fore
SplineSet
230 781 m 2,0,-1
 445 781 l 2,1,2
 475 781 475 781 501 765.5 c 128,-1,3
 527 750 527 750 543 723 c 1,4,5
 557 750 557 750 583 765.5 c 128,-1,6
 609 781 609 781 641 781 c 2,7,-1
 719 781 l 2,8,9
 775 781 775 781 815 741 c 128,-1,10
 855 701 855 701 855 645 c 2,11,-1
 855 176 l 2,12,13
 855 96 855 96 800.5 38 c 128,-1,14
 746 -20 746 -20 670 -20 c 2,15,-1
 211 -20 l 2,16,17
 187 -20 187 -20 169.5 -37.5 c 128,-1,18
 152 -55 152 -55 152 -78 c 2,19,-1
 152 -449 l 2,20,21
 152 -473 152 -473 172.5 -490.5 c 128,-1,22
 193 -508 193 -508 221 -508 c 2,23,-1
 357 -508 l 2,24,25
 385 -508 385 -508 405.5 -490.5 c 128,-1,26
 426 -473 426 -473 426 -449 c 2,27,-1
 426 -117 l 2,28,29
 426 -98 426 -98 437.5 -83 c 128,-1,30
 449 -68 449 -68 465 -68 c 0,31,32
 480 -68 480 -68 492 -83 c 128,-1,33
 504 -98 504 -98 504 -117 c 2,34,-1
 504 -449 l 2,35,36
 504 -473 504 -473 529.5 -490.5 c 128,-1,37
 555 -508 555 -508 592 -508 c 2,38,-1
 709 -508 l 2,39,40
 736 -508 736 -508 756.5 -490.5 c 128,-1,41
 777 -473 777 -473 777 -449 c 2,42,-1
 777 -176 l 2,43,44
 777 -160 777 -160 759.5 -148.5 c 128,-1,45
 742 -137 742 -137 719 -137 c 0,46,47
 703 -137 703 -137 691.5 -125 c 128,-1,48
 680 -113 680 -113 680 -98 c 0,49,50
 680 -82 680 -82 688.5 -70.5 c 128,-1,51
 697 -59 697 -59 709 -59 c 2,52,-1
 768 -59 l 2,53,54
 805 -59 805 -59 830 -93 c 128,-1,55
 855 -127 855 -127 855 -176 c 2,56,-1
 855 -449 l 2,57,58
 855 -506 855 -506 812.5 -546 c 128,-1,59
 770 -586 770 -586 709 -586 c 2,60,-1
 592 -586 l 2,61,62
 547 -586 547 -586 513 -573.5 c 128,-1,63
 479 -561 479 -561 465 -537 c 1,64,65
 449 -561 449 -561 421 -573.5 c 128,-1,66
 393 -586 393 -586 357 -586 c 2,67,-1
 221 -586 l 2,68,69
 160 -586 160 -586 117 -546 c 128,-1,70
 74 -506 74 -506 74 -449 c 2,71,-1
 74 -78 l 2,72,73
 74 -21 74 -21 114 19 c 128,-1,74
 154 59 154 59 211 59 c 2,75,-1
 670 59 l 2,76,77
 715 59 715 59 746 93 c 128,-1,78
 777 127 777 127 777 176 c 2,79,-1
 777 645 l 2,80,81
 777 668 777 668 759.5 685.5 c 128,-1,82
 742 703 742 703 719 703 c 2,83,-1
 641 703 l 2,84,85
 617 703 617 703 599.5 685.5 c 128,-1,86
 582 668 582 668 582 645 c 2,87,-1
 582 254 l 2,88,89
 582 238 582 238 599.5 226.5 c 128,-1,90
 617 215 617 215 641 215 c 0,91,92
 656 215 656 215 668 203 c 128,-1,93
 680 191 680 191 680 176 c 0,94,95
 680 160 680 160 671 148.5 c 128,-1,96
 662 137 662 137 650 137 c 0,97,98
 631 137 631 137 596.5 151.5 c 128,-1,99
 562 166 562 166 543 166 c 0,100,101
 523 166 523 166 489 151.5 c 128,-1,102
 455 137 455 137 436 137 c 0,103,104
 424 137 424 137 415 148.5 c 128,-1,105
 406 160 406 160 406 176 c 0,106,107
 406 191 406 191 418 203 c 128,-1,108
 430 215 430 215 445 215 c 0,109,110
 469 215 469 215 486.5 226.5 c 128,-1,111
 504 238 504 238 504 254 c 2,112,-1
 504 645 l 2,113,114
 504 668 504 668 486.5 685.5 c 128,-1,115
 469 703 469 703 445 703 c 2,116,-1
 230 703 l 2,117,118
 197 703 197 703 174.5 685.5 c 128,-1,119
 152 668 152 668 152 645 c 2,120,-1
 152 596 l 1,121,122
 158 600 158 600 172.5 602.5 c 128,-1,123
 187 605 187 605 211 605 c 2,124,-1
 230 605 l 2,125,126
 287 605 287 605 327 565 c 128,-1,127
 367 525 367 525 367 469 c 2,128,-1
 367 273 l 2,129,130
 367 217 367 217 327 177 c 128,-1,131
 287 137 287 137 230 137 c 2,132,-1
 211 137 l 2,133,134
 154 137 154 137 114 177 c 128,-1,135
 74 217 74 217 74 273 c 2,136,-1
 74 645 l 2,137,138
 74 701 74 701 120 741 c 128,-1,139
 166 781 166 781 230 781 c 2,0,-1
221 527 m 0,140,141
 195 527 195 527 175.5 510.5 c 128,-1,142
 156 494 156 494 152 469 c 1,143,-1
 152 273 l 2,144,145
 152 250 152 250 172.5 232.5 c 128,-1,146
 193 215 193 215 221 215 c 0,147,148
 248 215 248 215 268.5 232.5 c 128,-1,149
 289 250 289 250 289 273 c 2,150,-1
 289 469 l 2,151,152
 289 492 289 492 268.5 509.5 c 128,-1,153
 248 527 248 527 221 527 c 0,140,141
EndSplineSet
EndChar

StartChar: tm_o
Encoding: 2962 2962 59
Width: 922
GlyphClass: 2
Flags: W
LayerCount: 2
Fore
SplineSet
227 781 m 2,0,-1
 695 781 l 2,1,2
 752 781 752 781 792 741 c 128,-1,3
 832 701 832 701 832 645 c 2,4,-1
 832 137 l 2,5,6
 832 80 832 80 792 40 c 128,-1,7
 752 0 752 0 695 0 c 2,8,-1
 676 0 l 2,9,10
 664 0 664 0 649.5 8 c 128,-1,11
 635 16 635 16 617 29 c 1,12,13
 617 -23 617 -23 651.5 -60.5 c 128,-1,14
 686 -98 686 -98 734 -98 c 2,15,-1
 939 -98 l 2,16,17
 951 -98 951 -98 960 -109.5 c 128,-1,18
 969 -121 969 -121 969 -137 c 0,19,20
 969 -152 969 -152 960 -164 c 128,-1,21
 951 -176 951 -176 939 -176 c 0,22,23
 902 -176 902 -176 877 -196.5 c 128,-1,24
 852 -217 852 -217 852 -244 c 2,25,-1
 852 -313 l 2,26,27
 852 -385 852 -385 797 -436.5 c 128,-1,28
 742 -488 742 -488 666 -488 c 2,29,-1
 236 -488 l 2,30,31
 176 -488 176 -488 133 -448 c 128,-1,32
 90 -408 90 -408 90 -352 c 2,33,-1
 90 -234 l 2,34,35
 90 -219 90 -219 101.5 -207 c 128,-1,36
 113 -195 113 -195 129 -195 c 256,37,38
 145 -195 145 -195 156.5 -207 c 128,-1,39
 168 -219 168 -219 168 -234 c 2,40,-1
 168 -352 l 2,41,42
 168 -375 168 -375 188.5 -392.5 c 128,-1,43
 209 -410 209 -410 236 -410 c 2,44,-1
 666 -410 l 2,45,46
 711 -410 711 -410 742 -382 c 128,-1,47
 773 -354 773 -354 773 -313 c 2,48,-1
 773 -244 l 2,49,50
 773 -221 773 -221 781 -202.5 c 128,-1,51
 789 -184 789 -184 803 -176 c 1,52,-1
 734 -176 l 2,53,54
 654 -176 654 -176 596.5 -115.5 c 128,-1,55
 539 -55 539 -55 539 29 c 2,56,-1
 539 332 l 2,57,58
 539 389 539 389 576 429 c 128,-1,59
 613 469 613 469 666 469 c 0,60,61
 682 469 682 469 693.5 457 c 128,-1,62
 705 445 705 445 705 430 c 0,63,64
 705 414 705 414 693.5 402.5 c 128,-1,65
 682 391 682 391 666 391 c 0,66,67
 646 391 646 391 631.5 373 c 128,-1,68
 617 355 617 355 617 332 c 2,69,-1
 617 137 l 2,70,71
 617 113 617 113 637.5 95.5 c 128,-1,72
 658 78 658 78 686 78 c 0,73,74
 713 78 713 78 733.5 95.5 c 128,-1,75
 754 113 754 113 754 137 c 2,76,-1
 754 645 l 2,77,78
 754 668 754 668 736.5 685.5 c 128,-1,79
 719 703 719 703 695 703 c 2,80,-1
 227 703 l 2,81,82
 203 703 203 703 185.5 685.5 c 128,-1,83
 168 668 168 668 168 645 c 2,84,-1
 168 439 l 1,85,86
 189 453 189 453 207 461 c 128,-1,87
 225 469 225 469 236 469 c 0,88,89
 297 469 297 469 340 429 c 128,-1,90
 383 389 383 389 383 332 c 2,91,-1
 383 137 l 2,92,93
 383 80 383 80 340 40 c 128,-1,94
 297 0 297 0 236 0 c 0,95,96
 176 0 176 0 133 40 c 128,-1,97
 90 80 90 80 90 137 c 2,98,-1
 90 645 l 2,99,100
 90 701 90 701 130 741 c 128,-1,101
 170 781 170 781 227 781 c 2,0,-1
236 391 m 0,102,103
 209 391 209 391 188.5 373 c 128,-1,104
 168 355 168 355 168 332 c 2,105,-1
 168 137 l 2,106,107
 168 113 168 113 188.5 95.5 c 128,-1,108
 209 78 209 78 236 78 c 0,109,110
 264 78 264 78 284.5 95.5 c 128,-1,111
 305 113 305 113 305 137 c 2,112,-1
 305 332 l 2,113,114
 305 355 305 355 284.5 373 c 128,-1,115
 264 391 264 391 236 391 c 0,102,103
EndSplineSet
EndChar

StartChar: tm_oo
Encoding: 2963 2963 60
Width: 922
GlyphClass: 2
Flags: W
LayerCount: 2
Fore
SplineSet
227 781 m 2,0,-1
 695 781 l 2,1,2
 752 781 752 781 792 741 c 128,-1,3
 832 701 832 701 832 645 c 2,4,-1
 832 137 l 2,5,6
 832 80 832 80 789 40 c 128,-1,7
 746 0 746 0 686 0 c 0,8,9
 664 0 664 0 646.5 5 c 128,-1,10
 629 10 629 10 617 20 c 1,11,12
 617 -29 617 -29 645.5 -63.5 c 128,-1,13
 674 -98 674 -98 715 -98 c 2,14,-1
 939 -98 l 2,15,16
 951 -98 951 -98 960 -109.5 c 128,-1,17
 969 -121 969 -121 969 -137 c 0,18,19
 969 -152 969 -152 957 -164 c 128,-1,20
 945 -176 945 -176 930 -176 c 2,21,-1
 891 -176 l 2,22,23
 875 -176 875 -176 863.5 -187.5 c 128,-1,24
 852 -199 852 -199 852 -215 c 2,25,-1
 852 -313 l 2,26,27
 852 -385 852 -385 797 -436.5 c 128,-1,28
 742 -488 742 -488 666 -488 c 2,29,-1
 236 -488 l 2,30,31
 176 -488 176 -488 133 -454 c 128,-1,32
 90 -420 90 -420 90 -371 c 2,33,-1
 90 -332 l 2,34,35
 90 -283 90 -283 133 -249 c 128,-1,36
 176 -215 176 -215 236 -215 c 2,37,-1
 344 -215 l 2,38,39
 400 -215 400 -215 440 -255 c 128,-1,40
 480 -295 480 -295 480 -352 c 2,41,-1
 480 -410 l 1,42,-1
 666 -410 l 2,43,44
 711 -410 711 -410 742 -382 c 128,-1,45
 773 -354 773 -354 773 -313 c 2,46,-1
 773 -215 l 2,47,48
 773 -201 773 -201 778 -191.5 c 128,-1,49
 783 -182 783 -182 793 -176 c 1,50,-1
 715 -176 l 2,51,52
 643 -176 643 -176 591 -118.5 c 128,-1,53
 539 -61 539 -61 539 20 c 2,54,-1
 539 352 l 2,55,56
 539 400 539 400 567.5 434.5 c 128,-1,57
 596 469 596 469 637 469 c 2,58,-1
 666 469 l 2,59,60
 682 469 682 469 693.5 457 c 128,-1,61
 705 445 705 445 705 430 c 0,62,63
 705 414 705 414 693.5 402.5 c 128,-1,64
 682 391 682 391 666 391 c 0,65,66
 646 391 646 391 631.5 379 c 128,-1,67
 617 367 617 367 617 352 c 2,68,-1
 617 137 l 2,69,70
 617 113 617 113 637.5 95.5 c 128,-1,71
 658 78 658 78 686 78 c 0,72,73
 713 78 713 78 733.5 95.5 c 128,-1,74
 754 113 754 113 754 137 c 2,75,-1
 754 645 l 2,76,77
 754 668 754 668 736.5 685.5 c 128,-1,78
 719 703 719 703 695 703 c 2,79,-1
 227 703 l 2,80,81
 203 703 203 703 185.5 685.5 c 128,-1,82
 168 668 168 668 168 645 c 2,83,-1
 168 449 l 1,84,85
 180 459 180 459 197.5 464 c 128,-1,86
 215 469 215 469 236 469 c 0,87,88
 297 469 297 469 340 429 c 128,-1,89
 383 389 383 389 383 332 c 2,90,-1
 383 137 l 2,91,92
 383 74 383 74 343 37 c 128,-1,93
 303 0 303 0 236 0 c 0,94,95
 170 0 170 0 130 37 c 128,-1,96
 90 74 90 74 90 137 c 2,97,-1
 90 645 l 2,98,99
 90 701 90 701 130 741 c 128,-1,100
 170 781 170 781 227 781 c 2,0,-1
236 391 m 0,101,102
 209 391 209 391 188.5 373 c 128,-1,103
 168 355 168 355 168 332 c 2,104,-1
 168 137 l 2,105,106
 168 113 168 113 188.5 95.5 c 128,-1,107
 209 78 209 78 236 78 c 0,108,109
 264 78 264 78 284.5 95.5 c 128,-1,110
 305 113 305 113 305 137 c 2,111,-1
 305 332 l 2,112,113
 305 355 305 355 284.5 373 c 128,-1,114
 264 391 264 391 236 391 c 0,101,102
236 -293 m 2,115,116
 209 -293 209 -293 188.5 -310.5 c 128,-1,117
 168 -328 168 -328 168 -352 c 0,118,119
 168 -375 168 -375 188.5 -392.5 c 128,-1,120
 209 -410 209 -410 236 -410 c 2,121,-1
 402 -410 l 1,122,-1
 402 -352 l 2,123,124
 402 -328 402 -328 384.5 -310.5 c 128,-1,125
 367 -293 367 -293 344 -293 c 2,126,-1
 236 -293 l 2,115,116
EndSplineSet
EndChar

StartChar: tm_ka
Encoding: 2965 2965 62
Width: 699
GlyphClass: 2
Flags: W
LayerCount: 2
Fore
SplineSet
55 137 m 2,0,-1
 55 361 l 2,1,2
 55 414 55 414 82 452 c 128,-1,3
 109 490 109 490 152 498 c 1,4,-1
 152 664 l 2,5,6
 152 713 152 713 189.5 747 c 128,-1,7
 227 781 227 781 279 781 c 2,8,-1
 553 781 l 2,9,10
 568 781 568 781 580 769.5 c 128,-1,11
 592 758 592 758 592 742 c 0,12,13
 592 727 592 727 580 715 c 128,-1,14
 568 703 568 703 553 703 c 2,15,-1
 406 703 l 1,16,-1
 406 498 l 1,17,-1
 504 498 l 2,18,19
 561 498 561 498 601 458 c 128,-1,20
 641 418 641 418 641 361 c 2,21,-1
 641 117 l 2,22,23
 641 68 641 68 606.5 34 c 128,-1,24
 572 0 572 0 523 0 c 2,25,-1
 484 0 l 2,26,27
 465 0 465 0 450.5 11.5 c 128,-1,28
 436 23 436 23 436 39 c 256,29,30
 436 55 436 55 450.5 66.5 c 128,-1,31
 465 78 465 78 484 78 c 2,32,-1
 523 78 l 2,33,34
 539 78 539 78 550.5 90 c 128,-1,35
 562 102 562 102 562 117 c 2,36,-1
 562 361 l 2,37,38
 562 385 562 385 544.5 402.5 c 128,-1,39
 527 420 527 420 504 420 c 2,40,-1
 406 420 l 1,41,-1
 406 137 l 2,42,43
 406 80 406 80 363 40 c 128,-1,44
 320 0 320 0 260 0 c 2,45,-1
 201 0 l 2,46,47
 141 0 141 0 98 40 c 128,-1,48
 55 80 55 80 55 137 c 2,0,-1
279 703 m 2,49,50
 260 703 260 703 245 691.5 c 128,-1,51
 230 680 230 680 230 664 c 2,52,-1
 230 498 l 1,53,-1
 328 498 l 1,54,-1
 328 703 l 1,55,-1
 279 703 l 2,49,50
201 420 m 2,56,57
 174 420 174 420 153.5 402.5 c 128,-1,58
 133 385 133 385 133 361 c 2,59,-1
 133 137 l 2,60,61
 133 113 133 113 153.5 95.5 c 128,-1,62
 174 78 174 78 201 78 c 2,63,-1
 260 78 l 2,64,65
 287 78 287 78 307.5 95.5 c 128,-1,66
 328 113 328 113 328 137 c 2,67,-1
 328 420 l 1,68,-1
 201 420 l 2,56,57
EndSplineSet
EndChar

StartChar: tm_nga
Encoding: 2969 2969 63
Width: 1082
GlyphClass: 2
Flags: W
LayerCount: 2
Fore
SplineSet
107 645 m 2,0,1
 107 701 107 701 147 741 c 128,-1,2
 187 781 187 781 244 781 c 2,3,-1
 537 781 l 2,4,5
 553 781 553 781 564.5 769.5 c 128,-1,6
 576 758 576 758 576 742 c 0,7,8
 576 727 576 727 564.5 715 c 128,-1,9
 553 703 553 703 537 703 c 2,10,-1
 439 703 l 1,11,-1
 439 527 l 1,12,13
 451 537 451 537 465.5 542 c 128,-1,14
 480 547 480 547 498 547 c 2,15,-1
 557 547 l 2,16,17
 613 547 613 547 653 501 c 128,-1,18
 693 455 693 455 693 391 c 2,19,-1
 693 156 l 2,20,21
 693 131 693 131 682.5 109.5 c 128,-1,22
 672 88 672 88 654 78 c 1,23,-1
 840 78 l 2,24,25
 859 78 859 78 874 90 c 128,-1,26
 889 102 889 102 889 117 c 2,27,-1
 889 664 l 2,28,29
 889 680 889 680 871.5 691.5 c 128,-1,30
 854 703 854 703 830 703 c 0,31,32
 814 703 814 703 802.5 715 c 128,-1,33
 791 727 791 727 791 742 c 0,34,35
 791 758 791 758 802.5 769.5 c 128,-1,36
 814 781 814 781 830 781 c 0,37,38
 848 781 848 781 879 766.5 c 128,-1,39
 910 752 910 752 928 752 c 0,40,41
 945 752 945 752 976.5 766.5 c 128,-1,42
 1008 781 1008 781 1025 781 c 0,43,44
 1041 781 1041 781 1052.5 769.5 c 128,-1,45
 1064 758 1064 758 1064 742 c 0,46,47
 1064 727 1064 727 1052.5 715 c 128,-1,48
 1041 703 1041 703 1025 703 c 0,49,50
 1002 703 1002 703 984.5 691.5 c 128,-1,51
 967 680 967 680 967 664 c 2,52,-1
 967 117 l 2,53,54
 967 102 967 102 984.5 90 c 128,-1,55
 1002 78 1002 78 1025 78 c 0,56,57
 1041 78 1041 78 1052.5 66.5 c 128,-1,58
 1064 55 1064 55 1064 39 c 256,59,60
 1064 23 1064 23 1049.5 11.5 c 128,-1,61
 1035 0 1035 0 1016 0 c 2,62,-1
 400 0 l 2,63,64
 385 0 385 0 373 11.5 c 128,-1,65
 361 23 361 23 361 39 c 256,66,67
 361 55 361 55 373 66.5 c 128,-1,68
 385 78 385 78 400 78 c 2,69,-1
 527 78 l 2,70,71
 564 78 564 78 589.5 100.5 c 128,-1,72
 615 123 615 123 615 156 c 2,73,-1
 615 391 l 2,74,75
 615 424 615 424 597.5 446.5 c 128,-1,76
 580 469 580 469 557 469 c 2,77,-1
 498 469 l 2,78,79
 475 469 475 469 457 454 c 128,-1,80
 439 439 439 439 439 420 c 2,81,-1
 439 293 l 2,82,83
 439 273 439 273 427.5 258.5 c 128,-1,84
 416 244 416 244 400 244 c 0,85,86
 385 244 385 244 373 258.5 c 128,-1,87
 361 273 361 273 361 293 c 2,88,-1
 361 703 l 1,89,-1
 244 703 l 2,90,91
 221 703 221 703 203.5 685.5 c 128,-1,92
 186 668 186 668 186 645 c 2,93,-1
 186 117 l 2,94,95
 186 102 186 102 203.5 90 c 128,-1,96
 221 78 221 78 244 78 c 0,97,98
 260 78 260 78 271.5 66.5 c 128,-1,99
 283 55 283 55 283 39 c 256,100,101
 283 23 283 23 271.5 11.5 c 128,-1,102
 260 0 260 0 244 0 c 0,103,104
 227 0 227 0 195.5 14.5 c 128,-1,105
 164 29 164 29 146 29 c 0,106,107
 129 29 129 29 97.5 14.5 c 128,-1,108
 66 0 66 0 49 0 c 0,109,110
 33 0 33 0 21.5 11.5 c 128,-1,111
 10 23 10 23 10 39 c 256,112,113
 10 55 10 55 21.5 66.5 c 128,-1,114
 33 78 33 78 49 78 c 0,115,116
 72 78 72 78 89.5 90 c 128,-1,117
 107 102 107 102 107 117 c 2,118,-1
 107 645 l 2,0,1
EndSplineSet
EndChar

StartChar: tm_ca
Encoding: 2970 2970 64
Width: 605
GlyphClass: 2
Flags: W
LayerCount: 2
Fore
SplineSet
55 137 m 2,0,-1
 55 361 l 2,1,2
 55 406 55 406 81 444 c 128,-1,3
 107 482 107 482 152 498 c 1,4,-1
 152 664 l 2,5,6
 152 713 152 713 189.5 747 c 128,-1,7
 227 781 227 781 279 781 c 2,8,-1
 543 781 l 2,9,10
 562 781 562 781 577 769.5 c 128,-1,11
 592 758 592 758 592 742 c 0,12,13
 592 727 592 727 577 715 c 128,-1,14
 562 703 562 703 543 703 c 2,15,-1
 406 703 l 1,16,-1
 406 498 l 1,17,-1
 533 498 l 2,18,19
 549 498 549 498 560.5 486.5 c 128,-1,20
 572 475 572 475 572 459 c 256,21,22
 572 443 572 443 560.5 431.5 c 128,-1,23
 549 420 549 420 533 420 c 2,24,-1
 406 420 l 1,25,-1
 406 137 l 2,26,27
 406 80 406 80 366 40 c 128,-1,28
 326 0 326 0 270 0 c 2,29,-1
 191 0 l 2,30,31
 135 0 135 0 95 40 c 128,-1,32
 55 80 55 80 55 137 c 2,0,-1
279 703 m 2,33,34
 260 703 260 703 245 691.5 c 128,-1,35
 230 680 230 680 230 664 c 2,36,-1
 230 498 l 1,37,-1
 328 498 l 1,38,-1
 328 703 l 1,39,-1
 279 703 l 2,33,34
201 420 m 2,40,41
 174 420 174 420 153.5 402.5 c 128,-1,42
 133 385 133 385 133 361 c 2,43,-1
 133 137 l 2,44,45
 133 113 133 113 153.5 95.5 c 128,-1,46
 174 78 174 78 201 78 c 2,47,-1
 260 78 l 2,48,49
 287 78 287 78 307.5 95.5 c 128,-1,50
 328 113 328 113 328 137 c 2,51,-1
 328 420 l 1,52,-1
 201 420 l 2,40,41
EndSplineSet
EndChar

StartChar: tm_ja
Encoding: 2972 2972 65
Width: 943
GlyphClass: 2
Flags: W
LayerCount: 2
Fore
SplineSet
211 781 m 2,0,-1
 426 781 l 2,1,2
 459 781 459 781 489.5 765.5 c 128,-1,3
 520 750 520 750 543 723 c 1,4,5
 566 750 566 750 591.5 765.5 c 128,-1,6
 617 781 617 781 641 781 c 2,7,-1
 719 781 l 2,8,9
 775 781 775 781 815 741 c 128,-1,10
 855 701 855 701 855 645 c 2,11,-1
 855 176 l 2,12,13
 855 96 855 96 794.5 38 c 128,-1,14
 734 -20 734 -20 650 -20 c 2,15,-1
 211 -20 l 2,16,17
 187 -20 187 -20 169.5 -37.5 c 128,-1,18
 152 -55 152 -55 152 -78 c 2,19,-1
 152 -449 l 2,20,21
 152 -473 152 -473 172.5 -490.5 c 128,-1,22
 193 -508 193 -508 221 -508 c 2,23,-1
 260 -508 l 2,24,25
 271 -508 271 -508 285 -492.5 c 128,-1,26
 299 -477 299 -477 309 -449 c 2,27,-1
 387 -234 l 2,28,29
 406 -182 406 -182 443 -149.5 c 128,-1,30
 480 -117 480 -117 523 -117 c 2,31,-1
 738 -117 l 2,32,33
 787 -117 787 -117 821 -151.5 c 128,-1,34
 855 -186 855 -186 855 -234 c 2,35,-1
 855 -449 l 2,36,37
 855 -506 855 -506 812.5 -546 c 128,-1,38
 770 -586 770 -586 709 -586 c 256,39,40
 648 -586 648 -586 605 -546 c 128,-1,41
 562 -506 562 -506 562 -449 c 2,42,-1
 562 -283 l 2,43,44
 562 -264 562 -264 574 -249 c 128,-1,45
 586 -234 586 -234 602 -234 c 0,46,47
 617 -234 617 -234 629 -249 c 128,-1,48
 641 -264 641 -264 641 -283 c 2,49,-1
 641 -449 l 2,50,51
 641 -473 641 -473 661.5 -490.5 c 128,-1,52
 682 -508 682 -508 709 -508 c 256,53,54
 736 -508 736 -508 756.5 -490.5 c 128,-1,55
 777 -473 777 -473 777 -449 c 2,56,-1
 777 -234 l 2,57,58
 777 -219 777 -219 765.5 -207 c 128,-1,59
 754 -195 754 -195 738 -195 c 2,60,-1
 523 -195 l 2,61,62
 502 -195 502 -195 483.5 -211 c 128,-1,63
 465 -227 465 -227 455 -254 c 2,64,-1
 357 -508 l 2,65,66
 344 -543 344 -543 317.5 -564.5 c 128,-1,67
 291 -586 291 -586 260 -586 c 2,68,-1
 221 -586 l 2,69,70
 160 -586 160 -586 117 -546 c 128,-1,71
 74 -506 74 -506 74 -449 c 2,72,-1
 74 -78 l 2,73,74
 74 -21 74 -21 114 19 c 128,-1,75
 154 59 154 59 211 59 c 2,76,-1
 650 59 l 2,77,78
 703 59 703 59 740 93 c 128,-1,79
 777 127 777 127 777 176 c 2,80,-1
 777 645 l 2,81,82
 777 668 777 668 759.5 685.5 c 128,-1,83
 742 703 742 703 719 703 c 2,84,-1
 641 703 l 2,85,86
 617 703 617 703 599.5 685.5 c 128,-1,87
 582 668 582 668 582 645 c 2,88,-1
 582 254 l 2,89,90
 582 238 582 238 599.5 226.5 c 128,-1,91
 617 215 617 215 641 215 c 0,92,93
 656 215 656 215 668 203 c 128,-1,94
 680 191 680 191 680 176 c 0,95,96
 680 160 680 160 668 148.5 c 128,-1,97
 656 137 656 137 641 137 c 0,98,99
 623 137 623 137 592 156.5 c 128,-1,100
 561 176 561 176 543 176 c 256,101,102
 525 176 525 176 494 156.5 c 128,-1,103
 463 137 463 137 445 137 c 0,104,105
 430 137 430 137 418 148.5 c 128,-1,106
 406 160 406 160 406 176 c 0,107,108
 406 191 406 191 418 203 c 128,-1,109
 430 215 430 215 445 215 c 0,110,111
 469 215 469 215 486.5 226.5 c 128,-1,112
 504 238 504 238 504 254 c 2,113,-1
 504 645 l 2,114,115
 504 668 504 668 481.5 685.5 c 128,-1,116
 459 703 459 703 426 703 c 2,117,-1
 211 703 l 2,118,119
 187 703 187 703 169.5 685.5 c 128,-1,120
 152 668 152 668 152 645 c 2,121,-1
 152 586 l 1,122,123
 158 596 158 596 175.5 600.5 c 128,-1,124
 193 605 193 605 221 605 c 0,125,126
 281 605 281 605 324 565 c 128,-1,127
 367 525 367 525 367 469 c 2,128,-1
 367 273 l 2,129,130
 367 217 367 217 324 177 c 128,-1,131
 281 137 281 137 221 137 c 0,132,133
 160 137 160 137 117 177 c 128,-1,134
 74 217 74 217 74 273 c 2,135,-1
 74 645 l 2,136,137
 74 701 74 701 114 741 c 128,-1,138
 154 781 154 781 211 781 c 2,0,-1
221 527 m 0,139,140
 193 527 193 527 172.5 509.5 c 128,-1,141
 152 492 152 492 152 469 c 2,142,-1
 152 273 l 2,143,144
 152 250 152 250 172.5 232.5 c 128,-1,145
 193 215 193 215 221 215 c 0,146,147
 248 215 248 215 268.5 232.5 c 128,-1,148
 289 250 289 250 289 273 c 2,149,-1
 289 469 l 2,150,151
 289 492 289 492 268.5 509.5 c 128,-1,152
 248 527 248 527 221 527 c 0,139,140
EndSplineSet
EndChar

StartChar: tm_nya
Encoding: 2974 2974 66
Width: 1240
GlyphClass: 2
Flags: W
LayerCount: 2
Fore
SplineSet
213 781 m 2,0,-1
 252 781 l 1,1,2
 270 777 270 777 280.5 766.5 c 128,-1,3
 291 756 291 756 291 742 c 0,4,5
 291 727 291 727 279.5 715 c 128,-1,6
 268 703 268 703 252 703 c 2,7,-1
 213 703 l 2,8,9
 197 703 197 703 185.5 691.5 c 128,-1,10
 174 680 174 680 174 664 c 2,11,-1
 174 -39 l 2,12,13
 174 -104 174 -104 225.5 -149.5 c 128,-1,14
 277 -195 277 -195 350 -195 c 2,15,-1
 936 -195 l 2,16,17
 1000 -195 1000 -195 1046 -149.5 c 128,-1,18
 1092 -104 1092 -104 1092 -39 c 2,19,-1
 1092 410 l 2,20,21
 1092 434 1092 434 1074.5 451.5 c 128,-1,22
 1057 469 1057 469 1033 469 c 2,23,-1
 975 469 l 2,24,25
 951 469 951 469 933.5 451.5 c 128,-1,26
 916 434 916 434 916 410 c 2,27,-1
 916 117 l 2,28,29
 916 102 916 102 933.5 90 c 128,-1,30
 951 78 951 78 975 78 c 0,31,32
 990 78 990 78 1002 66.5 c 128,-1,33
 1014 55 1014 55 1014 39 c 256,34,35
 1014 23 1014 23 1002 11.5 c 128,-1,36
 990 0 990 0 975 0 c 0,37,38
 957 0 957 0 926 14.5 c 128,-1,39
 895 29 895 29 877 29 c 0,40,41
 861 29 861 29 833 14.5 c 128,-1,42
 805 0 805 0 789 0 c 0,43,44
 770 0 770 0 755 11.5 c 128,-1,45
 740 23 740 23 740 39 c 256,46,47
 740 55 740 55 755 66.5 c 128,-1,48
 770 78 770 78 789 78 c 0,49,50
 809 78 809 78 823.5 90 c 128,-1,51
 838 102 838 102 838 117 c 2,52,-1
 838 703 l 1,53,-1
 486 703 l 2,54,55
 463 703 463 703 445.5 685.5 c 128,-1,56
 428 668 428 668 428 645 c 2,57,-1
 428 449 l 1,58,59
 436 459 436 459 451.5 464 c 128,-1,60
 467 469 467 469 486 469 c 2,61,-1
 506 469 l 2,62,63
 562 469 562 469 602.5 429 c 128,-1,64
 643 389 643 389 643 332 c 2,65,-1
 643 137 l 2,66,67
 643 80 643 80 602.5 40 c 128,-1,68
 562 0 562 0 506 0 c 2,69,-1
 486 0 l 2,70,71
 430 0 430 0 390 40 c 128,-1,72
 350 80 350 80 350 137 c 2,73,-1
 350 645 l 2,74,75
 350 701 350 701 390 741 c 128,-1,76
 430 781 430 781 486 781 c 2,77,-1
 1121 781 l 2,78,79
 1133 781 1133 781 1141.5 769.5 c 128,-1,80
 1150 758 1150 758 1150 742 c 0,81,82
 1150 727 1150 727 1138.5 715 c 128,-1,83
 1127 703 1127 703 1111 703 c 2,84,-1
 916 703 l 1,85,-1
 916 527 l 1,86,87
 922 537 922 537 934.5 542 c 128,-1,88
 947 547 947 547 965 547 c 2,89,-1
 1043 547 l 2,90,91
 1096 547 1096 547 1133 507 c 128,-1,92
 1170 467 1170 467 1170 410 c 2,93,-1
 1170 -39 l 2,94,95
 1170 -137 1170 -137 1101.5 -205 c 128,-1,96
 1033 -273 1033 -273 936 -273 c 2,97,-1
 350 -273 l 2,98,99
 244 -273 244 -273 170 -205 c 128,-1,100
 96 -137 96 -137 96 -39 c 2,101,-1
 96 664 l 2,102,103
 96 713 96 713 130 747 c 128,-1,104
 164 781 164 781 213 781 c 2,0,-1
496 391 m 256,105,106
 469 391 469 391 448.5 373 c 128,-1,107
 428 355 428 355 428 332 c 2,108,-1
 428 137 l 2,109,110
 428 113 428 113 448.5 95.5 c 128,-1,111
 469 78 469 78 496 78 c 256,112,113
 523 78 523 78 543.5 95.5 c 128,-1,114
 564 113 564 113 564 137 c 2,115,-1
 564 332 l 2,116,117
 564 355 564 355 543.5 373 c 128,-1,118
 523 391 523 391 496 391 c 256,105,106
EndSplineSet
EndChar

StartChar: tm_tta
Encoding: 2975 2975 67
Width: 1268
GlyphClass: 2
Flags: W
LayerCount: 2
Fore
SplineSet
105 156 m 2,0,-1
 105 664 l 2,1,2
 105 680 105 680 87.5 691.5 c 128,-1,3
 70 703 70 703 47 703 c 0,4,5
 31 703 31 703 19.5 715 c 128,-1,6
 8 727 8 727 8 742 c 0,7,8
 8 758 8 758 16.5 769.5 c 128,-1,9
 25 781 25 781 37 781 c 0,10,11
 57 781 57 781 91 766.5 c 128,-1,12
 125 752 125 752 145 752 c 0,13,14
 164 752 164 752 198 766.5 c 128,-1,15
 232 781 232 781 252 781 c 0,16,17
 264 781 264 781 272.5 769.5 c 128,-1,18
 281 758 281 758 281 742 c 0,19,20
 281 727 281 727 269.5 715 c 128,-1,21
 258 703 258 703 242 703 c 0,22,23
 219 703 219 703 201.5 691.5 c 128,-1,24
 184 680 184 680 184 664 c 2,25,-1
 184 156 l 2,26,27
 184 123 184 123 209 100.5 c 128,-1,28
 234 78 234 78 271 78 c 2,29,-1
 1229 78 l 2,30,31
 1240 78 1240 78 1249 66.5 c 128,-1,32
 1258 55 1258 55 1258 39 c 256,33,34
 1258 23 1258 23 1246 11.5 c 128,-1,35
 1234 0 1234 0 1219 0 c 2,36,-1
 262 0 l 2,37,38
 197 0 197 0 151 46 c 128,-1,39
 105 92 105 92 105 156 c 2,0,-1
EndSplineSet
EndChar

StartChar: tm_nna
Encoding: 2979 2979 68
Width: 1684
GlyphClass: 2
Flags: W
LayerCount: 2
Fore
SplineSet
271 781 m 2,0,-1
 418 781 l 2,1,2
 482 781 482 781 542 766.5 c 128,-1,3
 602 752 602 752 652 723 c 1,4,5
 695 752 695 752 753 766.5 c 128,-1,6
 811 781 811 781 877 781 c 0,7,8
 949 781 949 781 1008.5 766.5 c 128,-1,9
 1068 752 1068 752 1111 723 c 1,10,11
 1145 752 1145 752 1213 766.5 c 128,-1,12
 1281 781 1281 781 1375 781 c 2,13,-1
 1629 781 l 2,14,15
 1645 781 1645 781 1656.5 769.5 c 128,-1,16
 1668 758 1668 758 1668 742 c 0,17,18
 1668 727 1668 727 1656.5 715 c 128,-1,19
 1645 703 1645 703 1629 703 c 2,20,-1
 1551 703 l 1,21,-1
 1551 117 l 2,22,23
 1551 102 1551 102 1568.5 90 c 128,-1,24
 1586 78 1586 78 1609 78 c 0,25,26
 1625 78 1625 78 1636.5 66.5 c 128,-1,27
 1648 55 1648 55 1648 39 c 256,28,29
 1648 23 1648 23 1636.5 11.5 c 128,-1,30
 1625 0 1625 0 1609 0 c 0,31,32
 1592 0 1592 0 1560.5 14.5 c 128,-1,33
 1529 29 1529 29 1512 29 c 0,34,35
 1494 29 1494 29 1463 14.5 c 128,-1,36
 1432 0 1432 0 1414 0 c 0,37,38
 1398 0 1398 0 1386.5 11.5 c 128,-1,39
 1375 23 1375 23 1375 39 c 256,40,41
 1375 55 1375 55 1386.5 66.5 c 128,-1,42
 1398 78 1398 78 1414 78 c 0,43,44
 1437 78 1437 78 1455 90 c 128,-1,45
 1473 102 1473 102 1473 117 c 2,46,-1
 1473 703 l 1,47,-1
 1375 703 l 2,48,49
 1309 703 1309 703 1261 693.5 c 128,-1,50
 1213 684 1213 684 1189 664 c 1,51,52
 1227 633 1227 633 1249 597.5 c 128,-1,53
 1271 562 1271 562 1277 527 c 1,54,-1
 1277 137 l 2,55,56
 1277 80 1277 80 1237 40 c 128,-1,57
 1197 0 1197 0 1141 0 c 2,58,-1
 1092 0 l 2,59,60
 1031 0 1031 0 988 40 c 128,-1,61
 945 80 945 80 945 137 c 2,62,-1
 945 527 l 2,63,64
 945 557 945 557 968.5 593 c 128,-1,65
 992 629 992 629 1033 664 c 1,66,67
 1000 684 1000 684 960 693.5 c 128,-1,68
 920 703 920 703 877 703 c 256,69,70
 834 703 834 703 794 693.5 c 128,-1,71
 754 684 754 684 721 664 c 1,72,73
 762 629 762 629 785.5 593 c 128,-1,74
 809 557 809 557 809 527 c 2,75,-1
 809 137 l 2,76,77
 809 80 809 80 766 40 c 128,-1,78
 723 0 723 0 662 0 c 2,79,-1
 623 0 l 2,80,81
 562 0 562 0 519.5 40 c 128,-1,82
 477 80 477 80 477 137 c 2,83,-1
 477 527 l 2,84,85
 477 557 477 557 500 593 c 128,-1,86
 523 629 523 629 564 664 c 1,87,88
 531 684 531 684 494 693.5 c 128,-1,89
 457 703 457 703 418 703 c 2,90,-1
 262 703 l 2,91,92
 221 703 221 703 192.5 674.5 c 128,-1,93
 164 646 164 646 164 605 c 2,94,-1
 164 449 l 1,95,96
 182 459 182 459 196.5 464 c 128,-1,97
 211 469 211 469 223 469 c 2,98,-1
 242 469 l 2,99,100
 299 469 299 469 339 429 c 128,-1,101
 379 389 379 389 379 332 c 2,102,-1
 379 137 l 2,103,104
 379 80 379 80 339 40 c 128,-1,105
 299 0 299 0 242 0 c 2,106,-1
 223 0 l 2,107,108
 166 0 166 0 126 40 c 128,-1,109
 86 80 86 80 86 137 c 2,110,-1
 86 605 l 2,111,112
 86 678 86 678 140.5 729.5 c 128,-1,113
 195 781 195 781 271 781 c 2,0,-1
232 391 m 0,114,115
 205 391 205 391 184.5 373 c 128,-1,116
 164 355 164 355 164 332 c 2,117,-1
 164 137 l 2,118,119
 164 113 164 113 184.5 95.5 c 128,-1,120
 205 78 205 78 232 78 c 0,121,122
 260 78 260 78 280.5 95.5 c 128,-1,123
 301 113 301 113 301 137 c 2,124,-1
 301 332 l 2,125,126
 301 355 301 355 280.5 373 c 128,-1,127
 260 391 260 391 232 391 c 0,114,115
643 645 m 1,128,129
 602 609 602 609 578.5 573 c 128,-1,130
 555 537 555 537 555 508 c 2,131,-1
 555 137 l 2,132,133
 555 113 555 113 575.5 95.5 c 128,-1,134
 596 78 596 78 623 78 c 2,135,-1
 662 78 l 2,136,137
 689 78 689 78 709.5 95.5 c 128,-1,138
 730 113 730 113 730 137 c 2,139,-1
 730 508 l 2,140,141
 730 537 730 537 707 573 c 128,-1,142
 684 609 684 609 643 645 c 1,128,129
1111 645 m 1,143,144
 1070 609 1070 609 1046.5 573 c 128,-1,145
 1023 537 1023 537 1023 508 c 2,146,-1
 1023 137 l 2,147,148
 1023 113 1023 113 1043.5 95.5 c 128,-1,149
 1064 78 1064 78 1092 78 c 2,150,-1
 1141 78 l 2,151,152
 1164 78 1164 78 1181.5 95.5 c 128,-1,153
 1199 113 1199 113 1199 137 c 2,154,-1
 1199 508 l 2,155,156
 1199 537 1199 537 1175.5 573 c 128,-1,157
 1152 609 1152 609 1111 645 c 1,143,144
EndSplineSet
EndChar

StartChar: tm_ta
Encoding: 2980 2980 69
Width: 689
GlyphClass: 2
Flags: W
LayerCount: 2
Fore
SplineSet
62 137 m 2,0,-1
 62 381 l 2,1,2
 62 426 62 426 84.5 459 c 128,-1,3
 107 492 107 492 141 498 c 1,4,-1
 141 664 l 2,5,6
 141 713 141 713 178 747 c 128,-1,7
 215 781 215 781 268 781 c 2,8,-1
 531 781 l 1,9,10
 549 777 549 777 559.5 766.5 c 128,-1,11
 570 756 570 756 570 742 c 0,12,13
 570 727 570 727 558.5 715 c 128,-1,14
 547 703 547 703 531 703 c 2,15,-1
 414 703 l 1,16,-1
 414 498 l 1,17,-1
 492 498 l 2,18,19
 549 498 549 498 589 458 c 128,-1,20
 629 418 629 418 629 361 c 2,21,-1
 629 39 l 2,22,23
 629 -51 629 -51 574.5 -113.5 c 128,-1,24
 520 -176 520 -176 443 -176 c 2,25,-1
 111 -176 l 2,26,27
 84 -176 84 -176 63.5 -193.5 c 128,-1,28
 43 -211 43 -211 43 -234 c 2,29,-1
 43 -352 l 2,30,31
 43 -391 43 -391 4 -391 c 128,-1,32
 -35 -391 -35 -391 -35 -352 c 2,33,-1
 -35 -234 l 2,34,35
 -35 -178 -35 -178 8 -138 c 128,-1,36
 51 -98 51 -98 111 -98 c 2,37,-1
 443 -98 l 2,38,39
 488 -98 488 -98 519.5 -58 c 128,-1,40
 551 -18 551 -18 551 39 c 2,41,-1
 551 361 l 2,42,43
 551 385 551 385 533.5 402.5 c 128,-1,44
 516 420 516 420 492 420 c 2,45,-1
 414 420 l 1,46,-1
 414 137 l 2,47,48
 414 80 414 80 377 40 c 128,-1,49
 340 0 340 0 287 0 c 2,50,-1
 189 0 l 2,51,52
 137 0 137 0 99.5 40 c 128,-1,53
 62 80 62 80 62 137 c 2,0,-1
268 703 m 2,54,55
 248 703 248 703 233.5 691.5 c 128,-1,56
 219 680 219 680 219 664 c 2,57,-1
 219 498 l 1,58,-1
 336 498 l 1,59,-1
 336 703 l 1,60,-1
 268 703 l 2,54,55
189 420 m 2,61,62
 170 420 170 420 155.5 408 c 128,-1,63
 141 396 141 396 141 381 c 2,64,-1
 141 137 l 2,65,66
 141 113 141 113 161.5 95.5 c 128,-1,67
 182 78 182 78 209 78 c 2,68,-1
 268 78 l 2,69,70
 295 78 295 78 315.5 95.5 c 128,-1,71
 336 113 336 113 336 137 c 2,72,-1
 336 420 l 1,73,-1
 189 420 l 2,61,62
EndSplineSet
EndChar

StartChar: tm_na
Encoding: 2984 2984 70
Width: 803
GlyphClass: 2
Flags: W
LayerCount: 2
Fore
SplineSet
400 703 m 1,0,-1
 244 703 l 2,1,2
 221 703 221 703 203.5 685.5 c 128,-1,3
 186 668 186 668 186 645 c 2,4,-1
 186 117 l 2,5,6
 186 102 186 102 203.5 90 c 128,-1,7
 221 78 221 78 244 78 c 0,8,9
 260 78 260 78 271.5 66.5 c 128,-1,10
 283 55 283 55 283 39 c 256,11,12
 283 23 283 23 271.5 11.5 c 128,-1,13
 260 0 260 0 244 0 c 0,14,15
 227 0 227 0 195.5 14.5 c 128,-1,16
 164 29 164 29 146 29 c 0,17,18
 129 29 129 29 97.5 14.5 c 128,-1,19
 66 0 66 0 49 0 c 0,20,21
 33 0 33 0 21.5 11.5 c 128,-1,22
 10 23 10 23 10 39 c 256,23,24
 10 55 10 55 21.5 66.5 c 128,-1,25
 33 78 33 78 49 78 c 0,26,27
 72 78 72 78 89.5 90 c 128,-1,28
 107 102 107 102 107 117 c 2,29,-1
 107 645 l 2,30,31
 107 701 107 701 150 741 c 128,-1,32
 193 781 193 781 254 781 c 2,33,-1
 684 781 l 2,34,35
 695 781 695 781 704 769.5 c 128,-1,36
 713 758 713 758 713 742 c 0,37,38
 713 727 713 727 701 715 c 128,-1,39
 689 703 689 703 674 703 c 2,40,-1
 479 703 l 1,41,-1
 479 527 l 1,42,43
 490 537 490 537 503 542 c 128,-1,44
 516 547 516 547 527 547 c 2,45,-1
 605 547 l 2,46,47
 658 547 658 547 695 507 c 128,-1,48
 732 467 732 467 732 410 c 2,49,-1
 732 39 l 2,50,51
 732 -51 732 -51 658 -113.5 c 128,-1,52
 584 -176 584 -176 479 -176 c 2,53,-1
 98 -176 l 2,54,55
 74 -176 74 -176 56.5 -193.5 c 128,-1,56
 39 -211 39 -211 39 -234 c 2,57,-1
 39 -352 l 2,58,59
 39 -371 39 -371 27.5 -385.5 c 128,-1,60
 16 -400 16 -400 0 -400 c 256,61,62
 -16 -400 -16 -400 -27.5 -385.5 c 128,-1,63
 -39 -371 -39 -371 -39 -352 c 2,64,-1
 -39 -234 l 2,65,66
 -39 -178 -39 -178 4 -138 c 128,-1,67
 47 -98 47 -98 107 -98 c 2,68,-1
 488 -98 l 2,69,70
 557 -98 557 -98 605.5 -58 c 128,-1,71
 654 -18 654 -18 654 39 c 2,72,-1
 654 410 l 2,73,74
 654 434 654 434 636.5 451.5 c 128,-1,75
 619 469 619 469 596 469 c 2,76,-1
 537 469 l 2,77,78
 514 469 514 469 496.5 451.5 c 128,-1,79
 479 434 479 434 479 410 c 2,80,-1
 479 117 l 2,81,82
 479 102 479 102 496.5 90 c 128,-1,83
 514 78 514 78 537 78 c 0,84,85
 553 78 553 78 564.5 66.5 c 128,-1,86
 576 55 576 55 576 39 c 256,87,88
 576 23 576 23 564.5 11.5 c 128,-1,89
 553 0 553 0 537 0 c 0,90,91
 520 0 520 0 488.5 14.5 c 128,-1,92
 457 29 457 29 439 29 c 0,93,94
 422 29 422 29 390.5 14.5 c 128,-1,95
 359 0 359 0 342 0 c 0,96,97
 326 0 326 0 314.5 11.5 c 128,-1,98
 303 23 303 23 303 39 c 256,99,100
 303 55 303 55 314.5 66.5 c 128,-1,101
 326 78 326 78 342 78 c 0,102,103
 365 78 365 78 382.5 90 c 128,-1,104
 400 102 400 102 400 117 c 2,105,-1
 400 703 l 1,0,-1
EndSplineSet
EndChar

StartChar: tm_nnna
Encoding: 2985 2985 71
Width: 1217
GlyphClass: 2
Flags: W
LayerCount: 2
Fore
SplineSet
264 781 m 2,0,-1
 420 781 l 2,1,2
 473 781 473 781 529.5 763.5 c 128,-1,3
 586 746 586 746 645 713 c 1,4,5
 693 746 693 746 751 763.5 c 128,-1,6
 809 781 809 781 869 781 c 2,7,-1
 1162 781 l 2,8,9
 1178 781 1178 781 1189.5 769.5 c 128,-1,10
 1201 758 1201 758 1201 742 c 0,11,12
 1201 727 1201 727 1189.5 715 c 128,-1,13
 1178 703 1178 703 1162 703 c 2,14,-1
 1084 703 l 1,15,-1
 1084 117 l 2,16,17
 1084 102 1084 102 1101.5 90 c 128,-1,18
 1119 78 1119 78 1143 78 c 0,19,20
 1158 78 1158 78 1170 66.5 c 128,-1,21
 1182 55 1182 55 1182 39 c 256,22,23
 1182 23 1182 23 1170 11.5 c 128,-1,24
 1158 0 1158 0 1143 0 c 0,25,26
 1125 0 1125 0 1093.5 14.5 c 128,-1,27
 1062 29 1062 29 1045 29 c 0,28,29
 1027 29 1027 29 996 14.5 c 128,-1,30
 965 0 965 0 947 0 c 0,31,32
 932 0 932 0 920 11.5 c 128,-1,33
 908 23 908 23 908 39 c 256,34,35
 908 55 908 55 920 66.5 c 128,-1,36
 932 78 932 78 947 78 c 0,37,38
 971 78 971 78 988.5 90 c 128,-1,39
 1006 102 1006 102 1006 117 c 2,40,-1
 1006 703 l 1,41,-1
 869 703 l 2,42,43
 826 703 826 703 786 693.5 c 128,-1,44
 746 684 746 684 713 664 c 1,45,46
 760 625 760 625 785.5 576 c 128,-1,47
 811 527 811 527 811 479 c 2,48,-1
 811 137 l 2,49,50
 811 80 811 80 773.5 40 c 128,-1,51
 736 0 736 0 684 0 c 2,52,-1
 605 0 l 2,53,54
 553 0 553 0 516 40 c 128,-1,55
 479 80 479 80 479 137 c 2,56,-1
 479 479 l 2,57,58
 479 531 479 531 502 580 c 128,-1,59
 525 629 525 629 566 664 c 1,60,61
 514 684 514 684 476.5 693.5 c 128,-1,62
 439 703 439 703 420 703 c 2,63,-1
 264 703 l 2,64,65
 223 703 223 703 194.5 674.5 c 128,-1,66
 166 646 166 646 166 605 c 2,67,-1
 166 449 l 1,68,69
 174 459 174 459 186.5 464 c 128,-1,70
 199 469 199 469 215 469 c 2,71,-1
 254 469 l 2,72,73
 307 469 307 469 344 429 c 128,-1,74
 381 389 381 389 381 332 c 2,75,-1
 381 137 l 2,76,77
 381 80 381 80 344 40 c 128,-1,78
 307 0 307 0 254 0 c 2,79,-1
 215 0 l 2,80,81
 162 0 162 0 125 40 c 128,-1,82
 88 80 88 80 88 137 c 2,83,-1
 88 605 l 2,84,85
 88 678 88 678 139.5 729.5 c 128,-1,86
 191 781 191 781 264 781 c 2,0,-1
234 391 m 0,87,88
 207 391 207 391 186.5 373 c 128,-1,89
 166 355 166 355 166 332 c 2,90,-1
 166 137 l 2,91,92
 166 113 166 113 186.5 95.5 c 128,-1,93
 207 78 207 78 234 78 c 0,94,95
 262 78 262 78 282.5 95.5 c 128,-1,96
 303 113 303 113 303 137 c 2,97,-1
 303 332 l 2,98,99
 303 355 303 355 282.5 373 c 128,-1,100
 262 391 262 391 234 391 c 0,87,88
645 635 m 1,101,102
 604 600 604 600 580.5 559 c 128,-1,103
 557 518 557 518 557 479 c 2,104,-1
 557 137 l 2,105,106
 557 113 557 113 577.5 95.5 c 128,-1,107
 598 78 598 78 625 78 c 2,108,-1
 664 78 l 2,109,110
 691 78 691 78 711.5 95.5 c 128,-1,111
 732 113 732 113 732 137 c 2,112,-1
 732 479 l 2,113,114
 732 518 732 518 709 559 c 128,-1,115
 686 600 686 600 645 635 c 1,101,102
EndSplineSet
EndChar

StartChar: tm_pa
Encoding: 2986 2986 72
Width: 777
GlyphClass: 2
Flags: W
LayerCount: 2
Fore
SplineSet
105 137 m 2,0,-1
 105 664 l 2,1,2
 105 680 105 680 87.5 691.5 c 128,-1,3
 70 703 70 703 47 703 c 0,4,5
 31 703 31 703 19.5 715 c 128,-1,6
 8 727 8 727 8 742 c 0,7,8
 8 758 8 758 19.5 769.5 c 128,-1,9
 31 781 31 781 47 781 c 0,10,11
 62 781 62 781 90.5 766.5 c 128,-1,12
 119 752 119 752 135 752 c 0,13,14
 154 752 154 752 188.5 766.5 c 128,-1,15
 223 781 223 781 242 781 c 0,16,17
 258 781 258 781 269.5 769.5 c 128,-1,18
 281 758 281 758 281 742 c 0,19,20
 281 727 281 727 269.5 715 c 128,-1,21
 258 703 258 703 242 703 c 0,22,23
 219 703 219 703 201.5 691.5 c 128,-1,24
 184 680 184 680 184 664 c 2,25,-1
 184 137 l 2,26,27
 184 113 184 113 204.5 95.5 c 128,-1,28
 225 78 225 78 252 78 c 2,29,-1
 525 78 l 2,30,31
 553 78 553 78 573.5 95.5 c 128,-1,32
 594 113 594 113 594 137 c 2,33,-1
 594 664 l 2,34,35
 594 680 594 680 576.5 691.5 c 128,-1,36
 559 703 559 703 535 703 c 0,37,38
 520 703 520 703 508 715 c 128,-1,39
 496 727 496 727 496 742 c 0,40,41
 496 758 496 758 508 769.5 c 128,-1,42
 520 781 520 781 535 781 c 0,43,44
 553 781 553 781 584 766.5 c 128,-1,45
 615 752 615 752 633 752 c 0,46,47
 650 752 650 752 681.5 766.5 c 128,-1,48
 713 781 713 781 730 781 c 0,49,50
 746 781 746 781 758 769.5 c 128,-1,51
 770 758 770 758 770 742 c 0,52,53
 770 727 770 727 758 715 c 128,-1,54
 746 703 746 703 730 703 c 0,55,56
 707 703 707 703 689.5 691.5 c 128,-1,57
 672 680 672 680 672 664 c 2,58,-1
 672 137 l 2,59,60
 672 80 672 80 626 40 c 128,-1,61
 580 0 580 0 516 0 c 2,62,-1
 262 0 l 2,63,64
 197 0 197 0 151 40 c 128,-1,65
 105 80 105 80 105 137 c 2,0,-1
EndSplineSet
EndChar

StartChar: tm_ma
Encoding: 2990 2990 73
Width: 818
GlyphClass: 2
Flags: W
LayerCount: 2
Fore
SplineSet
105 137 m 2,0,-1
 105 664 l 2,1,2
 105 680 105 680 87.5 691.5 c 128,-1,3
 70 703 70 703 47 703 c 0,4,5
 31 703 31 703 19.5 715 c 128,-1,6
 8 727 8 727 8 742 c 0,7,8
 8 758 8 758 19.5 769.5 c 128,-1,9
 31 781 31 781 47 781 c 0,10,11
 64 781 64 781 95.5 766.5 c 128,-1,12
 127 752 127 752 145 752 c 0,13,14
 162 752 162 752 193.5 766.5 c 128,-1,15
 225 781 225 781 242 781 c 0,16,17
 258 781 258 781 269.5 769.5 c 128,-1,18
 281 758 281 758 281 742 c 0,19,20
 281 727 281 727 269.5 715 c 128,-1,21
 258 703 258 703 242 703 c 0,22,23
 219 703 219 703 201.5 691.5 c 128,-1,24
 184 680 184 680 184 664 c 2,25,-1
 184 137 l 2,26,27
 184 113 184 113 204.5 95.5 c 128,-1,28
 225 78 225 78 252 78 c 2,29,-1
 379 78 l 1,30,-1
 379 645 l 2,31,32
 379 701 379 701 416 741 c 128,-1,33
 453 781 453 781 506 781 c 2,34,-1
 584 781 l 2,35,36
 637 781 637 781 674 741 c 128,-1,37
 711 701 711 701 711 645 c 2,38,-1
 711 137 l 2,39,40
 711 113 711 113 728.5 95.5 c 128,-1,41
 746 78 746 78 770 78 c 0,42,43
 785 78 785 78 797 66.5 c 128,-1,44
 809 55 809 55 809 39 c 256,45,46
 809 23 809 23 794 11.5 c 128,-1,47
 779 0 779 0 760 0 c 2,48,-1
 262 0 l 2,49,50
 197 0 197 0 151 40 c 128,-1,51
 105 80 105 80 105 137 c 2,0,-1
525 703 m 2,52,53
 498 703 498 703 477.5 685.5 c 128,-1,54
 457 668 457 668 457 645 c 2,55,-1
 457 78 l 1,56,-1
 584 78 l 2,57,58
 604 78 604 78 618.5 95.5 c 128,-1,59
 633 113 633 113 633 137 c 2,60,-1
 633 645 l 2,61,62
 633 668 633 668 615.5 685.5 c 128,-1,63
 598 703 598 703 574 703 c 2,64,-1
 525 703 l 2,52,53
EndSplineSet
EndChar

StartChar: tm_ya
Encoding: 2991 2991 74
Width: 1039
GlyphClass: 2
Flags: W
LayerCount: 2
Fore
SplineSet
104 137 m 2,0,-1
 104 664 l 2,1,2
 104 680 104 680 89 691.5 c 128,-1,3
 74 703 74 703 55 703 c 0,4,5
 39 703 39 703 27.5 715 c 128,-1,6
 16 727 16 727 16 742 c 0,7,8
 16 758 16 758 27.5 769.5 c 128,-1,9
 39 781 39 781 55 781 c 0,10,11
 70 781 70 781 98.5 766.5 c 128,-1,12
 127 752 127 752 143 752 c 0,13,14
 158 752 158 752 186.5 766.5 c 128,-1,15
 215 781 215 781 230 781 c 0,16,17
 246 781 246 781 258 769.5 c 128,-1,18
 270 758 270 758 270 742 c 0,19,20
 270 727 270 727 258 715 c 128,-1,21
 246 703 246 703 230 703 c 0,22,23
 211 703 211 703 196.5 691.5 c 128,-1,24
 182 680 182 680 182 664 c 2,25,-1
 182 137 l 2,26,27
 182 113 182 113 202.5 95.5 c 128,-1,28
 223 78 223 78 250 78 c 0,29,30
 303 78 303 78 340 118 c 128,-1,31
 377 158 377 158 377 215 c 2,32,-1
 377 664 l 2,33,34
 377 680 377 680 362.5 691.5 c 128,-1,35
 348 703 348 703 328 703 c 0,36,37
 312 703 312 703 300.5 715 c 128,-1,38
 289 727 289 727 289 742 c 0,39,40
 289 758 289 758 300.5 769.5 c 128,-1,41
 312 781 312 781 328 781 c 256,42,43
 344 781 344 781 372 766.5 c 128,-1,44
 400 752 400 752 416 752 c 256,45,46
 432 752 432 752 460 766.5 c 128,-1,47
 488 781 488 781 504 781 c 256,48,49
 520 781 520 781 531.5 769.5 c 128,-1,50
 543 758 543 758 543 742 c 0,51,52
 543 727 543 727 531.5 715 c 128,-1,53
 520 703 520 703 504 703 c 0,54,55
 484 703 484 703 469.5 691.5 c 128,-1,56
 455 680 455 680 455 664 c 2,57,-1
 455 156 l 2,58,59
 455 123 455 123 475.5 100.5 c 128,-1,60
 496 78 496 78 523 78 c 2,61,-1
 787 78 l 2,62,63
 814 78 814 78 834.5 100.5 c 128,-1,64
 855 123 855 123 855 156 c 2,65,-1
 855 664 l 2,66,67
 855 680 855 680 837.5 691.5 c 128,-1,68
 820 703 820 703 797 703 c 0,69,70
 781 703 781 703 769.5 715 c 128,-1,71
 758 727 758 727 758 742 c 0,72,73
 758 758 758 758 769.5 769.5 c 128,-1,74
 781 781 781 781 797 781 c 0,75,76
 814 781 814 781 845.5 766.5 c 128,-1,77
 877 752 877 752 895 752 c 0,78,79
 912 752 912 752 943.5 766.5 c 128,-1,80
 975 781 975 781 992 781 c 0,81,82
 1008 781 1008 781 1019.5 769.5 c 128,-1,83
 1031 758 1031 758 1031 742 c 0,84,85
 1031 727 1031 727 1019.5 715 c 128,-1,86
 1008 703 1008 703 992 703 c 0,87,88
 969 703 969 703 951.5 691.5 c 128,-1,89
 934 680 934 680 934 664 c 2,90,-1
 934 156 l 2,91,92
 934 92 934 92 891 46 c 128,-1,93
 848 0 848 0 787 0 c 2,94,-1
 523 0 l 2,95,96
 480 0 480 0 446 21.5 c 128,-1,97
 412 43 412 43 396 78 c 1,98,99
 371 41 371 41 333 20.5 c 128,-1,100
 295 0 295 0 250 0 c 0,101,102
 189 0 189 0 146.5 40 c 128,-1,103
 104 80 104 80 104 137 c 2,0,-1
EndSplineSet
EndChar

StartChar: tm_ra
Encoding: 2992 2992 75
Width: 643
GlyphClass: 2
Flags: W
LayerCount: 2
Fore
SplineSet
244 781 m 2,0,-1
 596 781 l 2,1,2
 611 781 611 781 623 769.5 c 128,-1,3
 635 758 635 758 635 742 c 0,4,5
 635 727 635 727 623 715 c 128,-1,6
 611 703 611 703 596 703 c 2,7,-1
 518 703 l 1,8,-1
 518 98 l 2,9,10
 518 61 518 61 507 32.5 c 128,-1,11
 496 4 496 4 479 -10 c 2,12,-1
 156 -283 l 2,13,14
 148 -293 148 -293 133.5 -293 c 128,-1,15
 119 -293 119 -293 107 -283 c 0,16,17
 96 -273 96 -273 99 -253.5 c 128,-1,18
 102 -234 102 -234 117 -215 c 1,19,-1
 400 20 l 2,20,21
 418 31 418 31 428.5 52.5 c 128,-1,22
 439 74 439 74 439 98 c 2,23,-1
 439 703 l 1,24,-1
 244 703 l 2,25,26
 221 703 221 703 203.5 685.5 c 128,-1,27
 186 668 186 668 186 645 c 2,28,-1
 186 117 l 2,29,30
 186 102 186 102 200.5 90 c 128,-1,31
 215 78 215 78 234 78 c 2,32,-1
 254 78 l 2,33,34
 266 78 266 78 274.5 66.5 c 128,-1,35
 283 55 283 55 283 39 c 256,36,37
 283 23 283 23 274.5 11.5 c 128,-1,38
 266 0 266 0 254 0 c 0,39,40
 234 0 234 0 200 14.5 c 128,-1,41
 166 29 166 29 146 29 c 0,42,43
 127 29 127 29 93 14.5 c 128,-1,44
 59 0 59 0 39 0 c 0,45,46
 27 0 27 0 18.5 11.5 c 128,-1,47
 10 23 10 23 10 39 c 256,48,49
 10 55 10 55 18.5 66.5 c 128,-1,50
 27 78 27 78 39 78 c 2,51,-1
 59 78 l 2,52,53
 78 78 78 78 92.5 90 c 128,-1,54
 107 102 107 102 107 117 c 2,55,-1
 107 645 l 2,56,57
 107 701 107 701 147 741 c 128,-1,58
 187 781 187 781 244 781 c 2,0,-1
EndSplineSet
EndChar

StartChar: tm_rra
Encoding: 2993 2993 76
Width: 789
GlyphClass: 2
Flags: W
LayerCount: 2
Fore
SplineSet
244 781 m 2,0,-1
 303 781 l 2,1,2
 332 781 332 781 358.5 765.5 c 128,-1,3
 385 750 385 750 400 723 c 1,4,5
 416 750 416 750 442.5 765.5 c 128,-1,6
 469 781 469 781 498 781 c 2,7,-1
 557 781 l 2,8,9
 613 781 613 781 653 741 c 128,-1,10
 693 701 693 701 693 645 c 2,11,-1
 693 39 l 2,12,13
 693 -51 693 -51 622 -113.5 c 128,-1,14
 551 -176 551 -176 449 -176 c 2,15,-1
 117 -176 l 2,16,17
 90 -176 90 -176 69.5 -193.5 c 128,-1,18
 49 -211 49 -211 49 -234 c 2,19,-1
 49 -352 l 2,20,21
 49 -371 49 -371 37 -385.5 c 128,-1,22
 25 -400 25 -400 10 -400 c 0,23,24
 -6 -400 -6 -400 -17.5 -385.5 c 128,-1,25
 -29 -371 -29 -371 -29 -352 c 2,26,-1
 -29 -234 l 2,27,28
 -29 -178 -29 -178 14 -138 c 128,-1,29
 57 -98 57 -98 117 -98 c 2,30,-1
 449 -98 l 2,31,32
 518 -98 518 -98 566.5 -58 c 128,-1,33
 615 -18 615 -18 615 39 c 2,34,-1
 615 645 l 2,35,36
 615 668 615 668 597.5 685.5 c 128,-1,37
 580 703 580 703 557 703 c 2,38,-1
 498 703 l 2,39,40
 475 703 475 703 457 685.5 c 128,-1,41
 439 668 439 668 439 645 c 2,42,-1
 439 39 l 2,43,44
 439 23 439 23 427.5 11.5 c 128,-1,45
 416 0 416 0 400 0 c 0,46,47
 385 0 385 0 373 11.5 c 128,-1,48
 361 23 361 23 361 39 c 2,49,-1
 361 645 l 2,50,51
 361 668 361 668 343.5 685.5 c 128,-1,52
 326 703 326 703 303 703 c 2,53,-1
 244 703 l 2,54,55
 221 703 221 703 203.5 685.5 c 128,-1,56
 186 668 186 668 186 645 c 2,57,-1
 186 117 l 2,58,59
 186 102 186 102 203.5 90 c 128,-1,60
 221 78 221 78 244 78 c 0,61,62
 260 78 260 78 271.5 66.5 c 128,-1,63
 283 55 283 55 283 39 c 256,64,65
 283 23 283 23 271.5 11.5 c 128,-1,66
 260 0 260 0 244 0 c 0,67,68
 227 0 227 0 195.5 14.5 c 128,-1,69
 164 29 164 29 146 29 c 0,70,71
 129 29 129 29 97.5 14.5 c 128,-1,72
 66 0 66 0 49 0 c 0,73,74
 33 0 33 0 21.5 11.5 c 128,-1,75
 10 23 10 23 10 39 c 256,76,77
 10 55 10 55 21.5 66.5 c 128,-1,78
 33 78 33 78 49 78 c 0,79,80
 72 78 72 78 89.5 90 c 128,-1,81
 107 102 107 102 107 117 c 2,82,-1
 107 645 l 2,83,84
 107 701 107 701 147 741 c 128,-1,85
 187 781 187 781 244 781 c 2,0,-1
EndSplineSet
EndChar

StartChar: tm_la
Encoding: 2994 2994 77
Width: 902
GlyphClass: 2
Flags: W
LayerCount: 2
Fore
SplineSet
227 781 m 2,0,-1
 422 781 l 2,1,2
 479 781 479 781 519 741 c 128,-1,3
 559 701 559 701 559 645 c 2,4,-1
 559 137 l 2,5,6
 559 113 559 113 576.5 95.5 c 128,-1,7
 594 78 594 78 617 78 c 2,8,-1
 676 78 l 2,9,10
 699 78 699 78 716.5 95.5 c 128,-1,11
 734 113 734 113 734 137 c 2,12,-1
 734 664 l 2,13,14
 734 680 734 680 725.5 691.5 c 128,-1,15
 717 703 717 703 705 703 c 2,16,-1
 666 703 l 2,17,18
 650 703 650 703 638.5 715 c 128,-1,19
 627 727 627 727 627 742 c 0,20,21
 627 758 627 758 636 769.5 c 128,-1,22
 645 781 645 781 656 781 c 2,23,-1
 705 781 l 2,24,25
 750 781 750 781 781 747 c 128,-1,26
 812 713 812 713 812 664 c 2,27,-1
 812 137 l 2,28,29
 812 80 812 80 772 40 c 128,-1,30
 732 0 732 0 676 0 c 2,31,-1
 617 0 l 2,32,33
 561 0 561 0 520.5 40 c 128,-1,34
 480 80 480 80 480 137 c 2,35,-1
 480 645 l 2,36,37
 480 668 480 668 462.5 685.5 c 128,-1,38
 445 703 445 703 422 703 c 2,39,-1
 227 703 l 2,40,41
 203 703 203 703 185.5 685.5 c 128,-1,42
 168 668 168 668 168 645 c 2,43,-1
 168 449 l 1,44,45
 182 459 182 459 194.5 464 c 128,-1,46
 207 469 207 469 217 469 c 2,47,-1
 256 469 l 2,48,49
 309 469 309 469 346 429 c 128,-1,50
 383 389 383 389 383 332 c 2,51,-1
 383 137 l 2,52,53
 383 80 383 80 343 40 c 128,-1,54
 303 0 303 0 246 0 c 2,55,-1
 227 0 l 2,56,57
 170 0 170 0 130 40 c 128,-1,58
 90 80 90 80 90 137 c 2,59,-1
 90 645 l 2,60,61
 90 701 90 701 130 741 c 128,-1,62
 170 781 170 781 227 781 c 2,0,-1
236 391 m 0,63,64
 209 391 209 391 188.5 373 c 128,-1,65
 168 355 168 355 168 332 c 2,66,-1
 168 137 l 2,67,68
 168 113 168 113 188.5 95.5 c 128,-1,69
 209 78 209 78 236 78 c 0,70,71
 264 78 264 78 284.5 95.5 c 128,-1,72
 305 113 305 113 305 137 c 2,73,-1
 305 332 l 2,74,75
 305 355 305 355 284.5 373 c 128,-1,76
 264 391 264 391 236 391 c 0,63,64
EndSplineSet
EndChar

StartChar: tm_lla
Encoding: 2995 2995 78
Width: 1053
GlyphClass: 2
Flags: W
LayerCount: 2
Fore
SplineSet
90 137 m 2,0,-1
 90 645 l 2,1,2
 90 701 90 701 130 741 c 128,-1,3
 170 781 170 781 227 781 c 2,4,-1
 451 781 l 2,5,6
 490 781 490 781 521.5 765.5 c 128,-1,7
 553 750 553 750 568 723 c 1,8,9
 584 750 584 750 610.5 765.5 c 128,-1,10
 637 781 637 781 666 781 c 2,11,-1
 998 781 l 2,12,13
 1014 781 1014 781 1025.5 769.5 c 128,-1,14
 1037 758 1037 758 1037 742 c 0,15,16
 1037 727 1037 727 1025.5 715 c 128,-1,17
 1014 703 1014 703 998 703 c 2,18,-1
 920 703 l 1,19,-1
 920 117 l 2,20,21
 920 102 920 102 937.5 90 c 128,-1,22
 955 78 955 78 979 78 c 0,23,24
 994 78 994 78 1006 66.5 c 128,-1,25
 1018 55 1018 55 1018 39 c 256,26,27
 1018 23 1018 23 1006 11.5 c 128,-1,28
 994 0 994 0 979 0 c 0,29,30
 961 0 961 0 929.5 14.5 c 128,-1,31
 898 29 898 29 881 29 c 0,32,33
 863 29 863 29 832 14.5 c 128,-1,34
 801 0 801 0 783 0 c 0,35,36
 768 0 768 0 756 11.5 c 128,-1,37
 744 23 744 23 744 39 c 256,38,39
 744 55 744 55 756 66.5 c 128,-1,40
 768 78 768 78 783 78 c 0,41,42
 807 78 807 78 824.5 90 c 128,-1,43
 842 102 842 102 842 117 c 2,44,-1
 842 703 l 1,45,-1
 666 703 l 2,46,47
 643 703 643 703 625 685.5 c 128,-1,48
 607 668 607 668 607 645 c 2,49,-1
 607 117 l 2,50,51
 607 102 607 102 625 90 c 128,-1,52
 643 78 643 78 666 78 c 0,53,54
 682 78 682 78 693.5 66.5 c 128,-1,55
 705 55 705 55 705 39 c 256,56,57
 705 23 705 23 693.5 11.5 c 128,-1,58
 682 0 682 0 666 0 c 0,59,60
 648 0 648 0 617 14.5 c 128,-1,61
 586 29 586 29 568 29 c 0,62,63
 551 29 551 29 519.5 14.5 c 128,-1,64
 488 0 488 0 471 0 c 0,65,66
 455 0 455 0 443.5 11.5 c 128,-1,67
 432 23 432 23 432 39 c 256,68,69
 432 55 432 55 443.5 66.5 c 128,-1,70
 455 78 455 78 471 78 c 0,71,72
 494 78 494 78 511.5 90 c 128,-1,73
 529 102 529 102 529 117 c 2,74,-1
 529 635 l 2,75,76
 529 662 529 662 506.5 682.5 c 128,-1,77
 484 703 484 703 451 703 c 2,78,-1
 227 703 l 2,79,80
 203 703 203 703 185.5 685.5 c 128,-1,81
 168 668 168 668 168 645 c 2,82,-1
 168 449 l 1,83,84
 178 459 178 459 190.5 464 c 128,-1,85
 203 469 203 469 217 469 c 2,86,-1
 256 469 l 2,87,88
 309 469 309 469 346 429 c 128,-1,89
 383 389 383 389 383 332 c 2,90,-1
 383 137 l 2,91,92
 383 80 383 80 343 40 c 128,-1,93
 303 0 303 0 246 0 c 2,94,-1
 227 0 l 2,95,96
 170 0 170 0 130 40 c 128,-1,97
 90 80 90 80 90 137 c 2,0,-1
236 391 m 0,98,99
 209 391 209 391 188.5 373 c 128,-1,100
 168 355 168 355 168 332 c 2,101,-1
 168 137 l 2,102,103
 168 113 168 113 188.5 95.5 c 128,-1,104
 209 78 209 78 236 78 c 0,105,106
 264 78 264 78 284.5 95.5 c 128,-1,107
 305 113 305 113 305 137 c 2,108,-1
 305 332 l 2,109,110
 305 355 305 355 284.5 373 c 128,-1,111
 264 391 264 391 236 391 c 0,98,99
EndSplineSet
EndChar

StartChar: tm_llla
Encoding: 2996 2996 79
Width: 818
GlyphClass: 2
Flags: W
LayerCount: 2
Fore
SplineSet
105 156 m 2,0,-1
 105 664 l 2,1,2
 105 680 105 680 87.5 691.5 c 128,-1,3
 70 703 70 703 47 703 c 0,4,5
 31 703 31 703 19.5 715 c 128,-1,6
 8 727 8 727 8 742 c 0,7,8
 8 758 8 758 19.5 769.5 c 128,-1,9
 31 781 31 781 47 781 c 0,10,11
 64 781 64 781 95.5 766.5 c 128,-1,12
 127 752 127 752 145 752 c 0,13,14
 162 752 162 752 193.5 766.5 c 128,-1,15
 225 781 225 781 242 781 c 0,16,17
 258 781 258 781 269.5 769.5 c 128,-1,18
 281 758 281 758 281 742 c 0,19,20
 281 727 281 727 269.5 715 c 128,-1,21
 258 703 258 703 242 703 c 0,22,23
 219 703 219 703 201.5 691.5 c 128,-1,24
 184 680 184 680 184 664 c 2,25,-1
 184 156 l 2,26,27
 184 123 184 123 204.5 100.5 c 128,-1,28
 225 78 225 78 252 78 c 2,29,-1
 379 78 l 1,30,-1
 379 645 l 2,31,32
 379 701 379 701 419 741 c 128,-1,33
 459 781 459 781 516 781 c 2,34,-1
 574 781 l 2,35,36
 631 781 631 781 671 741 c 128,-1,37
 711 701 711 701 711 645 c 2,38,-1
 711 117 l 2,39,40
 711 102 711 102 725.5 90 c 128,-1,41
 740 78 740 78 760 78 c 0,42,43
 779 78 779 78 794 66.5 c 128,-1,44
 809 55 809 55 809 39 c 256,45,46
 809 23 809 23 791 11.5 c 128,-1,47
 773 0 773 0 750 0 c 2,48,-1
 457 0 l 1,49,-1
 457 -78 l 2,50,51
 457 -127 457 -127 488.5 -161 c 128,-1,52
 520 -195 520 -195 564 -195 c 2,53,-1
 779 -195 l 2,54,55
 791 -195 791 -195 800 -207 c 128,-1,56
 809 -219 809 -219 809 -234 c 0,57,58
 809 -250 809 -250 800 -261.5 c 128,-1,59
 791 -273 791 -273 779 -273 c 0,60,61
 742 -273 742 -273 716.5 -295.5 c 128,-1,62
 691 -318 691 -318 691 -352 c 2,63,-1
 691 -430 l 2,64,65
 691 -494 691 -494 642.5 -540 c 128,-1,66
 594 -586 594 -586 525 -586 c 2,67,-1
 252 -586 l 2,68,69
 191 -586 191 -586 148 -557.5 c 128,-1,70
 105 -529 105 -529 105 -488 c 2,71,-1
 105 -420 l 2,72,73
 105 -375 105 -375 151 -344 c 128,-1,74
 197 -313 197 -313 262 -313 c 2,75,-1
 359 -313 l 2,76,77
 379 -313 379 -313 393.5 -324.5 c 128,-1,78
 408 -336 408 -336 408 -352 c 0,79,80
 408 -367 408 -367 393.5 -379 c 128,-1,81
 379 -391 379 -391 359 -391 c 2,82,-1
 262 -391 l 2,83,84
 229 -391 229 -391 206.5 -405.5 c 128,-1,85
 184 -420 184 -420 184 -439 c 2,86,-1
 184 -469 l 2,87,88
 184 -484 184 -484 204.5 -496 c 128,-1,89
 225 -508 225 -508 252 -508 c 2,90,-1
 525 -508 l 2,91,92
 562 -508 562 -508 587.5 -485.5 c 128,-1,93
 613 -463 613 -463 613 -430 c 2,94,-1
 613 -352 l 2,95,96
 613 -322 613 -322 621 -301.5 c 128,-1,97
 629 -281 629 -281 643 -273 c 1,98,-1
 564 -273 l 2,99,100
 488 -273 488 -273 433.5 -215.5 c 128,-1,101
 379 -158 379 -158 379 -78 c 2,102,-1
 379 0 l 1,103,-1
 262 0 l 2,104,105
 197 0 197 0 151 46 c 128,-1,106
 105 92 105 92 105 156 c 2,0,-1
457 78 m 1,107,-1
 584 78 l 2,108,109
 604 78 604 78 618.5 90 c 128,-1,110
 633 102 633 102 633 117 c 2,111,-1
 633 645 l 2,112,113
 633 668 633 668 615.5 685.5 c 128,-1,114
 598 703 598 703 574 703 c 2,115,-1
 516 703 l 2,116,117
 492 703 492 703 474.5 685.5 c 128,-1,118
 457 668 457 668 457 645 c 2,119,-1
 457 78 l 1,107,-1
EndSplineSet
EndChar

StartChar: tm_va
Encoding: 2997 2997 80
Width: 1104
GlyphClass: 2
Flags: W
LayerCount: 2
Fore
SplineSet
227 781 m 2,0,-1
 480 781 l 2,1,2
 537 781 537 781 577 741 c 128,-1,3
 617 701 617 701 617 645 c 2,4,-1
 617 78 l 1,5,-1
 910 78 l 1,6,-1
 910 664 l 2,7,8
 910 680 910 680 892.5 691.5 c 128,-1,9
 875 703 875 703 852 703 c 0,10,11
 836 703 836 703 824 715 c 128,-1,12
 812 727 812 727 812 742 c 0,13,14
 812 758 812 758 824 769.5 c 128,-1,15
 836 781 836 781 852 781 c 0,16,17
 869 781 869 781 900.5 766.5 c 128,-1,18
 932 752 932 752 949 752 c 0,19,20
 967 752 967 752 998 766.5 c 128,-1,21
 1029 781 1029 781 1047 781 c 0,22,23
 1062 781 1062 781 1074 769.5 c 128,-1,24
 1086 758 1086 758 1086 742 c 0,25,26
 1086 727 1086 727 1074 715 c 128,-1,27
 1062 703 1062 703 1047 703 c 0,28,29
 1023 703 1023 703 1005.5 691.5 c 128,-1,30
 988 680 988 680 988 664 c 2,31,-1
 988 117 l 2,32,33
 988 102 988 102 1003 90 c 128,-1,34
 1018 78 1018 78 1037 78 c 0,35,36
 1057 78 1057 78 1071.5 66.5 c 128,-1,37
 1086 55 1086 55 1086 39 c 256,38,39
 1086 23 1086 23 1071.5 11.5 c 128,-1,40
 1057 0 1057 0 1037 0 c 2,41,-1
 480 0 l 2,42,43
 465 0 465 0 453 11.5 c 128,-1,44
 441 23 441 23 441 39 c 256,45,46
 441 55 441 55 453 66.5 c 128,-1,47
 465 78 465 78 480 78 c 0,48,49
 504 78 504 78 521.5 90 c 128,-1,50
 539 102 539 102 539 117 c 2,51,-1
 539 645 l 2,52,53
 539 668 539 668 521.5 685.5 c 128,-1,54
 504 703 504 703 480 703 c 2,55,-1
 227 703 l 2,56,57
 203 703 203 703 185.5 685.5 c 128,-1,58
 168 668 168 668 168 645 c 2,59,-1
 168 449 l 1,60,61
 182 459 182 459 194.5 464 c 128,-1,62
 207 469 207 469 217 469 c 2,63,-1
 266 469 l 2,64,65
 314 469 314 469 348.5 429 c 128,-1,66
 383 389 383 389 383 332 c 2,67,-1
 383 137 l 2,68,69
 383 80 383 80 343 40 c 128,-1,70
 303 0 303 0 246 0 c 2,71,-1
 227 0 l 2,72,73
 170 0 170 0 130 40 c 128,-1,74
 90 80 90 80 90 137 c 2,75,-1
 90 645 l 2,76,77
 90 701 90 701 130 741 c 128,-1,78
 170 781 170 781 227 781 c 2,0,-1
305 332 m 2,79,80
 305 355 305 355 284.5 373 c 128,-1,81
 264 391 264 391 236 391 c 0,82,83
 209 391 209 391 188.5 373 c 128,-1,84
 168 355 168 355 168 332 c 2,85,-1
 168 137 l 2,86,87
 168 113 168 113 188.5 95.5 c 128,-1,88
 209 78 209 78 236 78 c 0,89,90
 264 78 264 78 284.5 95.5 c 128,-1,91
 305 113 305 113 305 137 c 2,92,-1
 305 332 l 2,79,80
EndSplineSet
EndChar

StartChar: tm_ssa
Encoding: 2999 2999 81
Width: 1320
GlyphClass: 2
Flags: W
LayerCount: 2
Fore
SplineSet
227 781 m 2,0,-1
 480 781 l 2,1,2
 537 781 537 781 577 741 c 128,-1,3
 617 701 617 701 617 645 c 2,4,-1
 617 78 l 1,5,-1
 988 78 l 1,6,-1
 988 312 l 1,7,-1
 920 312 l 2,8,9
 859 312 859 312 816 352.5 c 128,-1,10
 773 393 773 393 773 449 c 2,11,-1
 773 645 l 2,12,13
 773 701 773 701 816 741 c 128,-1,14
 859 781 859 781 920 781 c 0,15,16
 980 781 980 781 1023 741 c 128,-1,17
 1066 701 1066 701 1066 645 c 2,18,-1
 1066 391 l 1,19,-1
 1135 391 l 2,20,21
 1195 391 1195 391 1238 351 c 128,-1,22
 1281 311 1281 311 1281 254 c 2,23,-1
 1281 137 l 2,24,25
 1281 80 1281 80 1238 40 c 128,-1,26
 1195 0 1195 0 1135 0 c 2,27,-1
 1066 0 l 1,28,-1
 1066 -195 l 2,29,30
 1066 -211 1066 -211 1084 -222.5 c 128,-1,31
 1102 -234 1102 -234 1125 -234 c 0,32,33
 1141 -234 1141 -234 1152.5 -246 c 128,-1,34
 1164 -258 1164 -258 1164 -273 c 0,35,36
 1164 -289 1164 -289 1152.5 -301 c 128,-1,37
 1141 -313 1141 -313 1125 -313 c 0,38,39
 1107 -313 1107 -313 1076 -298 c 128,-1,40
 1045 -283 1045 -283 1027 -283 c 0,41,42
 1012 -283 1012 -283 983.5 -298 c 128,-1,43
 955 -313 955 -313 939 -313 c 0,44,45
 920 -313 920 -313 905.5 -301 c 128,-1,46
 891 -289 891 -289 891 -273 c 0,47,48
 891 -258 891 -258 905.5 -246 c 128,-1,49
 920 -234 920 -234 939 -234 c 0,50,51
 959 -234 959 -234 973.5 -222.5 c 128,-1,52
 988 -211 988 -211 988 -195 c 2,53,-1
 988 0 l 1,54,-1
 490 0 l 2,55,56
 471 0 471 0 456 11.5 c 128,-1,57
 441 23 441 23 441 39 c 256,58,59
 441 55 441 55 456 66.5 c 128,-1,60
 471 78 471 78 490 78 c 0,61,62
 510 78 510 78 524.5 90 c 128,-1,63
 539 102 539 102 539 117 c 2,64,-1
 539 645 l 2,65,66
 539 668 539 668 521.5 685.5 c 128,-1,67
 504 703 504 703 480 703 c 2,68,-1
 227 703 l 2,69,70
 203 703 203 703 185.5 685.5 c 128,-1,71
 168 668 168 668 168 645 c 2,72,-1
 168 449 l 1,73,74
 176 459 176 459 193.5 464 c 128,-1,75
 211 469 211 469 236 469 c 0,76,77
 297 469 297 469 340 429 c 128,-1,78
 383 389 383 389 383 332 c 2,79,-1
 383 137 l 2,80,81
 383 80 383 80 340 40 c 128,-1,82
 297 0 297 0 236 0 c 0,83,84
 176 0 176 0 133 40 c 128,-1,85
 90 80 90 80 90 137 c 2,86,-1
 90 645 l 2,87,88
 90 701 90 701 130 741 c 128,-1,89
 170 781 170 781 227 781 c 2,0,-1
305 332 m 2,90,91
 305 355 305 355 284.5 373 c 128,-1,92
 264 391 264 391 236 391 c 0,93,94
 209 391 209 391 188.5 373 c 128,-1,95
 168 355 168 355 168 332 c 2,96,-1
 168 137 l 2,97,98
 168 113 168 113 188.5 95.5 c 128,-1,99
 209 78 209 78 236 78 c 0,100,101
 264 78 264 78 284.5 95.5 c 128,-1,102
 305 113 305 113 305 137 c 2,103,-1
 305 332 l 2,90,91
920 703 m 256,104,105
 893 703 893 703 872.5 685.5 c 128,-1,106
 852 668 852 668 852 645 c 2,107,-1
 852 449 l 2,108,109
 852 426 852 426 872.5 408.5 c 128,-1,110
 893 391 893 391 920 391 c 2,111,-1
 988 391 l 1,112,-1
 988 645 l 2,113,114
 988 668 988 668 967.5 685.5 c 128,-1,115
 947 703 947 703 920 703 c 256,104,105
1135 312 m 2,116,-1
 1066 312 l 1,117,-1
 1066 78 l 1,118,-1
 1135 78 l 2,119,120
 1162 78 1162 78 1182.5 95.5 c 128,-1,121
 1203 113 1203 113 1203 137 c 2,122,-1
 1203 254 l 2,123,124
 1203 277 1203 277 1182.5 294.5 c 128,-1,125
 1162 312 1162 312 1135 312 c 2,116,-1
EndSplineSet
EndChar

StartChar: tm_sa
Encoding: 3000 3000 82
Width: 1215
GlyphClass: 2
Flags: W
LayerCount: 2
Fore
SplineSet
227 781 m 2,0,-1
 451 781 l 2,1,2
 488 781 488 781 516.5 765.5 c 128,-1,3
 545 750 545 750 559 723 c 1,4,5
 574 750 574 750 600.5 765.5 c 128,-1,6
 627 781 627 781 656 781 c 2,7,-1
 734 781 l 2,8,9
 791 781 791 781 831 741 c 128,-1,10
 871 701 871 701 871 645 c 2,11,-1
 871 137 l 2,12,13
 871 113 871 113 891.5 95.5 c 128,-1,14
 912 78 912 78 939 78 c 2,15,-1
 988 78 l 1,16,17
 1014 82 1014 82 1030.5 98.5 c 128,-1,18
 1047 115 1047 115 1047 137 c 2,19,-1
 1047 664 l 2,20,21
 1047 680 1047 680 1029.5 691.5 c 128,-1,22
 1012 703 1012 703 988 703 c 0,23,24
 969 703 969 703 954 715 c 128,-1,25
 939 727 939 727 939 742 c 0,26,27
 939 758 939 758 954 769.5 c 128,-1,28
 969 781 969 781 988 781 c 2,29,-1
 1027 781 l 1,30,31
 1070 773 1070 773 1097.5 740 c 128,-1,32
 1125 707 1125 707 1125 664 c 2,33,-1
 1125 137 l 2,34,35
 1125 80 1125 80 1085 40 c 128,-1,36
 1045 0 1045 0 988 0 c 2,37,-1
 939 0 l 2,38,39
 879 0 879 0 836 40 c 128,-1,40
 793 80 793 80 793 137 c 2,41,-1
 793 645 l 2,42,43
 793 668 793 668 775.5 685.5 c 128,-1,44
 758 703 758 703 734 703 c 2,45,-1
 656 703 l 2,46,47
 633 703 633 703 615.5 685.5 c 128,-1,48
 598 668 598 668 598 645 c 2,49,-1
 598 117 l 2,50,51
 598 102 598 102 615.5 90 c 128,-1,52
 633 78 633 78 656 78 c 0,53,54
 672 78 672 78 683.5 66.5 c 128,-1,55
 695 55 695 55 695 39 c 256,56,57
 695 23 695 23 686.5 11.5 c 128,-1,58
 678 0 678 0 666 0 c 0,59,60
 646 0 646 0 612 14.5 c 128,-1,61
 578 29 578 29 559 29 c 0,62,63
 539 29 539 29 505 14.5 c 128,-1,64
 471 0 471 0 451 0 c 0,65,66
 439 0 439 0 430.5 11.5 c 128,-1,67
 422 23 422 23 422 39 c 256,68,69
 422 55 422 55 433.5 66.5 c 128,-1,70
 445 78 445 78 461 78 c 0,71,72
 484 78 484 78 502 90 c 128,-1,73
 520 102 520 102 520 117 c 2,74,-1
 520 635 l 2,75,76
 520 662 520 662 499.5 682.5 c 128,-1,77
 479 703 479 703 451 703 c 2,78,-1
 227 703 l 2,79,80
 203 703 203 703 185.5 685.5 c 128,-1,81
 168 668 168 668 168 645 c 2,82,-1
 168 449 l 1,83,84
 180 459 180 459 197.5 464 c 128,-1,85
 215 469 215 469 236 469 c 0,86,87
 297 469 297 469 340 429 c 128,-1,88
 383 389 383 389 383 332 c 2,89,-1
 383 137 l 2,90,91
 383 74 383 74 343 37 c 128,-1,92
 303 0 303 0 236 0 c 0,93,94
 170 0 170 0 130 37 c 128,-1,95
 90 74 90 74 90 137 c 2,96,-1
 90 645 l 2,97,98
 90 701 90 701 130 741 c 128,-1,99
 170 781 170 781 227 781 c 2,0,-1
236 391 m 0,100,101
 209 391 209 391 188.5 373 c 128,-1,102
 168 355 168 355 168 332 c 2,103,-1
 168 137 l 2,104,105
 168 113 168 113 188.5 95.5 c 128,-1,106
 209 78 209 78 236 78 c 0,107,108
 264 78 264 78 284.5 95.5 c 128,-1,109
 305 113 305 113 305 137 c 2,110,-1
 305 332 l 2,111,112
 305 355 305 355 284.5 373 c 128,-1,113
 264 391 264 391 236 391 c 0,100,101
EndSplineSet
EndChar

StartChar: tm_ha
Encoding: 3001 3001 83
Width: 1453
GlyphClass: 2
Flags: W
LayerCount: 2
Fore
SplineSet
227 781 m 2,0,-1
 480 781 l 2,1,2
 537 781 537 781 577 741 c 128,-1,3
 617 701 617 701 617 645 c 2,4,-1
 617 78 l 1,5,-1
 725 78 l 2,6,7
 744 78 744 78 758.5 90 c 128,-1,8
 773 102 773 102 773 117 c 2,9,-1
 773 645 l 2,10,11
 773 701 773 701 813.5 741 c 128,-1,12
 854 781 854 781 910 781 c 2,13,-1
 969 781 l 2,14,15
 1000 781 1000 781 1025.5 771.5 c 128,-1,16
 1051 762 1051 762 1066 742 c 1,17,18
 1082 762 1082 762 1107.5 771.5 c 128,-1,19
 1133 781 1133 781 1164 781 c 2,20,-1
 1223 781 l 2,21,22
 1279 781 1279 781 1319 741 c 128,-1,23
 1359 701 1359 701 1359 645 c 2,24,-1
 1359 59 l 2,25,26
 1359 -39 1359 -39 1288 -107.5 c 128,-1,27
 1217 -176 1217 -176 1115 -176 c 2,28,-1
 139 -176 l 2,29,30
 115 -176 115 -176 97.5 -190.5 c 128,-1,31
 80 -205 80 -205 80 -225 c 2,32,-1
 80 -332 l 2,33,34
 80 -352 80 -352 68.5 -366.5 c 128,-1,35
 57 -381 57 -381 41 -381 c 256,36,37
 25 -381 25 -381 13.5 -366.5 c 128,-1,38
 2 -352 2 -352 2 -332 c 2,39,-1
 2 -225 l 2,40,41
 2 -172 2 -172 42 -135 c 128,-1,42
 82 -98 82 -98 139 -98 c 2,43,-1
 1115 -98 l 2,44,45
 1184 -98 1184 -98 1232.5 -52 c 128,-1,46
 1281 -6 1281 -6 1281 59 c 2,47,-1
 1281 645 l 2,48,49
 1281 668 1281 668 1263.5 685.5 c 128,-1,50
 1246 703 1246 703 1223 703 c 2,51,-1
 1164 703 l 2,52,53
 1141 703 1141 703 1123 685.5 c 128,-1,54
 1105 668 1105 668 1105 645 c 2,55,-1
 1105 49 l 2,56,57
 1105 29 1105 29 1093.5 14.5 c 128,-1,58
 1082 0 1082 0 1066 0 c 0,59,60
 1051 0 1051 0 1039 14.5 c 128,-1,61
 1027 29 1027 29 1027 49 c 2,62,-1
 1027 645 l 2,63,64
 1027 668 1027 668 1009.5 685.5 c 128,-1,65
 992 703 992 703 969 703 c 2,66,-1
 910 703 l 2,67,68
 887 703 887 703 869.5 685.5 c 128,-1,69
 852 668 852 668 852 645 c 2,70,-1
 852 117 l 2,71,72
 852 102 852 102 866.5 90 c 128,-1,73
 881 78 881 78 900 78 c 0,74,75
 916 78 916 78 927.5 66.5 c 128,-1,76
 939 55 939 55 939 39 c 256,77,78
 939 23 939 23 927.5 11.5 c 128,-1,79
 916 0 916 0 900 0 c 2,80,-1
 490 0 l 2,81,82
 471 0 471 0 456 11.5 c 128,-1,83
 441 23 441 23 441 39 c 256,84,85
 441 55 441 55 456 66.5 c 128,-1,86
 471 78 471 78 490 78 c 0,87,88
 510 78 510 78 524.5 90 c 128,-1,89
 539 102 539 102 539 117 c 2,90,-1
 539 645 l 2,91,92
 539 668 539 668 521.5 685.5 c 128,-1,93
 504 703 504 703 480 703 c 2,94,-1
 227 703 l 2,95,96
 203 703 203 703 185.5 685.5 c 128,-1,97
 168 668 168 668 168 645 c 2,98,-1
 168 449 l 1,99,100
 176 459 176 459 188.5 464 c 128,-1,101
 201 469 201 469 217 469 c 2,102,-1
 266 469 l 2,103,104
 314 469 314 469 348.5 429 c 128,-1,105
 383 389 383 389 383 332 c 2,106,-1
 383 137 l 2,107,108
 383 80 383 80 348.5 40 c 128,-1,109
 314 0 314 0 266 0 c 2,110,-1
 217 0 l 2,111,112
 164 0 164 0 127 40 c 128,-1,113
 90 80 90 80 90 137 c 2,114,-1
 90 645 l 2,115,116
 90 701 90 701 130 741 c 128,-1,117
 170 781 170 781 227 781 c 2,0,-1
305 332 m 2,118,119
 305 355 305 355 284.5 373 c 128,-1,120
 264 391 264 391 236 391 c 0,121,122
 209 391 209 391 188.5 373 c 128,-1,123
 168 355 168 355 168 332 c 2,124,-1
 168 137 l 2,125,126
 168 113 168 113 188.5 95.5 c 128,-1,127
 209 78 209 78 236 78 c 0,128,129
 264 78 264 78 284.5 95.5 c 128,-1,130
 305 113 305 113 305 137 c 2,131,-1
 305 332 l 2,118,119
EndSplineSet
EndChar

StartChar: tm_aakaar
Encoding: 3006 3006 84
Width: 621
GlyphClass: 2
Flags: W
LayerCount: 2
Fore
SplineSet
244 781 m 2,0,-1
 566 781 l 2,1,2
 582 781 582 781 593.5 769.5 c 128,-1,3
 605 758 605 758 605 742 c 0,4,5
 605 727 605 727 593.5 715 c 128,-1,6
 582 703 582 703 566 703 c 2,7,-1
 488 703 l 1,8,-1
 488 117 l 2,9,10
 488 102 488 102 505.5 90 c 128,-1,11
 523 78 523 78 547 78 c 0,12,13
 562 78 562 78 574 66.5 c 128,-1,14
 586 55 586 55 586 39 c 256,15,16
 586 23 586 23 574 11.5 c 128,-1,17
 562 0 562 0 547 0 c 0,18,19
 529 0 529 0 498 14.5 c 128,-1,20
 467 29 467 29 449 29 c 0,21,22
 432 29 432 29 400.5 14.5 c 128,-1,23
 369 0 369 0 352 0 c 0,24,25
 336 0 336 0 324 11.5 c 128,-1,26
 312 23 312 23 312 39 c 256,27,28
 312 55 312 55 324 66.5 c 128,-1,29
 336 78 336 78 352 78 c 0,30,31
 375 78 375 78 392.5 90 c 128,-1,32
 410 102 410 102 410 117 c 2,33,-1
 410 703 l 1,34,-1
 244 703 l 2,35,36
 221 703 221 703 203.5 685.5 c 128,-1,37
 186 668 186 668 186 645 c 2,38,-1
 186 117 l 2,39,40
 186 102 186 102 203.5 90 c 128,-1,41
 221 78 221 78 244 78 c 0,42,43
 260 78 260 78 271.5 66.5 c 128,-1,44
 283 55 283 55 283 39 c 256,45,46
 283 23 283 23 271.5 11.5 c 128,-1,47
 260 0 260 0 244 0 c 0,48,49
 227 0 227 0 195.5 14.5 c 128,-1,50
 164 29 164 29 146 29 c 0,51,52
 129 29 129 29 97.5 14.5 c 128,-1,53
 66 0 66 0 49 0 c 0,54,55
 33 0 33 0 21.5 11.5 c 128,-1,56
 10 23 10 23 10 39 c 256,57,58
 10 55 10 55 21.5 66.5 c 128,-1,59
 33 78 33 78 49 78 c 0,60,61
 72 78 72 78 89.5 90 c 128,-1,62
 107 102 107 102 107 117 c 2,63,-1
 107 645 l 2,64,65
 107 701 107 701 147 741 c 128,-1,66
 187 781 187 781 244 781 c 2,0,-1
EndSplineSet
EndChar

StartChar: tm_ikaar
Encoding: 3007 3007 85
Width: 918
GlyphClass: 2
Flags: W
LayerCount: 2
Fore
SplineSet
98 977 m 2,0,1
 98 1057 98 1057 155.5 1114.5 c 128,-1,2
 213 1172 213 1172 293 1172 c 2,3,-1
 508 1172 l 2,4,5
 598 1172 598 1172 660.5 1114.5 c 128,-1,6
 723 1057 723 1057 723 977 c 2,7,-1
 723 117 l 2,8,9
 723 102 723 102 740.5 90 c 128,-1,10
 758 78 758 78 781 78 c 0,11,12
 797 78 797 78 808.5 66.5 c 128,-1,13
 820 55 820 55 820 39 c 256,14,15
 820 23 820 23 808.5 11.5 c 128,-1,16
 797 0 797 0 781 0 c 0,17,18
 764 0 764 0 732.5 14.5 c 128,-1,19
 701 29 701 29 684 29 c 0,20,21
 666 29 666 29 635 14.5 c 128,-1,22
 604 0 604 0 586 0 c 0,23,24
 570 0 570 0 558.5 11.5 c 128,-1,25
 547 23 547 23 547 39 c 256,26,27
 547 55 547 55 558.5 66.5 c 128,-1,28
 570 78 570 78 586 78 c 0,29,30
 609 78 609 78 627 90 c 128,-1,31
 645 102 645 102 645 117 c 2,32,-1
 645 977 l 2,33,34
 645 1025 645 1025 604.5 1059.5 c 128,-1,35
 564 1094 564 1094 508 1094 c 2,36,-1
 293 1094 l 2,37,38
 244 1094 244 1094 210 1059.5 c 128,-1,39
 176 1025 176 1025 176 977 c 2,40,-1
 176 859 l 2,41,42
 176 844 176 844 185.5 824.5 c 128,-1,43
 195 805 195 805 215 781 c 1,44,-1
 137 781 l 1,45,46
 117 805 117 805 107.5 824.5 c 128,-1,47
 98 844 98 844 98 859 c 2,48,-1
 98 977 l 2,0,1
EndSplineSet
EndChar

StartChar: tm_iikaar
Encoding: 3008 3008 86
Width: 488
GlyphClass: 4
Flags: W
LayerCount: 2
Fore
SplineSet
244 1289 m 256,0,1
 217 1289 217 1289 196.5 1271.5 c 128,-1,2
 176 1254 176 1254 176 1230 c 2,3,-1
 176 1035 l 2,4,5
 176 1012 176 1012 196.5 994.5 c 128,-1,6
 217 977 217 977 244 977 c 256,7,8
 271 977 271 977 291.5 994.5 c 128,-1,9
 312 1012 312 1012 312 1035 c 2,10,-1
 312 1230 l 2,11,12
 312 1254 312 1254 291.5 1271.5 c 128,-1,13
 271 1289 271 1289 244 1289 c 256,0,1
98 1230 m 2,14,15
 98 1287 98 1287 141 1327 c 128,-1,16
 184 1367 184 1367 244 1367 c 0,17,18
 305 1367 305 1367 348 1327 c 128,-1,19
 391 1287 391 1287 391 1230 c 2,20,-1
 391 1035 l 2,21,22
 391 979 391 979 348 938.5 c 128,-1,23
 305 898 305 898 244 898 c 0,24,25
 223 898 223 898 205 906 c 128,-1,26
 187 914 187 914 176 928 c 1,27,-1
 176 879 l 2,28,29
 176 852 176 852 191.5 825.5 c 128,-1,30
 207 799 207 799 234 781 c 1,31,-1
 146 781 l 1,32,33
 123 801 123 801 110.5 826.5 c 128,-1,34
 98 852 98 852 98 879 c 2,35,-1
 98 1230 l 2,14,15
EndSplineSet
EndChar

StartChar: tm_ukaar
Encoding: 3009 3009 87
Width: 555
GlyphClass: 4
Flags: W
LayerCount: 2
Fore
SplineSet
-246 781 m 2,0,-1
 359 781 l 2,1,2
 420 781 420 781 463 741 c 128,-1,3
 506 701 506 701 506 645 c 2,4,-1
 506 459 l 2,5,6
 506 398 506 398 463 355 c 128,-1,7
 420 312 420 312 359 312 c 0,8,9
 299 312 299 312 256 355 c 128,-1,10
 213 398 213 398 213 459 c 2,11,-1
 213 645 l 2,12,13
 213 664 213 664 218 679.5 c 128,-1,14
 223 695 223 695 232 703 c 1,15,-1
 -236 703 l 2,16,17
 -256 703 -256 703 -270.5 715 c 128,-1,18
 -285 727 -285 727 -285 742 c 0,19,20
 -285 758 -285 758 -273.5 769.5 c 128,-1,21
 -262 781 -262 781 -246 781 c 2,0,-1
359 703 m 0,22,23
 332 703 332 703 311.5 685.5 c 128,-1,24
 291 668 291 668 291 645 c 2,25,-1
 291 459 l 2,26,27
 291 436 291 436 311.5 418 c 128,-1,28
 332 400 332 400 359 400 c 0,29,30
 387 400 387 400 407.5 418 c 128,-1,31
 428 436 428 436 428 459 c 2,32,-1
 428 645 l 2,33,34
 428 668 428 668 407.5 685.5 c 128,-1,35
 387 703 387 703 359 703 c 0,22,23
EndSplineSet
EndChar

StartChar: tm_uukaar
Encoding: 3010 3010 88
Width: 924
GlyphClass: 4
Flags: W
LayerCount: 2
Fore
SplineSet
350 1074 m 2,0,-1
 721 1074 l 2,1,2
 777 1074 777 1074 817 1034 c 128,-1,3
 857 994 857 994 857 937 c 2,4,-1
 857 371 l 2,5,6
 857 281 857 281 792 218.5 c 128,-1,7
 727 156 727 156 633 156 c 2,8,-1
 486 156 l 2,9,10
 471 156 471 156 459 168 c 128,-1,11
 447 180 447 180 447 195 c 0,12,13
 447 211 447 211 456 222.5 c 128,-1,14
 465 234 465 234 477 234 c 2,15,-1
 633 234 l 2,16,17
 693 234 693 234 736 274 c 128,-1,18
 779 314 779 314 779 371 c 2,19,-1
 779 937 l 2,20,21
 779 961 779 961 761.5 978.5 c 128,-1,22
 744 996 744 996 721 996 c 2,23,-1
 350 996 l 2,24,25
 326 996 326 996 308.5 978.5 c 128,-1,26
 291 961 291 961 291 937 c 2,27,-1
 291 781 l 1,28,-1
 359 781 l 2,29,30
 420 781 420 781 463 741 c 128,-1,31
 506 701 506 701 506 645 c 2,32,-1
 506 449 l 2,33,34
 506 393 506 393 463 352.5 c 128,-1,35
 420 312 420 312 359 312 c 0,36,37
 299 312 299 312 256 352.5 c 128,-1,38
 213 393 213 393 213 449 c 2,39,-1
 213 703 l 1,40,-1
 -236 703 l 2,41,42
 -256 703 -256 703 -270.5 715 c 128,-1,43
 -285 727 -285 727 -285 742 c 0,44,45
 -285 758 -285 758 -273.5 769.5 c 128,-1,46
 -262 781 -262 781 -246 781 c 2,47,-1
 213 781 l 1,48,-1
 213 937 l 2,49,50
 213 994 213 994 253 1034 c 128,-1,51
 293 1074 293 1074 350 1074 c 2,0,-1
359 703 m 2,52,-1
 291 703 l 1,53,-1
 291 449 l 2,54,55
 291 426 291 426 311.5 408.5 c 128,-1,56
 332 391 332 391 359 391 c 0,57,58
 387 391 387 391 407.5 408.5 c 128,-1,59
 428 426 428 426 428 449 c 2,60,-1
 428 645 l 2,61,62
 428 668 428 668 407.5 685.5 c 128,-1,63
 387 703 387 703 359 703 c 2,52,-1
EndSplineSet
EndChar

StartChar: tm_ekaar
Encoding: 3014 3014 89
Width: 961
GlyphClass: 2
Flags: W
LayerCount: 2
Fore
SplineSet
287 1367 m 2,0,-1
 658 1367 l 2,1,2
 738 1367 738 1367 796 1309.5 c 128,-1,3
 854 1252 854 1252 854 1172 c 2,4,-1
 854 117 l 2,5,6
 854 102 854 102 871.5 90 c 128,-1,7
 889 78 889 78 912 78 c 0,8,9
 928 78 928 78 939.5 66.5 c 128,-1,10
 951 55 951 55 951 39 c 256,11,12
 951 23 951 23 942.5 11.5 c 128,-1,13
 934 0 934 0 922 0 c 0,14,15
 902 0 902 0 868 14.5 c 128,-1,16
 834 29 834 29 814 29 c 0,17,18
 795 29 795 29 761 14.5 c 128,-1,19
 727 0 727 0 707 0 c 0,20,21
 695 0 695 0 686.5 11.5 c 128,-1,22
 678 23 678 23 678 39 c 256,23,24
 678 55 678 55 689.5 66.5 c 128,-1,25
 701 78 701 78 717 78 c 0,26,27
 740 78 740 78 757.5 90 c 128,-1,28
 775 102 775 102 775 117 c 2,29,-1
 775 1172 l 2,30,31
 775 1221 775 1221 741 1255 c 128,-1,32
 707 1289 707 1289 658 1289 c 2,33,-1
 287 1289 l 2,34,35
 238 1289 238 1289 204 1255 c 128,-1,36
 170 1221 170 1221 170 1172 c 2,37,-1
 170 156 l 1,38,39
 176 123 176 123 201.5 100.5 c 128,-1,40
 227 78 227 78 258 78 c 2,41,-1
 355 78 l 1,42,43
 342 90 342 90 334 105.5 c 128,-1,44
 326 121 326 121 326 137 c 2,45,-1
 326 332 l 2,46,47
 326 389 326 389 369 429 c 128,-1,48
 412 469 412 469 473 469 c 0,49,50
 533 469 533 469 576 429 c 128,-1,51
 619 389 619 389 619 332 c 2,52,-1
 619 137 l 2,53,54
 619 80 619 80 576 40 c 128,-1,55
 533 0 533 0 473 0 c 2,56,-1
 258 0 l 2,57,58
 189 0 189 0 140.5 46 c 128,-1,59
 92 92 92 92 92 156 c 2,60,-1
 92 1172 l 2,61,62
 92 1252 92 1252 149.5 1309.5 c 128,-1,63
 207 1367 207 1367 287 1367 c 2,0,-1
473 391 m 0,64,65
 445 391 445 391 424.5 373 c 128,-1,66
 404 355 404 355 404 332 c 2,67,-1
 404 137 l 2,68,69
 404 113 404 113 424.5 95.5 c 128,-1,70
 445 78 445 78 473 78 c 0,71,72
 500 78 500 78 520.5 95.5 c 128,-1,73
 541 113 541 113 541 137 c 2,74,-1
 541 332 l 2,75,76
 541 355 541 355 520.5 373 c 128,-1,77
 500 391 500 391 473 391 c 0,64,65
EndSplineSet
EndChar

StartChar: tm_eekaar
Encoding: 3015 3015 90
Width: 666
GlyphClass: 2
Flags: W
LayerCount: 2
Fore
SplineSet
246 1367 m 2,0,-1
 471 1367 l 2,1,2
 531 1367 531 1367 574 1327 c 128,-1,3
 617 1287 617 1287 617 1230 c 2,4,-1
 617 1035 l 2,5,6
 617 979 617 979 574 938.5 c 128,-1,7
 531 898 531 898 471 898 c 0,8,9
 410 898 410 898 367 938.5 c 128,-1,10
 324 979 324 979 324 1035 c 2,11,-1
 324 1230 l 2,12,13
 324 1246 324 1246 332 1261.5 c 128,-1,14
 340 1277 340 1277 354 1289 c 1,15,-1
 246 1289 l 2,16,17
 213 1289 213 1289 190.5 1260.5 c 128,-1,18
 168 1232 168 1232 168 1191 c 2,19,-1
 168 176 l 2,20,21
 168 135 168 135 193.5 106.5 c 128,-1,22
 219 78 219 78 256 78 c 2,23,-1
 354 78 l 1,24,25
 338 100 338 100 331 114.5 c 128,-1,26
 324 129 324 129 324 137 c 2,27,-1
 324 332 l 2,28,29
 324 389 324 389 367 429 c 128,-1,30
 410 469 410 469 471 469 c 0,31,32
 531 469 531 469 574 429 c 128,-1,33
 617 389 617 389 617 332 c 2,34,-1
 617 137 l 2,35,36
 617 80 617 80 574 40 c 128,-1,37
 531 0 531 0 471 0 c 2,38,-1
 256 0 l 2,39,40
 187 0 187 0 138.5 52 c 128,-1,41
 90 104 90 104 90 176 c 2,42,-1
 90 1191 l 2,43,44
 90 1264 90 1264 136 1315.5 c 128,-1,45
 182 1367 182 1367 246 1367 c 2,0,-1
471 1289 m 0,46,47
 443 1289 443 1289 422.5 1271.5 c 128,-1,48
 402 1254 402 1254 402 1230 c 2,49,-1
 402 1035 l 2,50,51
 402 1012 402 1012 422.5 994.5 c 128,-1,52
 443 977 443 977 471 977 c 0,53,54
 498 977 498 977 518.5 994.5 c 128,-1,55
 539 1012 539 1012 539 1035 c 2,56,-1
 539 1230 l 2,57,58
 539 1254 539 1254 518.5 1271.5 c 128,-1,59
 498 1289 498 1289 471 1289 c 0,46,47
471 391 m 0,60,61
 443 391 443 391 422.5 373 c 128,-1,62
 402 355 402 355 402 332 c 2,63,-1
 402 137 l 2,64,65
 402 113 402 113 422.5 95.5 c 128,-1,66
 443 78 443 78 471 78 c 0,67,68
 498 78 498 78 518.5 95.5 c 128,-1,69
 539 113 539 113 539 137 c 2,70,-1
 539 332 l 2,71,72
 539 355 539 355 518.5 373 c 128,-1,73
 498 391 498 391 471 391 c 0,60,61
EndSplineSet
EndChar

StartChar: tm_aikaar
Encoding: 3016 3016 91
Width: 1148
GlyphClass: 2
Flags: W
LayerCount: 2
Fore
SplineSet
281 781 m 2,0,-1
 457 781 l 2,1,2
 498 781 498 781 546 763.5 c 128,-1,3
 594 746 594 746 643 713 c 1,4,5
 691 746 691 746 744 763.5 c 128,-1,6
 797 781 797 781 848 781 c 0,7,8
 937 781 937 781 999.5 729.5 c 128,-1,9
 1062 678 1062 678 1062 605 c 2,10,-1
 1062 117 l 2,11,12
 1062 68 1062 68 1025 34 c 128,-1,13
 988 0 988 0 936 0 c 2,14,-1
 906 0 l 2,15,16
 887 0 887 0 872 11.5 c 128,-1,17
 857 23 857 23 857 39 c 256,18,19
 857 55 857 55 869 66.5 c 128,-1,20
 881 78 881 78 896 78 c 2,21,-1
 936 78 l 2,22,23
 955 78 955 78 969.5 90 c 128,-1,24
 984 102 984 102 984 117 c 2,25,-1
 984 605 l 2,26,27
 984 646 984 646 944 674.5 c 128,-1,28
 904 703 904 703 848 703 c 0,29,30
 812 703 812 703 779 693.5 c 128,-1,31
 746 684 746 684 721 664 c 1,32,33
 762 629 762 629 785.5 588 c 128,-1,34
 809 547 809 547 809 508 c 2,35,-1
 809 137 l 2,36,37
 809 80 809 80 766 40 c 128,-1,38
 723 0 723 0 662 0 c 2,39,-1
 623 0 l 2,40,41
 562 0 562 0 519.5 40 c 128,-1,42
 477 80 477 80 477 137 c 2,43,-1
 477 508 l 2,44,45
 477 547 477 547 500 588 c 128,-1,46
 523 629 523 629 564 664 c 1,47,48
 539 684 539 684 510.5 693.5 c 128,-1,49
 482 703 482 703 457 703 c 2,50,-1
 281 703 l 2,51,52
 232 703 232 703 198 674.5 c 128,-1,53
 164 646 164 646 164 605 c 2,54,-1
 164 449 l 1,55,56
 176 459 176 459 193.5 464 c 128,-1,57
 211 469 211 469 232 469 c 0,58,59
 293 469 293 469 336 429 c 128,-1,60
 379 389 379 389 379 332 c 2,61,-1
 379 137 l 2,62,63
 379 80 379 80 336 40 c 128,-1,64
 293 0 293 0 232 0 c 0,65,66
 172 0 172 0 129 40 c 128,-1,67
 86 80 86 80 86 137 c 2,68,-1
 86 605 l 2,69,70
 86 678 86 678 143.5 729.5 c 128,-1,71
 201 781 201 781 281 781 c 2,0,-1
232 391 m 0,72,73
 205 391 205 391 184.5 373 c 128,-1,74
 164 355 164 355 164 332 c 2,75,-1
 164 137 l 2,76,77
 164 113 164 113 184.5 95.5 c 128,-1,78
 205 78 205 78 232 78 c 0,79,80
 260 78 260 78 280.5 95.5 c 128,-1,81
 301 113 301 113 301 137 c 2,82,-1
 301 332 l 2,83,84
 301 355 301 355 280.5 373 c 128,-1,85
 260 391 260 391 232 391 c 0,72,73
643 645 m 1,86,87
 602 609 602 609 578.5 573 c 128,-1,88
 555 537 555 537 555 508 c 2,89,-1
 555 137 l 2,90,91
 555 113 555 113 575.5 95.5 c 128,-1,92
 596 78 596 78 623 78 c 2,93,-1
 662 78 l 2,94,95
 689 78 689 78 709.5 95.5 c 128,-1,96
 730 113 730 113 730 137 c 2,97,-1
 730 508 l 2,98,99
 730 537 730 537 707 573 c 128,-1,100
 684 609 684 609 643 645 c 1,86,87
EndSplineSet
EndChar

StartChar: tm_halant
Encoding: 3021 3021 95
Width: 430
GlyphClass: 4
Flags: W
LayerCount: 2
Fore
SplineSet
254 1113 m 2,0,1
 277 1113 277 1113 294.5 1095.5 c 128,-1,2
 312 1078 312 1078 312 1055 c 2,3,-1
 312 977 l 2,4,5
 312 953 312 953 291.5 935.5 c 128,-1,6
 271 918 271 918 244 918 c 2,7,-1
 186 918 l 2,8,9
 158 918 158 918 137.5 935.5 c 128,-1,10
 117 953 117 953 117 977 c 2,11,-1
 117 1055 l 2,12,13
 117 1078 117 1078 134.5 1095.5 c 128,-1,14
 152 1113 152 1113 176 1113 c 2,15,-1
 254 1113 l 2,0,1
EndSplineSet
EndChar

StartChar: tm_two
Encoding: 3048 3048 98
Width: 1425
GlyphClass: 2
Flags: W
LayerCount: 2
Fore
SplineSet
1244 70 m 1,0,-1
 1226 0 l 1,1,-1
 586 0 l 2,2,3
 429 0 429 0 429 106 c 0,4,5
 429 153 429 153 478 181.5 c 128,-1,6
 527 210 527 210 586 210 c 2,7,-1
 779 210 l 2,8,9
 867 210 867 210 928 271.5 c 128,-1,10
 989 333 989 333 989 420 c 0,11,12
 989 500 989 500 945 560.5 c 128,-1,13
 901 621 901 621 831 621 c 0,14,15
 793 621 793 621 744 595 c 1,16,17
 814 555 814 555 814 437 c 0,18,19
 814 382 814 382 772.5 344.5 c 128,-1,20
 731 307 731 307 675 307 c 0,21,22
 618 307 618 307 580 351 c 128,-1,23
 542 395 542 395 542 455 c 0,24,25
 542 565 542 565 646.5 632.5 c 128,-1,26
 751 700 751 700 884 700 c 0,27,28
 987 700 987 700 1058 629 c 128,-1,29
 1129 558 1129 558 1129 455 c 0,30,31
 1129 321 1129 321 1025.5 230.5 c 128,-1,32
 922 140 922 140 779 140 c 2,33,-1
 595 140 l 2,34,35
 551 140 551 140 551 106 c 0,36,37
 551 70 551 70 604 70 c 2,38,-1
 1244 70 l 1,0,-1
675 560 m 1,39,40
 621 516 621 516 621 473 c 0,41,42
 621 386 621 386 666 386 c 0,43,44
 709 386 709 386 709 473 c 0,45,46
 709 518 709 518 675 560 c 1,39,40
EndSplineSet
EndChar

StartChar: tm_three
Encoding: 3049 3049 99
Width: 1424
GlyphClass: 2
Flags: W
LayerCount: 2
Fore
SplineSet
1270 70 m 1,0,-1
 1252 0 l 1,1,-1
 640 0 l 1,2,-1
 657 70 l 1,3,-1
 780 70 l 2,4,5
 874 70 874 70 941 130.5 c 128,-1,6
 1008 191 1008 191 1008 280 c 0,7,8
 1008 317 1008 317 982.5 342.5 c 128,-1,9
 957 368 957 368 920 368 c 0,10,11
 890 368 890 368 865 341 c 128,-1,12
 840 314 840 314 833 280 c 2,13,-1
 815 193 l 1,14,-1
 675 193 l 1,15,-1
 764 630 l 1,16,-1
 571 630 l 1,17,-1
 444 0 l 1,18,-1
 378 0 l 1,19,-1
 517 700 l 1,20,-1
 1095 700 l 1,21,-1
 1077 630 l 1,22,-1
 902 630 l 1,23,-1
 859 403 l 1,24,25
 918 455 918 455 990 455 c 0,26,27
 1057 455 1057 455 1102.5 403.5 c 128,-1,28
 1148 352 1148 352 1148 280 c 0,29,30
 1148 209 1148 209 1090 151 c 128,-1,31
 1032 93 1032 93 947 70 c 1,32,-1
 1270 70 l 1,0,-1
EndSplineSet
EndChar

StartChar: tm_four
Encoding: 3050 3050 100
Width: 605
GlyphClass: 2
Flags: W
LayerCount: 2
Fore
SplineSet
55 137 m 2,0,-1
 55 361 l 2,1,2
 55 406 55 406 81 444 c 128,-1,3
 107 482 107 482 152 498 c 1,4,-1
 152 664 l 2,5,6
 152 713 152 713 189.5 747 c 128,-1,7
 227 781 227 781 279 781 c 2,8,-1
 543 781 l 2,9,10
 562 781 562 781 577 769.5 c 128,-1,11
 592 758 592 758 592 742 c 0,12,13
 592 727 592 727 577 715 c 128,-1,14
 562 703 562 703 543 703 c 2,15,-1
 406 703 l 1,16,-1
 406 498 l 1,17,-1
 533 498 l 2,18,19
 549 498 549 498 560.5 486.5 c 128,-1,20
 572 475 572 475 572 459 c 256,21,22
 572 443 572 443 560.5 431.5 c 128,-1,23
 549 420 549 420 533 420 c 2,24,-1
 406 420 l 1,25,-1
 406 137 l 2,26,27
 406 80 406 80 366 40 c 128,-1,28
 326 0 326 0 270 0 c 2,29,-1
 191 0 l 2,30,31
 135 0 135 0 95 40 c 128,-1,32
 55 80 55 80 55 137 c 2,0,-1
279 703 m 2,33,34
 260 703 260 703 245 691.5 c 128,-1,35
 230 680 230 680 230 664 c 2,36,-1
 230 498 l 1,37,-1
 328 498 l 1,38,-1
 328 703 l 1,39,-1
 279 703 l 2,33,34
201 420 m 2,40,41
 174 420 174 420 153.5 402.5 c 128,-1,42
 133 385 133 385 133 361 c 2,43,-1
 133 137 l 2,44,45
 133 113 133 113 153.5 95.5 c 128,-1,46
 174 78 174 78 201 78 c 2,47,-1
 260 78 l 2,48,49
 287 78 287 78 307.5 95.5 c 128,-1,50
 328 113 328 113 328 137 c 2,51,-1
 328 420 l 1,52,-1
 201 420 l 2,40,41
EndSplineSet
EndChar

StartChar: tm_five
Encoding: 3051 3051 101
Width: 1424
GlyphClass: 2
Flags: W
LayerCount: 2
Fore
SplineSet
1412 517 m 1,0,-1
 1359 526 l 1,1,2
 1369 563 1369 563 1369 598 c 0,3,4
 1369 723 1369 723 1253.5 825.5 c 128,-1,5
 1138 928 1138 928 965 928 c 0,6,7
 728 928 728 928 575.5 716 c 128,-1,8
 423 504 423 504 423 228 c 0,9,10
 423 -43 423 -43 515 -179.5 c 128,-1,11
 607 -316 607 -316 790 -316 c 0,12,13
 979 -316 979 -316 1103.5 -163.5 c 128,-1,14
 1228 -11 1228 -11 1228 193 c 0,15,16
 1228 257 1228 257 1200 304.5 c 128,-1,17
 1172 352 1172 352 1126 352 c 0,18,19
 1099 352 1099 352 1072.5 336.5 c 128,-1,20
 1046 321 1046 321 1039 298 c 2,21,-1
 980 0 l 1,22,-1
 840 0 l 1,23,-1
 965 630 l 1,24,-1
 759 630 l 1,25,-1
 634 0 l 1,26,-1
 566 0 l 1,27,-1
 706 700 l 1,28,-1
 1237 700 l 1,29,-1
 1219 630 l 1,30,-1
 1105 630 l 1,31,-1
 1057 386 l 1,32,33
 1101 437 1101 437 1171 437 c 0,34,35
 1261 437 1261 437 1314.5 368.5 c 128,-1,36
 1368 300 1368 300 1368 193 c 0,37,38
 1368 -47 1368 -47 1202.5 -216 c 128,-1,39
 1037 -385 1037 -385 799 -385 c 0,40,41
 589 -385 589 -385 471.5 -223 c 128,-1,42
 354 -61 354 -61 354 193 c 0,43,44
 354 513 354 513 519 764 c 128,-1,45
 684 1015 684 1015 948 1015 c 0,46,47
 1152 1015 1152 1015 1288.5 889.5 c 128,-1,48
 1425 764 1425 764 1425 613 c 0,49,50
 1425 566 1425 566 1412 517 c 1,0,-1
EndSplineSet
EndChar

StartChar: tm_six
Encoding: 3052 3052 102
Width: 1424
GlyphClass: 2
Flags: W
LayerCount: 2
Fore
SplineSet
784 316 m 1,0,-1
 513 316 l 2,1,2
 469 316 469 316 438 291 c 128,-1,3
 407 266 407 266 407 228 c 0,4,5
 407 158 407 158 477 114 c 128,-1,6
 547 70 547 70 635 70 c 0,7,8
 680 70 680 70 713 99.5 c 128,-1,9
 746 129 746 129 756 175 c 2,10,-1
 784 316 l 1,0,-1
846 630 m 1,11,-1
 653 630 l 1,12,-1
 603 386 l 1,13,-1
 798 386 l 1,14,-1
 846 630 l 1,11,-1
910 245 m 2,15,16
 884 125 884 125 808 62.5 c 128,-1,17
 732 0 732 0 635 0 c 0,18,19
 518 0 518 0 428 64 c 128,-1,20
 338 128 338 128 338 228 c 0,21,22
 338 294 338 294 389.5 340 c 128,-1,23
 441 386 441 386 513 386 c 2,24,-1
 537 386 l 1,25,-1
 600 700 l 1,26,-1
 1229 700 l 1,27,-1
 1213 630 l 1,28,-1
 988 630 l 1,29,-1
 938 386 l 1,30,-1
 1422 386 l 1,31,-1
 1410 316 l 1,32,-1
 1353 316 l 1,33,-1
 1291 0 l 1,34,-1
 1151 0 l 1,35,-1
 1213 316 l 1,36,-1
 1116 316 l 1,37,-1
 1055 0 l 1,38,-1
 967 0 l 1,39,-1
 1028 316 l 1,40,-1
 924 316 l 1,41,-1
 910 245 l 2,15,16
EndSplineSet
EndChar

StartChar: tm_seven
Encoding: 3053 3053 103
Width: 1425
GlyphClass: 2
Flags: W
LayerCount: 2
Fore
SplineSet
643 88 m 1,0,1
 706 88 706 88 753 128 c 128,-1,2
 800 168 800 168 800 228 c 0,3,4
 800 269 800 269 781 301 c 128,-1,5
 762 333 762 333 729 333 c 0,6,7
 684 333 684 333 654.5 296.5 c 128,-1,8
 625 260 625 260 625 210 c 0,9,10
 625 135 625 135 643 88 c 1,0,1
1042 0 m 1,11,-1
 1167 630 l 1,12,-1
 852 630 l 2,13,14
 704 630 704 630 594.5 540.5 c 128,-1,15
 485 451 485 451 485 316 c 0,16,17
 485 247 485 247 507 194.5 c 128,-1,18
 529 142 529 142 572 106 c 1,19,20
 555 135 555 135 555 228 c 256,21,22
 555 321 555 321 614.5 388 c 128,-1,23
 674 455 674 455 765 455 c 0,24,25
 837 455 837 455 884 398 c 128,-1,26
 931 341 931 341 931 263 c 0,27,28
 931 155 931 155 863 77.5 c 128,-1,29
 795 0 795 0 695 0 c 0,30,31
 576 0 576 0 495.5 94 c 128,-1,32
 415 188 415 188 415 316 c 0,33,34
 415 481 415 481 545.5 590.5 c 128,-1,35
 676 700 676 700 852 700 c 2,36,-1
 1430 700 l 1,37,-1
 1412 630 l 1,38,-1
 1307 630 l 1,39,-1
 1181 0 l 1,40,-1
 1042 0 l 1,11,-1
EndSplineSet
EndChar

StartChar: tm_eight
Encoding: 3054 3054 104
Width: 1427
GlyphClass: 2
Flags: W
LayerCount: 2
Fore
SplineSet
849 629 m 1,0,1
 745 611 745 611 670 548.5 c 128,-1,2
 595 486 595 486 595 402 c 0,3,4
 595 338 595 338 638.5 291 c 128,-1,5
 682 244 682 244 744 244 c 0,6,7
 817 244 817 244 864 307.5 c 128,-1,8
 911 371 911 371 911 454 c 0,9,10
 911 580 911 580 849 629 c 1,0,1
1024 140 m 1,11,-1
 411 140 l 2,12,13
 381 140 381 140 357 125 c 128,-1,14
 333 110 333 110 333 87 c 0,15,16
 333 43 333 43 412 -13.5 c 128,-1,17
 491 -70 491 -70 639 -70 c 0,18,19
 743 -70 743 -70 839.5 -18 c 128,-1,20
 936 34 936 34 1024 140 c 1,11,-1
1414 -245 m 1,21,-1
 1269 -245 l 1,22,-1
 1348 140 l 1,23,-1
 1164 140 l 1,24,25
 1051 4 1051 4 915 -63.5 c 128,-1,26
 779 -131 779 -131 621 -131 c 0,27,28
 421 -131 421 -131 311.5 -52.5 c 128,-1,29
 202 26 202 26 202 123 c 0,30,31
 202 160 202 160 233 184.5 c 128,-1,32
 264 209 264 209 307 209 c 2,33,-1
 666 209 l 1,34,35
 604 231 604 231 565 284.5 c 128,-1,36
 526 338 526 338 526 402 c 0,37,38
 526 534 526 534 652 617 c 128,-1,39
 778 700 778 700 937 700 c 0,40,41
 1069 700 1069 700 1169 620.5 c 128,-1,42
 1269 541 1269 541 1269 420 c 0,43,44
 1269 306 1269 306 1213 209 c 1,45,-1
 1364 209 l 1,46,-1
 1463 700 l 1,47,-1
 1603 700 l 1,48,-1
 1414 -245 l 1,21,-1
989 620 m 1,49,50
 1042 530 1042 530 1042 411 c 0,51,52
 1042 267 1042 267 919 209 c 1,53,-1
 1077 209 l 1,54,55
 1146 308 1146 308 1146 402 c 0,56,57
 1146 486 1146 486 1103 553 c 128,-1,58
 1060 620 1060 620 989 620 c 1,49,50
EndSplineSet
EndChar

StartChar: tm_nine
Encoding: 3055 3055 105
Width: 1427
GlyphClass: 2
Flags: W
LayerCount: 2
Fore
SplineSet
692 316 m 1,0,-1
 422 316 l 2,1,2
 379 316 379 316 348 291 c 128,-1,3
 317 266 317 266 317 228 c 0,4,5
 317 158 317 158 387 114 c 128,-1,6
 457 70 457 70 544 70 c 0,7,8
 589 70 589 70 622 99.5 c 128,-1,9
 655 129 655 129 665 175 c 2,10,-1
 692 316 l 1,0,-1
756 630 m 1,11,-1
 562 630 l 1,12,-1
 513 386 l 1,13,-1
 707 386 l 1,14,-1
 756 630 l 1,11,-1
1157 175 m 0,15,16
 1157 259 1157 259 1052 298 c 1,17,18
 982 240 982 240 982 158 c 0,19,20
 982 121 982 121 1007.5 95.5 c 128,-1,21
 1033 70 1033 70 1068 70 c 0,22,23
 1107 70 1107 70 1132 101.5 c 128,-1,24
 1157 133 1157 133 1157 175 c 0,15,16
1297 0 m 1,25,26
 1375 93 1375 93 1375 193 c 0,27,28
 1375 263 1375 263 1332.5 315.5 c 128,-1,29
 1290 368 1290 368 1226 368 c 0,30,31
 1163 368 1163 368 1113 342 c 1,32,33
 1167 322 1167 322 1201 276.5 c 128,-1,34
 1235 231 1235 231 1235 175 c 0,35,36
 1235 104 1235 104 1187 52 c 128,-1,37
 1139 0 1139 0 1068 0 c 0,38,39
 1005 0 1005 0 958.5 46.5 c 128,-1,40
 912 93 912 93 912 158 c 0,41,42
 912 257 912 257 982 316 c 1,43,-1
 833 316 l 1,44,-1
 819 245 l 2,45,46
 795 125 795 125 718.5 62.5 c 128,-1,47
 642 0 642 0 544 0 c 0,48,49
 428 0 428 0 337 64 c 128,-1,50
 246 128 246 128 246 228 c 0,51,52
 246 294 246 294 299 340 c 128,-1,53
 352 386 352 386 422 386 c 2,54,-1
 446 386 l 1,55,-1
 508 700 l 1,56,-1
 1122 700 l 1,57,-1
 1104 630 l 1,58,-1
 896 630 l 1,59,-1
 847 386 l 1,60,-1
 947 386 l 2,61,62
 1014 386 1014 386 1052 368 c 1,63,64
 1111 420 1111 420 1226 420 c 0,65,66
 1327 420 1327 420 1399.5 354.5 c 128,-1,67
 1472 289 1472 289 1472 193 c 0,68,69
 1472 109 1472 109 1410 0 c 1,70,-1
 1297 0 l 1,25,26
EndSplineSet
EndChar

StartChar: tm_ten
Encoding: 3056 3056 106
Width: 1021
GlyphClass: 2
Flags: W
LayerCount: 2
Fore
SplineSet
104 137 m 2,0,-1
 104 527 l 2,1,2
 104 543 104 543 89 554.5 c 128,-1,3
 74 566 74 566 55 566 c 0,4,5
 39 566 39 566 27.5 578 c 128,-1,6
 16 590 16 590 16 605 c 0,7,8
 16 621 16 621 27.5 633 c 128,-1,9
 39 645 39 645 55 645 c 0,10,11
 70 645 70 645 98.5 630 c 128,-1,12
 127 615 127 615 143 615 c 0,13,14
 158 615 158 615 186.5 630 c 128,-1,15
 215 645 215 645 230 645 c 0,16,17
 246 645 246 645 258 633 c 128,-1,18
 270 621 270 621 270 605 c 0,19,20
 270 590 270 590 258 578 c 128,-1,21
 246 566 246 566 230 566 c 0,22,23
 211 566 211 566 196.5 554.5 c 128,-1,24
 182 543 182 543 182 527 c 2,25,-1
 182 137 l 2,26,27
 182 113 182 113 202.5 95.5 c 128,-1,28
 223 78 223 78 250 78 c 0,29,30
 303 78 303 78 340 118 c 128,-1,31
 377 158 377 158 377 215 c 2,32,-1
 377 527 l 2,33,34
 377 543 377 543 362.5 554.5 c 128,-1,35
 348 566 348 566 328 566 c 0,36,37
 312 566 312 566 300.5 578 c 128,-1,38
 289 590 289 590 289 605 c 0,39,40
 289 621 289 621 300.5 633 c 128,-1,41
 312 645 312 645 328 645 c 256,42,43
 344 645 344 645 372 630 c 128,-1,44
 400 615 400 615 416 615 c 256,45,46
 432 615 432 615 460 630 c 128,-1,47
 488 645 488 645 504 645 c 256,48,49
 520 645 520 645 531.5 633 c 128,-1,50
 543 621 543 621 543 605 c 0,51,52
 543 590 543 590 531.5 578 c 128,-1,53
 520 566 520 566 504 566 c 0,54,55
 484 566 484 566 469.5 554.5 c 128,-1,56
 455 543 455 543 455 527 c 2,57,-1
 455 156 l 2,58,59
 455 123 455 123 475.5 100.5 c 128,-1,60
 496 78 496 78 523 78 c 2,61,-1
 787 78 l 2,62,63
 814 78 814 78 834.5 100.5 c 128,-1,64
 855 123 855 123 855 156 c 2,65,-1
 855 615 l 2,66,67
 855 652 855 652 827 677.5 c 128,-1,68
 799 703 799 703 758 703 c 2,69,-1
 445 703 l 2,70,71
 430 703 430 703 418 715 c 128,-1,72
 406 727 406 727 406 742 c 0,73,74
 406 758 406 758 418 769.5 c 128,-1,75
 430 781 430 781 445 781 c 2,76,-1
 777 781 l 2,77,78
 842 781 842 781 888 735 c 128,-1,79
 934 689 934 689 934 625 c 2,80,-1
 934 156 l 2,81,82
 934 92 934 92 891 46 c 128,-1,83
 848 0 848 0 787 0 c 2,84,-1
 523 0 l 2,85,86
 480 0 480 0 446 21.5 c 128,-1,87
 412 43 412 43 396 78 c 1,88,89
 371 41 371 41 333 20.5 c 128,-1,90
 295 0 295 0 250 0 c 0,91,92
 189 0 189 0 146.5 40 c 128,-1,93
 104 80 104 80 104 137 c 2,0,-1
EndSplineSet
EndChar

StartChar: tm_hundred
Encoding: 3057 3057 107
Width: 879
GlyphClass: 2
Flags: W
LayerCount: 2
Fore
SplineSet
107 645 m 2,0,1
 107 701 107 701 147 741 c 128,-1,2
 187 781 187 781 244 781 c 2,3,-1
 303 781 l 2,4,5
 332 781 332 781 358.5 765.5 c 128,-1,6
 385 750 385 750 400 723 c 1,7,8
 416 750 416 750 442.5 765.5 c 128,-1,9
 469 781 469 781 498 781 c 2,10,-1
 824 781 l 2,11,12
 840 781 840 781 851.5 769.5 c 128,-1,13
 863 758 863 758 863 742 c 0,14,15
 863 727 863 727 851.5 715 c 128,-1,16
 840 703 840 703 824 703 c 2,17,-1
 746 703 l 1,18,-1
 746 117 l 2,19,20
 746 102 746 102 763.5 90 c 128,-1,21
 781 78 781 78 805 78 c 0,22,23
 820 78 820 78 832 66.5 c 128,-1,24
 844 55 844 55 844 39 c 256,25,26
 844 23 844 23 832 11.5 c 128,-1,27
 820 0 820 0 805 0 c 0,28,29
 787 0 787 0 756 14.5 c 128,-1,30
 725 29 725 29 707 29 c 256,31,32
 689 29 689 29 658 14.5 c 128,-1,33
 627 0 627 0 609 0 c 0,34,35
 594 0 594 0 582 11.5 c 128,-1,36
 570 23 570 23 570 39 c 256,37,38
 570 55 570 55 582 66.5 c 128,-1,39
 594 78 594 78 609 78 c 0,40,41
 633 78 633 78 650.5 90 c 128,-1,42
 668 102 668 102 668 117 c 2,43,-1
 668 703 l 1,44,-1
 498 703 l 2,45,46
 475 703 475 703 457 685.5 c 128,-1,47
 439 668 439 668 439 645 c 2,48,-1
 439 39 l 2,49,50
 439 23 439 23 427.5 11.5 c 128,-1,51
 416 0 416 0 400 0 c 0,52,53
 385 0 385 0 373 11.5 c 128,-1,54
 361 23 361 23 361 39 c 2,55,-1
 361 645 l 2,56,57
 361 668 361 668 343.5 685.5 c 128,-1,58
 326 703 326 703 303 703 c 2,59,-1
 244 703 l 2,60,61
 221 703 221 703 203.5 685.5 c 128,-1,62
 186 668 186 668 186 645 c 2,63,-1
 186 117 l 2,64,65
 186 102 186 102 203.5 90 c 128,-1,66
 221 78 221 78 244 78 c 0,67,68
 260 78 260 78 271.5 66.5 c 128,-1,69
 283 55 283 55 283 39 c 256,70,71
 283 23 283 23 271.5 11.5 c 128,-1,72
 260 0 260 0 244 0 c 0,73,74
 227 0 227 0 195.5 14.5 c 128,-1,75
 164 29 164 29 146 29 c 0,76,77
 129 29 129 29 97.5 14.5 c 128,-1,78
 66 0 66 0 49 0 c 0,79,80
 33 0 33 0 21.5 11.5 c 128,-1,81
 10 23 10 23 10 39 c 256,82,83
 10 55 10 55 21.5 66.5 c 128,-1,84
 33 78 33 78 49 78 c 0,85,86
 72 78 72 78 89.5 90 c 128,-1,87
 107 102 107 102 107 117 c 2,88,-1
 107 645 l 2,0,1
EndSplineSet
EndChar

StartChar: tm_thousand
Encoding: 3058 3058 108
Width: 937
GlyphClass: 2
Flags: W
LayerCount: 2
Fore
SplineSet
61 410 m 2,0,1
 61 459 61 459 88 498 c 128,-1,2
 115 537 115 537 158 547 c 1,3,-1
 158 664 l 2,4,5
 158 713 158 713 195 747 c 128,-1,6
 232 781 232 781 285 781 c 2,7,-1
 588 781 l 2,8,9
 604 781 604 781 615.5 769.5 c 128,-1,10
 627 758 627 758 627 742 c 0,11,12
 627 727 627 727 615.5 715 c 128,-1,13
 604 703 604 703 588 703 c 2,14,-1
 412 703 l 1,15,-1
 412 547 l 1,16,-1
 744 547 l 2,17,18
 760 547 760 547 771.5 535 c 128,-1,19
 783 523 783 523 783 508 c 0,20,21
 783 492 783 492 771.5 480.5 c 128,-1,22
 760 469 760 469 744 469 c 2,23,-1
 646 469 l 1,24,-1
 646 303 l 1,25,26
 658 316 658 316 671 324 c 128,-1,27
 684 332 684 332 695 332 c 2,28,-1
 773 332 l 2,29,30
 826 332 826 332 863 286 c 128,-1,31
 900 240 900 240 900 176 c 2,32,-1
 900 39 l 2,33,34
 900 -51 900 -51 826 -113.5 c 128,-1,35
 752 -176 752 -176 646 -176 c 2,36,-1
 197 -176 l 2,37,38
 174 -176 174 -176 156.5 -193.5 c 128,-1,39
 139 -211 139 -211 139 -234 c 2,40,-1
 139 -352 l 2,41,42
 139 -371 139 -371 127 -385.5 c 128,-1,43
 115 -400 115 -400 100 -400 c 0,44,45
 84 -400 84 -400 72.5 -385.5 c 128,-1,46
 61 -371 61 -371 61 -352 c 2,47,-1
 61 -234 l 2,48,49
 61 -178 61 -178 103.5 -138 c 128,-1,50
 146 -98 146 -98 207 -98 c 2,51,-1
 656 -98 l 2,52,53
 725 -98 725 -98 773.5 -58 c 128,-1,54
 822 -18 822 -18 822 39 c 2,55,-1
 822 176 l 2,56,57
 822 205 822 205 808.5 227.5 c 128,-1,58
 795 250 795 250 773 254 c 1,59,-1
 695 254 l 2,60,61
 676 254 676 254 661 236.5 c 128,-1,62
 646 219 646 219 646 195 c 2,63,-1
 646 117 l 2,64,65
 646 102 646 102 664 90 c 128,-1,66
 682 78 682 78 705 78 c 0,67,68
 721 78 721 78 732.5 66.5 c 128,-1,69
 744 55 744 55 744 39 c 256,70,71
 744 23 744 23 732.5 11.5 c 128,-1,72
 721 0 721 0 705 0 c 0,73,74
 687 0 687 0 656 14.5 c 128,-1,75
 625 29 625 29 607 29 c 0,76,77
 590 29 590 29 558.5 14.5 c 128,-1,78
 527 0 527 0 510 0 c 0,79,80
 494 0 494 0 482.5 11.5 c 128,-1,81
 471 23 471 23 471 39 c 256,82,83
 471 55 471 55 482.5 66.5 c 128,-1,84
 494 78 494 78 510 78 c 0,85,86
 533 78 533 78 550.5 90 c 128,-1,87
 568 102 568 102 568 117 c 2,88,-1
 568 469 l 1,89,-1
 412 469 l 1,90,-1
 412 137 l 2,91,92
 412 80 412 80 369 40 c 128,-1,93
 326 0 326 0 266 0 c 2,94,-1
 207 0 l 2,95,96
 146 0 146 0 103.5 40 c 128,-1,97
 61 80 61 80 61 137 c 2,98,-1
 61 410 l 2,0,1
285 703 m 2,99,100
 266 703 266 703 251 691.5 c 128,-1,101
 236 680 236 680 236 664 c 2,102,-1
 236 547 l 1,103,-1
 334 547 l 1,104,-1
 334 703 l 1,105,-1
 285 703 l 2,99,100
207 469 m 2,106,107
 180 469 180 469 159.5 451.5 c 128,-1,108
 139 434 139 434 139 410 c 2,109,-1
 139 137 l 2,110,111
 139 113 139 113 159.5 95.5 c 128,-1,112
 180 78 180 78 207 78 c 2,113,-1
 266 78 l 2,114,115
 293 78 293 78 313.5 95.5 c 128,-1,116
 334 113 334 113 334 137 c 2,117,-1
 334 469 l 1,118,-1
 207 469 l 2,106,107
EndSplineSet
EndChar

StartChar: zerowidthnonjoiner
Encoding: 8204 8204 109
Width: 0
GlyphClass: 2
Flags: W
LayerCount: 2
Fore
SplineSet
315 1225 m 1,0,-1
 -34 -516 l 1,1,-1
 -103 -516 l 1,2,-1
 244 1225 l 1,3,-1
 315 1225 l 1,0,-1
EndSplineSet
EndChar

StartChar: zerowidthjoiner
Encoding: 8205 8205 110
Width: 0
GlyphClass: 2
Flags: W
LayerCount: 2
Fore
SplineSet
415 997 m 1,0,-1
 363 953 l 1,1,-1
 270 1073 l 1,2,-1
 -24 -441 l 1,3,-1
 -87 -441 l 1,4,-1
 206 1073 l 1,5,-1
 65 953 l 1,6,-1
 32 997 l 1,7,-1
 210 1145 l 1,8,-1
 89 1292 l 1,9,-1
 140 1334 l 1,10,-1
 260 1185 l 1,11,-1
 437 1334 l 1,12,-1
 472 1292 l 1,13,-1
 294 1145 l 1,14,-1
 415 997 l 1,0,-1
EndSplineSet
EndChar

StartChar: u2013
Encoding: 8211 8211 111
Width: 722
GlyphClass: 2
Flags: W
LayerCount: 2
Fore
SplineSet
733 319 m 1,0,-1
 -12 319 l 1,1,-1
 -12 370 l 1,2,-1
 733 370 l 1,3,-1
 733 319 l 1,0,-1
EndSplineSet
EndChar

StartChar: u2014
Encoding: 8212 8212 112
Width: 1284
GlyphClass: 2
Flags: W
LayerCount: 2
Fore
SplineSet
1296 318 m 1,0,-1
 -13 319 l 1,1,-1
 -13 371 l 1,2,-1
 1296 370 l 1,3,-1
 1296 318 l 1,0,-1
EndSplineSet
EndChar

StartChar: u2018
Encoding: 65539 -1 113
Width: 459
GlyphClass: 2
Flags: W
LayerCount: 2
Fore
SplineSet
186 508 m 0,0,1
 148 508 148 508 123 551 c 128,-1,2
 98 594 98 594 98 654 c 0,3,4
 98 781 98 781 154.5 899.5 c 128,-1,5
 211 1018 211 1018 312 1104 c 0,6,7
 320 1111 320 1111 332 1111 c 128,-1,8
 344 1111 344 1111 352 1104 c 0,9,10
 363 1094 363 1094 360 1076.5 c 128,-1,11
 357 1059 357 1059 342 1045 c 0,12,13
 270 992 270 992 225 923.5 c 128,-1,14
 180 855 180 855 166 781 c 1,15,16
 211 789 211 789 247 751 c 128,-1,17
 283 713 283 713 283 654 c 0,18,19
 283 594 283 594 255 551 c 128,-1,20
 227 508 227 508 186 508 c 0,0,1
EndSplineSet
EndChar

StartChar: u2019
Encoding: 65540 -1 114
Width: 461
GlyphClass: 2
Flags: W
LayerCount: 2
Fore
SplineSet
275 1045 m 0,0,1
 312 1045 312 1045 337.5 1005 c 128,-1,2
 363 965 363 965 363 908 c 0,3,4
 363 752 363 752 305.5 629 c 128,-1,5
 248 506 248 506 148 449 c 0,6,7
 141 445 141 445 130 448 c 128,-1,8
 119 451 119 451 109 459 c 0,9,10
 96 471 96 471 99 489.5 c 128,-1,11
 102 508 102 508 119 518 c 0,12,13
 187 557 187 557 233 626 c 128,-1,14
 279 695 279 695 295 781 c 1,15,-1
 285 781 l 2,16,17
 240 781 240 781 209 818 c 128,-1,18
 178 855 178 855 178 908 c 0,19,20
 178 965 178 965 206 1005 c 128,-1,21
 234 1045 234 1045 275 1045 c 0,0,1
EndSplineSet
EndChar

StartChar: u201C
Encoding: 65541 -1 115
Width: 680
GlyphClass: 2
Flags: W
LayerCount: 2
Fore
SplineSet
8 968 m 1,0,1
 38 1064 38 1064 118 1150 c 128,-1,2
 198 1236 198 1236 290 1266 c 1,3,-1
 286 1234 l 1,4,5
 200 1172 200 1172 166 1136 c 1,6,7
 106 1060 106 1060 106 1000 c 1,8,-1
 110 968 l 1,9,-1
 144 966 l 1,10,-1
 198 956 l 1,11,12
 230 942 230 942 230 910 c 1,13,-1
 226 882 l 1,14,15
 202 786 202 786 122 786 c 0,16,17
 4 786 4 786 4 926 c 1,18,-1
 8 968 l 1,0,1
328 968 m 1,19,20
 358 1064 358 1064 438 1150 c 128,-1,21
 518 1236 518 1236 610 1266 c 1,22,-1
 606 1234 l 1,23,24
 520 1172 520 1172 486 1136 c 1,25,26
 426 1060 426 1060 426 1000 c 1,27,-1
 430 968 l 1,28,-1
 464 966 l 1,29,-1
 518 956 l 1,30,31
 550 942 550 942 550 910 c 1,32,-1
 546 882 l 1,33,34
 522 786 522 786 442 786 c 0,35,36
 324 786 324 786 324 926 c 1,37,-1
 328 968 l 1,19,20
EndSplineSet
EndChar

StartChar: u201D
Encoding: 65542 -1 116
Width: 696
GlyphClass: 2
Flags: W
LayerCount: 2
Fore
SplineSet
304 1074 m 1,0,1
 276 972 276 972 198 888 c 128,-1,2
 120 804 120 804 20 778 c 1,3,-1
 28 808 l 1,4,5
 120 880 120 880 142 904 c 0,6,7
 208 978 208 978 208 1034 c 1,8,-1
 206 1054 l 1,9,-1
 200 1074 l 1,10,-1
 108 1082 l 1,11,12
 82 1096 82 1096 82 1126 c 2,13,-1
 86 1156 l 1,14,15
 122 1258 122 1258 192 1258 c 0,16,17
 308 1258 308 1258 308 1114 c 1,18,-1
 304 1074 l 1,0,1
624 1074 m 1,19,20
 596 972 596 972 518 888 c 128,-1,21
 440 804 440 804 340 778 c 1,22,-1
 348 808 l 1,23,24
 440 880 440 880 462 904 c 0,25,26
 528 978 528 978 528 1034 c 1,27,-1
 526 1054 l 1,28,-1
 520 1074 l 1,29,-1
 428 1082 l 1,30,31
 402 1096 402 1096 402 1126 c 2,32,-1
 406 1156 l 1,33,34
 442 1258 442 1258 512 1258 c 0,35,36
 628 1258 628 1258 628 1114 c 1,37,-1
 624 1074 l 1,19,20
EndSplineSet
EndChar

StartChar: u2026
Encoding: 8230 8230 117
Width: 1283
GlyphClass: 2
Flags: W
LayerCount: 2
Fore
SplineSet
265 136 m 0,0,1
 298 136 298 136 320.5 114 c 128,-1,2
 343 92 343 92 343 58 c 0,3,4
 343 26 343 26 320.5 3 c 128,-1,5
 298 -20 298 -20 265 -20 c 0,6,7
 233 -20 233 -20 210 3 c 128,-1,8
 187 26 187 26 187 58 c 0,9,10
 187 92 187 92 210 114 c 128,-1,11
 233 136 233 136 265 136 c 0,0,1
638 136 m 256,12,13
 670 136 670 136 693 114 c 128,-1,14
 716 92 716 92 716 58 c 0,15,16
 716 26 716 26 692.5 3 c 128,-1,17
 669 -20 669 -20 638 -20 c 0,18,19
 606 -20 606 -20 583 3 c 128,-1,20
 560 26 560 26 560 58 c 0,21,22
 560 92 560 92 583 114 c 128,-1,23
 606 136 606 136 638 136 c 256,12,13
1010 136 m 0,24,25
 1043 136 1043 136 1066 114 c 128,-1,26
 1089 92 1089 92 1089 58 c 0,27,28
 1089 26 1089 26 1065.5 3 c 128,-1,29
 1042 -20 1042 -20 1010 -20 c 256,30,31
 978 -20 978 -20 955.5 3 c 128,-1,32
 933 26 933 26 933 58 c 0,33,34
 933 92 933 92 955.5 114 c 128,-1,35
 978 136 978 136 1010 136 c 0,24,25
EndSplineSet
EndChar

StartChar: u2212
Encoding: 8722 8722 118
Width: 974
GlyphClass: 2
Flags: W
LayerCount: 2
Fore
SplineSet
133 450 m 1,0,-1
 133 508 l 1,1,-1
 894 508 l 1,2,-1
 894 450 l 1,3,-1
 133 450 l 1,0,-1
EndSplineSet
EndChar

StartChar: u25CC
Encoding: 9676 9676 119
Width: 1167
GlyphClass: 2
Flags: W
LayerCount: 2
Fore
SplineSet
654 665 m 0,0,1
 626 665 626 665 612 679 c 128,-1,2
 598 693 598 693 598 724 c 0,3,4
 598 746 598 746 615 762.5 c 128,-1,5
 632 779 632 779 654 779 c 0,6,7
 683 779 683 779 697.5 765 c 128,-1,8
 712 751 712 751 712 724 c 0,9,10
 712 693 712 693 697.5 679 c 128,-1,11
 683 665 683 665 654 665 c 0,0,1
840 616 m 0,12,13
 811 616 811 616 796.5 630.5 c 128,-1,14
 782 645 782 645 782 674 c 0,15,16
 782 701 782 701 796.5 715 c 128,-1,17
 811 729 811 729 840 729 c 0,18,19
 862 729 862 729 879 713 c 128,-1,20
 896 697 896 697 896 674 c 0,21,22
 896 645 896 645 882 630.5 c 128,-1,23
 868 616 868 616 840 616 c 0,12,13
470 616 m 0,24,25
 442 616 442 616 428 630.5 c 128,-1,26
 414 645 414 645 414 674 c 0,27,28
 414 697 414 697 431 713 c 128,-1,29
 448 729 448 729 470 729 c 0,30,31
 494 729 494 729 510 713 c 128,-1,32
 526 697 526 697 526 674 c 0,33,34
 526 645 526 645 512.5 630.5 c 128,-1,35
 499 616 499 616 470 616 c 0,24,25
973 482 m 0,36,37
 951 482 951 482 933.5 498 c 128,-1,38
 916 514 916 514 916 538 c 0,39,40
 916 567 916 567 930.5 581 c 128,-1,41
 945 595 945 595 973 595 c 256,42,43
 1001 595 1001 595 1014.5 581 c 128,-1,44
 1028 567 1028 567 1028 538 c 0,45,46
 1028 514 1028 514 1012 498 c 128,-1,47
 996 482 996 482 973 482 c 0,36,37
336 482 m 0,48,49
 307 482 307 482 293 495.5 c 128,-1,50
 279 509 279 509 279 538 c 256,51,52
 279 567 279 567 293 581 c 128,-1,53
 307 595 307 595 336 595 c 0,54,55
 364 595 364 595 378 581 c 128,-1,56
 392 567 392 567 392 538 c 0,57,58
 392 514 392 514 375 498 c 128,-1,59
 358 482 358 482 336 482 c 0,48,49
1024 298 m 0,60,61
 994 298 994 298 979.5 311.5 c 128,-1,62
 965 325 965 325 965 354 c 0,63,64
 965 382 965 382 979.5 396 c 128,-1,65
 994 410 994 410 1024 410 c 0,66,67
 1046 410 1046 410 1063 393 c 128,-1,68
 1080 376 1080 376 1080 354 c 0,69,70
 1080 331 1080 331 1063 314.5 c 128,-1,71
 1046 298 1046 298 1024 298 c 0,60,61
287 298 m 0,72,73
 257 298 257 298 243 311.5 c 128,-1,74
 229 325 229 325 229 354 c 0,75,76
 229 382 229 382 243 396 c 128,-1,77
 257 410 257 410 287 410 c 0,78,79
 310 410 310 410 326.5 393 c 128,-1,80
 343 376 343 376 343 354 c 0,81,82
 343 331 343 331 326.5 314.5 c 128,-1,83
 310 298 310 298 287 298 c 0,72,73
973 112 m 256,84,85
 945 112 945 112 930.5 126.5 c 128,-1,86
 916 141 916 141 916 169 c 0,87,88
 916 193 916 193 933.5 209.5 c 128,-1,89
 951 226 951 226 973 226 c 0,90,91
 996 226 996 226 1012 209.5 c 128,-1,92
 1028 193 1028 193 1028 169 c 0,93,94
 1028 141 1028 141 1014.5 126.5 c 128,-1,95
 1001 112 1001 112 973 112 c 256,84,85
336 112 m 0,96,97
 307 112 307 112 293 126.5 c 128,-1,98
 279 141 279 141 279 169 c 0,99,100
 279 198 279 198 293 212 c 128,-1,101
 307 226 307 226 336 226 c 0,102,103
 358 226 358 226 375 209.5 c 128,-1,104
 392 193 392 193 392 169 c 0,105,106
 392 141 392 141 378 126.5 c 128,-1,107
 364 112 364 112 336 112 c 0,96,97
840 -22 m 0,108,109
 811 -22 811 -22 796.5 -8 c 128,-1,110
 782 6 782 6 782 34 c 0,111,112
 782 63 782 63 796.5 78 c 128,-1,113
 811 93 811 93 840 93 c 0,114,115
 863 93 863 93 879.5 75 c 128,-1,116
 896 57 896 57 896 34 c 256,117,118
 896 11 896 11 879 -5.5 c 128,-1,119
 862 -22 862 -22 840 -22 c 0,108,109
470 -22 m 0,120,121
 448 -22 448 -22 431 -5.5 c 128,-1,122
 414 11 414 11 414 34 c 256,123,124
 414 57 414 57 430.5 75 c 128,-1,125
 447 93 447 93 470 93 c 0,126,127
 495 93 495 93 510.5 75 c 128,-1,128
 526 57 526 57 526 34 c 256,129,130
 526 11 526 11 510 -5.5 c 128,-1,131
 494 -22 494 -22 470 -22 c 0,120,121
654 -72 m 0,132,133
 632 -72 632 -72 615 -55 c 128,-1,134
 598 -38 598 -38 598 -16 c 0,135,136
 598 14 598 14 612 28.5 c 128,-1,137
 626 43 626 43 654 43 c 0,138,139
 683 43 683 43 697.5 28.5 c 128,-1,140
 712 14 712 14 712 -16 c 0,141,142
 712 -44 712 -44 697.5 -58 c 128,-1,143
 683 -72 683 -72 654 -72 c 0,132,133
EndSplineSet
EndChar

StartChar: tm_k_ikaar
Encoding: 65543 -1 120
Width: 982
GlyphClass: 2
Flags: W
LayerCount: 2
Fore
SplineSet
55 137 m 2,0,-1
 55 361 l 2,1,2
 55 418 55 418 83 458 c 128,-1,3
 111 498 111 498 152 498 c 1,4,-1
 152 664 l 2,5,6
 152 713 152 713 189.5 747 c 128,-1,7
 227 781 227 781 279 781 c 2,8,-1
 328 781 l 1,9,10
 309 805 309 805 299 829.5 c 128,-1,11
 289 854 289 854 289 879 c 2,12,-1
 289 977 l 2,13,14
 289 1057 289 1057 346.5 1114.5 c 128,-1,15
 404 1172 404 1172 484 1172 c 2,16,-1
 660 1172 l 2,17,18
 750 1172 750 1172 812.5 1114.5 c 128,-1,19
 875 1057 875 1057 875 977 c 2,20,-1
 875 117 l 2,21,22
 875 102 875 102 892.5 90 c 128,-1,23
 910 78 910 78 934 78 c 0,24,25
 949 78 949 78 961 66.5 c 128,-1,26
 973 55 973 55 973 39 c 256,27,28
 973 23 973 23 961 11.5 c 128,-1,29
 949 0 949 0 934 0 c 0,30,31
 916 0 916 0 885 14.5 c 128,-1,32
 854 29 854 29 836 29 c 256,33,34
 818 29 818 29 787 14.5 c 128,-1,35
 756 0 756 0 738 0 c 0,36,37
 723 0 723 0 711 11.5 c 128,-1,38
 699 23 699 23 699 39 c 256,39,40
 699 55 699 55 711 66.5 c 128,-1,41
 723 78 723 78 738 78 c 0,42,43
 762 78 762 78 779.5 90 c 128,-1,44
 797 102 797 102 797 117 c 2,45,-1
 797 977 l 2,46,47
 797 1025 797 1025 757 1059.5 c 128,-1,48
 717 1094 717 1094 660 1094 c 2,49,-1
 484 1094 l 2,50,51
 436 1094 436 1094 401.5 1059.5 c 128,-1,52
 367 1025 367 1025 367 977 c 2,53,-1
 367 879 l 2,54,55
 367 854 367 854 377 829.5 c 128,-1,56
 387 805 387 805 406 781 c 1,57,-1
 562 781 l 2,58,59
 574 781 574 781 583 769.5 c 128,-1,60
 592 758 592 758 592 742 c 0,61,62
 592 727 592 727 580 715 c 128,-1,63
 568 703 568 703 553 703 c 2,64,-1
 406 703 l 1,65,-1
 406 498 l 1,66,-1
 504 498 l 2,67,68
 561 498 561 498 601 458 c 128,-1,69
 641 418 641 418 641 361 c 2,70,-1
 641 117 l 2,71,72
 641 68 641 68 603.5 34 c 128,-1,73
 566 0 566 0 514 0 c 2,74,-1
 494 0 l 2,75,76
 479 0 479 0 467 11.5 c 128,-1,77
 455 23 455 23 455 39 c 256,78,79
 455 55 455 55 464 66.5 c 128,-1,80
 473 78 473 78 484 78 c 2,81,-1
 523 78 l 2,82,83
 539 78 539 78 550.5 90 c 128,-1,84
 562 102 562 102 562 117 c 2,85,-1
 562 361 l 2,86,87
 562 385 562 385 544.5 402.5 c 128,-1,88
 527 420 527 420 504 420 c 2,89,-1
 406 420 l 1,90,-1
 406 137 l 2,91,92
 406 80 406 80 363 40 c 128,-1,93
 320 0 320 0 260 0 c 2,94,-1
 201 0 l 2,95,96
 141 0 141 0 98 40 c 128,-1,97
 55 80 55 80 55 137 c 2,0,-1
279 703 m 2,98,99
 260 703 260 703 245 691.5 c 128,-1,100
 230 680 230 680 230 664 c 2,101,-1
 230 498 l 1,102,-1
 328 498 l 1,103,-1
 328 703 l 1,104,-1
 279 703 l 2,98,99
201 420 m 2,105,106
 174 420 174 420 153.5 402.5 c 128,-1,107
 133 385 133 385 133 361 c 2,108,-1
 133 137 l 2,109,110
 133 113 133 113 153.5 95.5 c 128,-1,111
 174 78 174 78 201 78 c 2,112,-1
 260 78 l 2,113,114
 287 78 287 78 307.5 95.5 c 128,-1,115
 328 113 328 113 328 137 c 2,116,-1
 328 420 l 1,117,-1
 201 420 l 2,105,106
EndSplineSet
Ligature2: "'psts' Post Base Substitutions lookup 8 subtable" tm_ka tm_ikaar
EndChar

StartChar: tm_ng_ikaar
Encoding: 65544 -1 121
Width: 1426
GlyphClass: 2
Flags: W
LayerCount: 2
Fore
SplineSet
107 645 m 2,0,1
 107 701 107 701 147 741 c 128,-1,2
 187 781 187 781 244 781 c 2,3,-1
 547 781 l 2,4,5
 559 781 559 781 567.5 769.5 c 128,-1,6
 576 758 576 758 576 742 c 0,7,8
 576 727 576 727 564.5 715 c 128,-1,9
 553 703 553 703 537 703 c 2,10,-1
 439 703 l 1,11,-1
 439 527 l 1,12,13
 451 537 451 537 468.5 542 c 128,-1,14
 486 547 486 547 508 547 c 2,15,-1
 547 547 l 2,16,17
 607 547 607 547 650 501 c 128,-1,18
 693 455 693 455 693 391 c 2,19,-1
 693 156 l 2,20,21
 693 131 693 131 685.5 110.5 c 128,-1,22
 678 90 678 90 664 78 c 1,23,-1
 840 78 l 2,24,25
 859 78 859 78 874 90 c 128,-1,26
 889 102 889 102 889 117 c 2,27,-1
 889 508 l 1,28,-1
 781 508 l 2,29,30
 721 508 721 508 678 548 c 128,-1,31
 635 588 635 588 635 645 c 2,32,-1
 635 937 l 2,33,34
 635 1035 635 1035 703 1103.5 c 128,-1,35
 771 1172 771 1172 869 1172 c 2,36,-1
 1084 1172 l 2,37,38
 1182 1172 1182 1172 1250 1103.5 c 128,-1,39
 1318 1035 1318 1035 1318 937 c 2,40,-1
 1318 117 l 2,41,42
 1318 102 1318 102 1336 90 c 128,-1,43
 1354 78 1354 78 1377 78 c 0,44,45
 1393 78 1393 78 1404.5 66.5 c 128,-1,46
 1416 55 1416 55 1416 39 c 256,47,48
 1416 23 1416 23 1404.5 11.5 c 128,-1,49
 1393 0 1393 0 1377 0 c 0,50,51
 1359 0 1359 0 1328 10 c 128,-1,52
 1297 20 1297 20 1279 20 c 0,53,54
 1262 20 1262 20 1230.5 10 c 128,-1,55
 1199 0 1199 0 1182 0 c 0,56,57
 1166 0 1166 0 1154.5 11.5 c 128,-1,58
 1143 23 1143 23 1143 39 c 256,59,60
 1143 55 1143 55 1154.5 66.5 c 128,-1,61
 1166 78 1166 78 1182 78 c 0,62,63
 1205 78 1205 78 1222.5 90 c 128,-1,64
 1240 102 1240 102 1240 117 c 2,65,-1
 1240 937 l 2,66,67
 1240 1002 1240 1002 1194 1048 c 128,-1,68
 1148 1094 1148 1094 1084 1094 c 2,69,-1
 869 1094 l 2,70,71
 805 1094 805 1094 759 1048 c 128,-1,72
 713 1002 713 1002 713 937 c 2,73,-1
 713 645 l 2,74,75
 713 621 713 621 733.5 603.5 c 128,-1,76
 754 586 754 586 781 586 c 2,77,-1
 889 586 l 1,78,-1
 889 664 l 2,79,80
 889 680 889 680 871.5 691.5 c 128,-1,81
 854 703 854 703 830 703 c 0,82,83
 814 703 814 703 802.5 715 c 128,-1,84
 791 727 791 727 791 742 c 0,85,86
 791 758 791 758 802.5 769.5 c 128,-1,87
 814 781 814 781 830 781 c 0,88,89
 848 781 848 781 879 766.5 c 128,-1,90
 910 752 910 752 928 752 c 0,91,92
 945 752 945 752 976.5 766.5 c 128,-1,93
 1008 781 1008 781 1025 781 c 0,94,95
 1041 781 1041 781 1052.5 769.5 c 128,-1,96
 1064 758 1064 758 1064 742 c 0,97,98
 1064 727 1064 727 1052.5 715 c 128,-1,99
 1041 703 1041 703 1025 703 c 0,100,101
 1002 703 1002 703 984.5 691.5 c 128,-1,102
 967 680 967 680 967 664 c 2,103,-1
 967 117 l 2,104,105
 967 102 967 102 984.5 90 c 128,-1,106
 1002 78 1002 78 1025 78 c 0,107,108
 1041 78 1041 78 1052.5 66.5 c 128,-1,109
 1064 55 1064 55 1064 39 c 256,110,111
 1064 23 1064 23 1049.5 11.5 c 128,-1,112
 1035 0 1035 0 1016 0 c 2,113,-1
 400 0 l 2,114,115
 385 0 385 0 373 11.5 c 128,-1,116
 361 23 361 23 361 39 c 256,117,118
 361 55 361 55 370 66.5 c 128,-1,119
 379 78 379 78 391 78 c 2,120,-1
 547 78 l 2,121,122
 574 78 574 78 594.5 100.5 c 128,-1,123
 615 123 615 123 615 156 c 2,124,-1
 615 391 l 2,125,126
 615 424 615 424 594.5 446.5 c 128,-1,127
 574 469 574 469 547 469 c 2,128,-1
 508 469 l 2,129,130
 480 469 480 469 459.5 451.5 c 128,-1,131
 439 434 439 434 439 410 c 2,132,-1
 439 293 l 2,133,134
 439 273 439 273 427.5 258.5 c 128,-1,135
 416 244 416 244 400 244 c 0,136,137
 385 244 385 244 373 258.5 c 128,-1,138
 361 273 361 273 361 293 c 2,139,-1
 361 703 l 1,140,-1
 244 703 l 2,141,142
 221 703 221 703 203.5 685.5 c 128,-1,143
 186 668 186 668 186 645 c 2,144,-1
 186 117 l 2,145,146
 186 102 186 102 203.5 90 c 128,-1,147
 221 78 221 78 244 78 c 0,148,149
 260 78 260 78 271.5 66.5 c 128,-1,150
 283 55 283 55 283 39 c 256,151,152
 283 23 283 23 271.5 11.5 c 128,-1,153
 260 0 260 0 244 0 c 0,154,155
 227 0 227 0 195.5 14.5 c 128,-1,156
 164 29 164 29 146 29 c 0,157,158
 129 29 129 29 97.5 14.5 c 128,-1,159
 66 0 66 0 49 0 c 0,160,161
 33 0 33 0 21.5 11.5 c 128,-1,162
 10 23 10 23 10 39 c 256,163,164
 10 55 10 55 21.5 66.5 c 128,-1,165
 33 78 33 78 49 78 c 0,166,167
 72 78 72 78 89.5 90 c 128,-1,168
 107 102 107 102 107 117 c 2,169,-1
 107 645 l 2,0,1
EndSplineSet
Ligature2: "'psts' Post Base Substitutions lookup 8 subtable" tm_nga tm_ikaar
EndChar

StartChar: tm_c_ikaar
Encoding: 65545 -1 122
Width: 865
GlyphClass: 2
Flags: W
LayerCount: 2
Fore
SplineSet
55 137 m 2,0,-1
 55 361 l 2,1,2
 55 418 55 418 83 458 c 128,-1,3
 111 498 111 498 152 498 c 1,4,-1
 152 664 l 2,5,6
 152 713 152 713 189.5 747 c 128,-1,7
 227 781 227 781 279 781 c 2,8,-1
 328 781 l 1,9,10
 309 805 309 805 299 824.5 c 128,-1,11
 289 844 289 844 289 859 c 2,12,-1
 289 977 l 2,13,14
 289 1057 289 1057 346.5 1114.5 c 128,-1,15
 404 1172 404 1172 484 1172 c 2,16,-1
 543 1172 l 2,17,18
 633 1172 633 1172 695.5 1114.5 c 128,-1,19
 758 1057 758 1057 758 977 c 2,20,-1
 758 117 l 2,21,22
 758 102 758 102 775.5 90 c 128,-1,23
 793 78 793 78 816 78 c 0,24,25
 832 78 832 78 843.5 66.5 c 128,-1,26
 855 55 855 55 855 39 c 256,27,28
 855 23 855 23 843.5 11.5 c 128,-1,29
 832 0 832 0 816 0 c 0,30,31
 799 0 799 0 767.5 14.5 c 128,-1,32
 736 29 736 29 719 29 c 0,33,34
 701 29 701 29 670 14.5 c 128,-1,35
 639 0 639 0 621 0 c 0,36,37
 605 0 605 0 593.5 11.5 c 128,-1,38
 582 23 582 23 582 39 c 256,39,40
 582 55 582 55 593.5 66.5 c 128,-1,41
 605 78 605 78 621 78 c 0,42,43
 645 78 645 78 662.5 90 c 128,-1,44
 680 102 680 102 680 117 c 2,45,-1
 680 977 l 2,46,47
 680 1025 680 1025 640 1059.5 c 128,-1,48
 600 1094 600 1094 543 1094 c 2,49,-1
 484 1094 l 2,50,51
 436 1094 436 1094 401.5 1059.5 c 128,-1,52
 367 1025 367 1025 367 977 c 2,53,-1
 367 859 l 2,54,55
 367 844 367 844 377 824.5 c 128,-1,56
 387 805 387 805 406 781 c 1,57,-1
 553 781 l 2,58,59
 568 781 568 781 580 769.5 c 128,-1,60
 592 758 592 758 592 742 c 0,61,62
 592 727 592 727 580 715 c 128,-1,63
 568 703 568 703 553 703 c 2,64,-1
 406 703 l 1,65,-1
 406 498 l 1,66,-1
 533 498 l 2,67,68
 549 498 549 498 560.5 486.5 c 128,-1,69
 572 475 572 475 572 459 c 256,70,71
 572 443 572 443 560.5 431.5 c 128,-1,72
 549 420 549 420 533 420 c 2,73,-1
 406 420 l 1,74,-1
 406 137 l 2,75,76
 406 80 406 80 363 40 c 128,-1,77
 320 0 320 0 260 0 c 2,78,-1
 201 0 l 2,79,80
 141 0 141 0 98 40 c 128,-1,81
 55 80 55 80 55 137 c 2,0,-1
279 703 m 2,82,83
 260 703 260 703 245 691.5 c 128,-1,84
 230 680 230 680 230 664 c 2,85,-1
 230 498 l 1,86,-1
 328 498 l 1,87,-1
 328 703 l 1,88,-1
 279 703 l 2,82,83
201 420 m 2,89,90
 174 420 174 420 153.5 402.5 c 128,-1,91
 133 385 133 385 133 361 c 2,92,-1
 133 137 l 2,93,94
 133 113 133 113 153.5 95.5 c 128,-1,95
 174 78 174 78 201 78 c 2,96,-1
 260 78 l 2,97,98
 287 78 287 78 307.5 95.5 c 128,-1,99
 328 113 328 113 328 137 c 2,100,-1
 328 420 l 1,101,-1
 201 420 l 2,89,90
EndSplineSet
Ligature2: "'psts' Post Base Substitutions lookup 8 subtable" tm_ca tm_ikaar
EndChar

StartChar: tm_j_ikaar
Encoding: 65546 -1 123
Width: 1178
GlyphClass: 2
Flags: W
LayerCount: 2
Fore
SplineSet
211 781 m 2,0,-1
 426 781 l 2,1,2
 465 781 465 781 496 765.5 c 128,-1,3
 527 750 527 750 543 723 c 1,4,5
 559 750 559 750 585 765.5 c 128,-1,6
 611 781 611 781 641 781 c 1,7,8
 621 805 621 805 611.5 824.5 c 128,-1,9
 602 844 602 844 602 859 c 2,10,-1
 602 977 l 2,11,12
 602 1057 602 1057 659.5 1114.5 c 128,-1,13
 717 1172 717 1172 797 1172 c 2,14,-1
 855 1172 l 2,15,16
 945 1172 945 1172 1007.5 1114.5 c 128,-1,17
 1070 1057 1070 1057 1070 977 c 2,18,-1
 1070 117 l 2,19,20
 1070 102 1070 102 1087.5 90 c 128,-1,21
 1105 78 1105 78 1129 78 c 0,22,23
 1145 78 1145 78 1156.5 66.5 c 128,-1,24
 1168 55 1168 55 1168 39 c 256,25,26
 1168 23 1168 23 1156.5 11.5 c 128,-1,27
 1145 0 1145 0 1129 0 c 0,28,29
 1111 0 1111 0 1080 14.5 c 128,-1,30
 1049 29 1049 29 1031 29 c 0,31,32
 1014 29 1014 29 982.5 14.5 c 128,-1,33
 951 0 951 0 934 0 c 0,34,35
 918 0 918 0 906.5 11.5 c 128,-1,36
 895 23 895 23 895 39 c 256,37,38
 895 55 895 55 906.5 66.5 c 128,-1,39
 918 78 918 78 934 78 c 0,40,41
 957 78 957 78 974.5 90 c 128,-1,42
 992 102 992 102 992 117 c 2,43,-1
 992 977 l 2,44,45
 992 1025 992 1025 952 1059.5 c 128,-1,46
 912 1094 912 1094 855 1094 c 2,47,-1
 797 1094 l 2,48,49
 748 1094 748 1094 714 1059.5 c 128,-1,50
 680 1025 680 1025 680 977 c 2,51,-1
 680 859 l 2,52,53
 680 844 680 844 689.5 824.5 c 128,-1,54
 699 805 699 805 719 781 c 1,55,56
 775 781 775 781 815 741 c 128,-1,57
 855 701 855 701 855 645 c 2,58,-1
 855 176 l 2,59,60
 855 96 855 96 794.5 38 c 128,-1,61
 734 -20 734 -20 650 -20 c 2,62,-1
 221 -20 l 2,63,64
 193 -20 193 -20 172.5 -37.5 c 128,-1,65
 152 -55 152 -55 152 -78 c 2,66,-1
 152 -449 l 2,67,68
 152 -473 152 -473 172.5 -490.5 c 128,-1,69
 193 -508 193 -508 221 -508 c 2,70,-1
 260 -508 l 2,71,72
 271 -508 271 -508 285 -492.5 c 128,-1,73
 299 -477 299 -477 309 -449 c 2,74,-1
 387 -234 l 2,75,76
 406 -182 406 -182 443 -149.5 c 128,-1,77
 480 -117 480 -117 523 -117 c 2,78,-1
 738 -117 l 2,79,80
 787 -117 787 -117 821 -151.5 c 128,-1,81
 855 -186 855 -186 855 -234 c 2,82,-1
 855 -449 l 2,83,84
 855 -506 855 -506 812.5 -546 c 128,-1,85
 770 -586 770 -586 709 -586 c 256,86,87
 648 -586 648 -586 605 -546 c 128,-1,88
 562 -506 562 -506 562 -449 c 2,89,-1
 562 -283 l 2,90,91
 562 -264 562 -264 574 -249 c 128,-1,92
 586 -234 586 -234 602 -234 c 0,93,94
 617 -234 617 -234 629 -249 c 128,-1,95
 641 -264 641 -264 641 -283 c 2,96,-1
 641 -449 l 2,97,98
 641 -473 641 -473 661.5 -490.5 c 128,-1,99
 682 -508 682 -508 709 -508 c 256,100,101
 736 -508 736 -508 756.5 -490.5 c 128,-1,102
 777 -473 777 -473 777 -449 c 2,103,-1
 777 -234 l 2,104,105
 777 -219 777 -219 765.5 -207 c 128,-1,106
 754 -195 754 -195 738 -195 c 2,107,-1
 523 -195 l 2,108,109
 502 -195 502 -195 483.5 -211 c 128,-1,110
 465 -227 465 -227 455 -254 c 2,111,-1
 357 -508 l 2,112,113
 344 -543 344 -543 317.5 -564.5 c 128,-1,114
 291 -586 291 -586 260 -586 c 2,115,-1
 221 -586 l 2,116,117
 160 -586 160 -586 117 -546 c 128,-1,118
 74 -506 74 -506 74 -449 c 2,119,-1
 74 -78 l 2,120,121
 74 -21 74 -21 117 19 c 128,-1,122
 160 59 160 59 221 59 c 2,123,-1
 650 59 l 2,124,125
 703 59 703 59 740 93 c 128,-1,126
 777 127 777 127 777 176 c 2,127,-1
 777 645 l 2,128,129
 777 668 777 668 759.5 685.5 c 128,-1,130
 742 703 742 703 719 703 c 2,131,-1
 641 703 l 2,132,133
 617 703 617 703 599.5 685.5 c 128,-1,134
 582 668 582 668 582 645 c 2,135,-1
 582 254 l 2,136,137
 582 238 582 238 599.5 226.5 c 128,-1,138
 617 215 617 215 641 215 c 0,139,140
 656 215 656 215 668 203 c 128,-1,141
 680 191 680 191 680 176 c 0,142,143
 680 160 680 160 668 148.5 c 128,-1,144
 656 137 656 137 641 137 c 0,145,146
 623 137 623 137 592 156.5 c 128,-1,147
 561 176 561 176 543 176 c 256,148,149
 525 176 525 176 494 156.5 c 128,-1,150
 463 137 463 137 445 137 c 0,151,152
 430 137 430 137 418 148.5 c 128,-1,153
 406 160 406 160 406 176 c 0,154,155
 406 191 406 191 418 203 c 128,-1,156
 430 215 430 215 445 215 c 0,157,158
 469 215 469 215 486.5 226.5 c 128,-1,159
 504 238 504 238 504 254 c 2,160,-1
 504 645 l 2,161,162
 504 668 504 668 481.5 685.5 c 128,-1,163
 459 703 459 703 426 703 c 2,164,-1
 211 703 l 2,165,166
 187 703 187 703 169.5 685.5 c 128,-1,167
 152 668 152 668 152 645 c 2,168,-1
 152 576 l 1,169,170
 160 590 160 590 178.5 597.5 c 128,-1,171
 197 605 197 605 221 605 c 0,172,173
 281 605 281 605 324 565 c 128,-1,174
 367 525 367 525 367 469 c 2,175,-1
 367 273 l 2,176,177
 367 217 367 217 324 177 c 128,-1,178
 281 137 281 137 221 137 c 0,179,180
 160 137 160 137 117 177 c 128,-1,181
 74 217 74 217 74 273 c 2,182,-1
 74 645 l 2,183,184
 74 701 74 701 114 741 c 128,-1,185
 154 781 154 781 211 781 c 2,0,-1
221 527 m 0,186,187
 193 527 193 527 172.5 509.5 c 128,-1,188
 152 492 152 492 152 469 c 2,189,-1
 152 273 l 2,190,191
 152 250 152 250 172.5 232.5 c 128,-1,192
 193 215 193 215 221 215 c 0,193,194
 248 215 248 215 268.5 232.5 c 128,-1,195
 289 250 289 250 289 273 c 2,196,-1
 289 469 l 2,197,198
 289 492 289 492 268.5 509.5 c 128,-1,199
 248 527 248 527 221 527 c 0,186,187
EndSplineSet
Ligature2: "'psts' Post Base Substitutions lookup 8 subtable" tm_ja tm_ikaar
EndChar

StartChar: tm_ny_ikaar
Encoding: 65547 -1 124
Width: 1531
GlyphClass: 2
Flags: W
LayerCount: 2
Fore
SplineSet
223 781 m 2,0,-1
 252 781 l 1,1,2
 270 777 270 777 280.5 766.5 c 128,-1,3
 291 756 291 756 291 742 c 0,4,5
 291 727 291 727 279.5 715 c 128,-1,6
 268 703 268 703 252 703 c 2,7,-1
 213 703 l 2,8,9
 197 703 197 703 185.5 691.5 c 128,-1,10
 174 680 174 680 174 664 c 2,11,-1
 174 -39 l 2,12,13
 174 -104 174 -104 222.5 -149.5 c 128,-1,14
 271 -195 271 -195 340 -195 c 2,15,-1
 945 -195 l 2,16,17
 1006 -195 1006 -195 1049 -149.5 c 128,-1,18
 1092 -104 1092 -104 1092 -39 c 2,19,-1
 1092 410 l 2,20,21
 1092 434 1092 434 1074.5 451.5 c 128,-1,22
 1057 469 1057 469 1033 469 c 2,23,-1
 975 469 l 2,24,25
 951 469 951 469 933.5 451.5 c 128,-1,26
 916 434 916 434 916 410 c 2,27,-1
 916 117 l 2,28,29
 916 102 916 102 933.5 90 c 128,-1,30
 951 78 951 78 975 78 c 0,31,32
 990 78 990 78 1002 66.5 c 128,-1,33
 1014 55 1014 55 1014 39 c 256,34,35
 1014 23 1014 23 1002 11.5 c 128,-1,36
 990 0 990 0 975 0 c 0,37,38
 957 0 957 0 926 14.5 c 128,-1,39
 895 29 895 29 877 29 c 0,40,41
 861 29 861 29 833 14.5 c 128,-1,42
 805 0 805 0 789 0 c 0,43,44
 770 0 770 0 755 11.5 c 128,-1,45
 740 23 740 23 740 39 c 256,46,47
 740 55 740 55 755 66.5 c 128,-1,48
 770 78 770 78 789 78 c 0,49,50
 809 78 809 78 823.5 90 c 128,-1,51
 838 102 838 102 838 117 c 2,52,-1
 838 703 l 1,53,-1
 486 703 l 2,54,55
 463 703 463 703 445.5 685.5 c 128,-1,56
 428 668 428 668 428 645 c 2,57,-1
 428 449 l 1,58,59
 436 459 436 459 448.5 464 c 128,-1,60
 461 469 461 469 477 469 c 2,61,-1
 516 469 l 2,62,63
 568 469 568 469 605.5 429 c 128,-1,64
 643 389 643 389 643 332 c 2,65,-1
 643 137 l 2,66,67
 643 80 643 80 600 40 c 128,-1,68
 557 0 557 0 496 0 c 0,69,70
 436 0 436 0 393 40 c 128,-1,71
 350 80 350 80 350 137 c 2,72,-1
 350 645 l 2,73,74
 350 701 350 701 390 741 c 128,-1,75
 430 781 430 781 486 781 c 2,76,-1
 838 781 l 1,77,78
 818 805 818 805 808.5 824.5 c 128,-1,79
 799 844 799 844 799 859 c 2,80,-1
 799 977 l 2,81,82
 799 1057 799 1057 856.5 1114.5 c 128,-1,83
 914 1172 914 1172 994 1172 c 2,84,-1
 1209 1172 l 2,85,86
 1299 1172 1299 1172 1361.5 1114.5 c 128,-1,87
 1424 1057 1424 1057 1424 977 c 2,88,-1
 1424 117 l 2,89,90
 1424 102 1424 102 1441.5 90 c 128,-1,91
 1459 78 1459 78 1482 78 c 0,92,93
 1498 78 1498 78 1509.5 66.5 c 128,-1,94
 1521 55 1521 55 1521 39 c 256,95,96
 1521 23 1521 23 1509.5 11.5 c 128,-1,97
 1498 0 1498 0 1482 0 c 0,98,99
 1465 0 1465 0 1433.5 14.5 c 128,-1,100
 1402 29 1402 29 1385 29 c 0,101,102
 1367 29 1367 29 1336 14.5 c 128,-1,103
 1305 0 1305 0 1287 0 c 0,104,105
 1271 0 1271 0 1259.5 11.5 c 128,-1,106
 1248 23 1248 23 1248 39 c 256,107,108
 1248 55 1248 55 1259.5 66.5 c 128,-1,109
 1271 78 1271 78 1287 78 c 0,110,111
 1311 78 1311 78 1328.5 90 c 128,-1,112
 1346 102 1346 102 1346 117 c 2,113,-1
 1346 977 l 2,114,115
 1346 1025 1346 1025 1306 1059.5 c 128,-1,116
 1266 1094 1266 1094 1209 1094 c 2,117,-1
 994 1094 l 2,118,119
 945 1094 945 1094 911 1059.5 c 128,-1,120
 877 1025 877 1025 877 977 c 2,121,-1
 877 859 l 2,122,123
 877 844 877 844 886.5 824.5 c 128,-1,124
 896 805 896 805 916 781 c 1,125,-1
 1121 781 l 2,126,127
 1133 781 1133 781 1141.5 769.5 c 128,-1,128
 1150 758 1150 758 1150 742 c 0,129,130
 1150 727 1150 727 1138.5 715 c 128,-1,131
 1127 703 1127 703 1111 703 c 2,132,-1
 916 703 l 1,133,-1
 916 527 l 1,134,135
 922 537 922 537 934.5 542 c 128,-1,136
 947 547 947 547 965 547 c 2,137,-1
 1043 547 l 2,138,139
 1096 547 1096 547 1133 507 c 128,-1,140
 1170 467 1170 467 1170 410 c 2,141,-1
 1170 -39 l 2,142,143
 1170 -137 1170 -137 1104.5 -205 c 128,-1,144
 1039 -273 1039 -273 945 -273 c 2,145,-1
 340 -273 l 2,146,147
 238 -273 238 -273 167 -205 c 128,-1,148
 96 -137 96 -137 96 -39 c 2,149,-1
 96 664 l 2,150,151
 96 713 96 713 133 747 c 128,-1,152
 170 781 170 781 223 781 c 2,0,-1
496 391 m 256,153,154
 469 391 469 391 448.5 373 c 128,-1,155
 428 355 428 355 428 332 c 2,156,-1
 428 137 l 2,157,158
 428 113 428 113 448.5 95.5 c 128,-1,159
 469 78 469 78 496 78 c 256,160,161
 523 78 523 78 543.5 95.5 c 128,-1,162
 564 113 564 113 564 137 c 2,163,-1
 564 332 l 2,164,165
 564 355 564 355 543.5 373 c 128,-1,166
 523 391 523 391 496 391 c 256,153,154
EndSplineSet
Ligature2: "'psts' Post Base Substitutions lookup 8 subtable" tm_nya tm_ikaar
EndChar

StartChar: tm_tt_ikaar
Encoding: 65548 -1 125
Width: 1258
GlyphClass: 2
Flags: W
LayerCount: 2
Fore
SplineSet
105 156 m 2,0,-1
 105 664 l 2,1,2
 105 680 105 680 87.5 691.5 c 128,-1,3
 70 703 70 703 47 703 c 0,4,5
 31 703 31 703 19.5 715 c 128,-1,6
 8 727 8 727 8 742 c 0,7,8
 8 758 8 758 19.5 769.5 c 128,-1,9
 31 781 31 781 47 781 c 0,10,11
 64 781 64 781 95.5 771.5 c 128,-1,12
 127 762 127 762 145 762 c 0,13,14
 162 762 162 762 193.5 771.5 c 128,-1,15
 225 781 225 781 242 781 c 0,16,17
 258 781 258 781 269.5 769.5 c 128,-1,18
 281 758 281 758 281 742 c 0,19,20
 281 727 281 727 269.5 715 c 128,-1,21
 258 703 258 703 242 703 c 0,22,23
 219 703 219 703 201.5 691.5 c 128,-1,24
 184 680 184 680 184 664 c 2,25,-1
 184 156 l 2,26,27
 184 123 184 123 209 100.5 c 128,-1,28
 234 78 234 78 271 78 c 2,29,-1
 633 78 l 1,30,-1
 525 332 l 2,31,32
 516 354 516 354 511 378 c 128,-1,33
 506 402 506 402 506 430 c 2,34,-1
 506 645 l 2,35,36
 506 701 506 701 546 741 c 128,-1,37
 586 781 586 781 643 781 c 2,38,-1
 662 781 l 2,39,40
 719 781 719 781 759 741 c 128,-1,41
 799 701 799 701 799 645 c 2,42,-1
 799 78 l 1,43,-1
 1209 78 l 2,44,45
 1225 78 1225 78 1236.5 66.5 c 128,-1,46
 1248 55 1248 55 1248 39 c 256,47,48
 1248 23 1248 23 1233.5 11.5 c 128,-1,49
 1219 0 1219 0 1199 0 c 2,50,-1
 799 0 l 1,51,-1
 799 -98 l 2,52,53
 799 -113 799 -113 816.5 -125 c 128,-1,54
 834 -137 834 -137 857 -137 c 0,55,56
 873 -137 873 -137 884.5 -148.5 c 128,-1,57
 896 -160 896 -160 896 -176 c 0,58,59
 896 -191 896 -191 884.5 -203 c 128,-1,60
 873 -215 873 -215 857 -215 c 0,61,62
 840 -215 840 -215 808.5 -205 c 128,-1,63
 777 -195 777 -195 760 -195 c 0,64,65
 742 -195 742 -195 711 -205 c 128,-1,66
 680 -215 680 -215 662 -215 c 0,67,68
 646 -215 646 -215 634.5 -203 c 128,-1,69
 623 -191 623 -191 623 -176 c 0,70,71
 623 -160 623 -160 634.5 -148.5 c 128,-1,72
 646 -137 646 -137 662 -137 c 0,73,74
 686 -137 686 -137 703.5 -125 c 128,-1,75
 721 -113 721 -113 721 -98 c 2,76,-1
 721 0 l 1,77,-1
 262 0 l 2,78,79
 197 0 197 0 151 46 c 128,-1,80
 105 92 105 92 105 156 c 2,0,-1
652 703 m 0,81,82
 625 703 625 703 604.5 685.5 c 128,-1,83
 584 668 584 668 584 645 c 2,84,-1
 584 430 l 2,85,86
 584 418 584 418 589 398.5 c 128,-1,87
 594 379 594 379 604 352 c 2,88,-1
 721 78 l 1,89,-1
 721 645 l 2,90,91
 721 668 721 668 700.5 685.5 c 128,-1,92
 680 703 680 703 652 703 c 0,81,82
EndSplineSet
Ligature2: "'psts' Post Base Substitutions lookup 8 subtable" tm_tta tm_ikaar
EndChar

StartChar: tm_nn_ikaar
Encoding: 65549 -1 126
Width: 2010
GlyphClass: 2
Flags: W
LayerCount: 2
Fore
SplineSet
262 781 m 2,0,-1
 418 781 l 2,1,2
 471 781 471 781 527.5 763.5 c 128,-1,3
 584 746 584 746 643 713 c 1,4,5
 691 746 691 746 751.5 763.5 c 128,-1,6
 812 781 812 781 877 781 c 0,7,8
 941 781 941 781 1001.5 763.5 c 128,-1,9
 1062 746 1062 746 1111 713 c 1,10,11
 1150 746 1150 746 1218.5 763.5 c 128,-1,12
 1287 781 1287 781 1375 781 c 2,13,-1
 1473 781 l 1,14,15
 1453 805 1453 805 1443.5 824.5 c 128,-1,16
 1434 844 1434 844 1434 859 c 2,17,-1
 1434 977 l 2,18,19
 1434 1057 1434 1057 1491.5 1114.5 c 128,-1,20
 1549 1172 1549 1172 1629 1172 c 2,21,-1
 1687 1172 l 2,22,23
 1777 1172 1777 1172 1839.5 1114.5 c 128,-1,24
 1902 1057 1902 1057 1902 977 c 2,25,-1
 1902 117 l 2,26,27
 1902 102 1902 102 1919.5 90 c 128,-1,28
 1937 78 1937 78 1961 78 c 0,29,30
 1977 78 1977 78 1988.5 66.5 c 128,-1,31
 2000 55 2000 55 2000 39 c 256,32,33
 2000 23 2000 23 1988.5 11.5 c 128,-1,34
 1977 0 1977 0 1961 0 c 0,35,36
 1943 0 1943 0 1912 14.5 c 128,-1,37
 1881 29 1881 29 1863 29 c 0,38,39
 1846 29 1846 29 1814.5 14.5 c 128,-1,40
 1783 0 1783 0 1766 0 c 0,41,42
 1750 0 1750 0 1738.5 11.5 c 128,-1,43
 1727 23 1727 23 1727 39 c 256,44,45
 1727 55 1727 55 1738.5 66.5 c 128,-1,46
 1750 78 1750 78 1766 78 c 0,47,48
 1789 78 1789 78 1806.5 90 c 128,-1,49
 1824 102 1824 102 1824 117 c 2,50,-1
 1824 977 l 2,51,52
 1824 1025 1824 1025 1784 1059.5 c 128,-1,53
 1744 1094 1744 1094 1687 1094 c 2,54,-1
 1629 1094 l 2,55,56
 1580 1094 1580 1094 1546 1059.5 c 128,-1,57
 1512 1025 1512 1025 1512 977 c 2,58,-1
 1512 859 l 2,59,60
 1512 844 1512 844 1521.5 824.5 c 128,-1,61
 1531 805 1531 805 1551 781 c 1,62,-1
 1717 781 l 2,63,64
 1729 781 1729 781 1737.5 769.5 c 128,-1,65
 1746 758 1746 758 1746 742 c 0,66,67
 1746 727 1746 727 1734.5 715 c 128,-1,68
 1723 703 1723 703 1707 703 c 2,69,-1
 1551 703 l 1,70,-1
 1551 117 l 2,71,72
 1551 102 1551 102 1568.5 90 c 128,-1,73
 1586 78 1586 78 1609 78 c 0,74,75
 1625 78 1625 78 1636.5 66.5 c 128,-1,76
 1648 55 1648 55 1648 39 c 256,77,78
 1648 23 1648 23 1636.5 11.5 c 128,-1,79
 1625 0 1625 0 1609 0 c 0,80,81
 1592 0 1592 0 1560.5 14.5 c 128,-1,82
 1529 29 1529 29 1512 29 c 0,83,84
 1494 29 1494 29 1463 14.5 c 128,-1,85
 1432 0 1432 0 1414 0 c 0,86,87
 1398 0 1398 0 1386.5 11.5 c 128,-1,88
 1375 23 1375 23 1375 39 c 256,89,90
 1375 55 1375 55 1386.5 66.5 c 128,-1,91
 1398 78 1398 78 1414 78 c 0,92,93
 1437 78 1437 78 1455 90 c 128,-1,94
 1473 102 1473 102 1473 117 c 2,95,-1
 1473 703 l 1,96,-1
 1375 703 l 2,97,98
 1309 703 1309 703 1261 693.5 c 128,-1,99
 1213 684 1213 684 1189 664 c 1,100,101
 1227 633 1227 633 1249 597.5 c 128,-1,102
 1271 562 1271 562 1277 527 c 1,103,-1
 1277 137 l 1,104,105
 1268 78 1268 78 1228.5 39 c 128,-1,106
 1189 0 1189 0 1141 0 c 2,107,-1
 1082 0 l 2,108,109
 1025 0 1025 0 985 40 c 128,-1,110
 945 80 945 80 945 137 c 2,111,-1
 945 527 l 2,112,113
 945 561 945 561 965.5 597 c 128,-1,114
 986 633 986 633 1023 664 c 1,115,116
 990 684 990 684 953 693.5 c 128,-1,117
 916 703 916 703 877 703 c 0,118,119
 834 703 834 703 794 693.5 c 128,-1,120
 754 684 754 684 721 664 c 1,121,122
 762 629 762 629 785.5 593 c 128,-1,123
 809 557 809 557 809 527 c 2,124,-1
 809 137 l 2,125,126
 809 80 809 80 769 40 c 128,-1,127
 729 0 729 0 672 0 c 2,128,-1
 613 0 l 2,129,130
 557 0 557 0 517 40 c 128,-1,131
 477 80 477 80 477 137 c 2,132,-1
 477 527 l 2,133,134
 477 557 477 557 500 593 c 128,-1,135
 523 629 523 629 564 664 c 1,136,137
 531 684 531 684 494 693.5 c 128,-1,138
 457 703 457 703 418 703 c 2,139,-1
 262 703 l 2,140,141
 221 703 221 703 192.5 674.5 c 128,-1,142
 164 646 164 646 164 605 c 2,143,-1
 164 449 l 1,144,145
 182 459 182 459 196.5 464 c 128,-1,146
 211 469 211 469 223 469 c 2,147,-1
 242 469 l 2,148,149
 299 469 299 469 339 429 c 128,-1,150
 379 389 379 389 379 332 c 2,151,-1
 379 137 l 2,152,153
 379 80 379 80 336 40 c 128,-1,154
 293 0 293 0 232 0 c 0,155,156
 172 0 172 0 129 40 c 128,-1,157
 86 80 86 80 86 137 c 2,158,-1
 86 605 l 2,159,160
 86 678 86 678 137.5 729.5 c 128,-1,161
 189 781 189 781 262 781 c 2,0,-1
232 391 m 0,162,163
 205 391 205 391 184.5 373 c 128,-1,164
 164 355 164 355 164 332 c 2,165,-1
 164 137 l 2,166,167
 164 113 164 113 184.5 95.5 c 128,-1,168
 205 78 205 78 232 78 c 0,169,170
 260 78 260 78 280.5 95.5 c 128,-1,171
 301 113 301 113 301 137 c 2,172,-1
 301 332 l 2,173,174
 301 355 301 355 280.5 373 c 128,-1,175
 260 391 260 391 232 391 c 0,162,163
643 635 m 1,176,177
 602 600 602 600 578.5 566.5 c 128,-1,178
 555 533 555 533 555 508 c 2,179,-1
 555 137 l 2,180,181
 555 113 555 113 575.5 95.5 c 128,-1,182
 596 78 596 78 623 78 c 2,183,-1
 662 78 l 2,184,185
 689 78 689 78 709.5 95.5 c 128,-1,186
 730 113 730 113 730 137 c 2,187,-1
 730 508 l 2,188,189
 730 533 730 533 707 566.5 c 128,-1,190
 684 600 684 600 643 635 c 1,176,177
1111 635 m 1,191,192
 1070 600 1070 600 1046.5 566.5 c 128,-1,193
 1023 533 1023 533 1023 508 c 2,194,-1
 1023 137 l 2,195,196
 1023 113 1023 113 1043.5 95.5 c 128,-1,197
 1064 78 1064 78 1092 78 c 2,198,-1
 1131 78 l 2,199,200
 1158 78 1158 78 1178.5 95.5 c 128,-1,201
 1199 113 1199 113 1199 137 c 2,202,-1
 1199 508 l 2,203,204
 1199 533 1199 533 1175.5 566.5 c 128,-1,205
 1152 600 1152 600 1111 635 c 1,191,192
EndSplineSet
Ligature2: "'psts' Post Base Substitutions lookup 8 subtable" tm_nna tm_ikaar
EndChar

StartChar: tm_t_ikaar
Encoding: 65550 -1 127
Width: 1000
GlyphClass: 2
Flags: W
LayerCount: 2
Fore
SplineSet
62 137 m 2,0,-1
 62 381 l 2,1,2
 62 430 62 430 84.5 464 c 128,-1,3
 107 498 107 498 141 498 c 1,4,-1
 141 664 l 2,5,6
 141 713 141 713 178 747 c 128,-1,7
 215 781 215 781 268 781 c 2,8,-1
 336 781 l 1,9,10
 316 805 316 805 306.5 824.5 c 128,-1,11
 297 844 297 844 297 859 c 2,12,-1
 297 977 l 2,13,14
 297 1057 297 1057 354.5 1114.5 c 128,-1,15
 412 1172 412 1172 492 1172 c 2,16,-1
 678 1172 l 2,17,18
 768 1172 768 1172 830.5 1114.5 c 128,-1,19
 893 1057 893 1057 893 977 c 2,20,-1
 893 117 l 2,21,22
 893 102 893 102 910.5 90 c 128,-1,23
 928 78 928 78 951 78 c 0,24,25
 967 78 967 78 978.5 66.5 c 128,-1,26
 990 55 990 55 990 39 c 256,27,28
 990 23 990 23 978.5 11.5 c 128,-1,29
 967 0 967 0 951 0 c 0,30,31
 934 0 934 0 902.5 14.5 c 128,-1,32
 871 29 871 29 854 29 c 0,33,34
 836 29 836 29 804.5 14.5 c 128,-1,35
 773 0 773 0 756 0 c 0,36,37
 740 0 740 0 728.5 11.5 c 128,-1,38
 717 23 717 23 717 39 c 256,39,40
 717 55 717 55 728.5 66.5 c 128,-1,41
 740 78 740 78 756 78 c 0,42,43
 779 78 779 78 796.5 90 c 128,-1,44
 814 102 814 102 814 117 c 2,45,-1
 814 977 l 2,46,47
 814 1025 814 1025 774 1059.5 c 128,-1,48
 734 1094 734 1094 678 1094 c 2,49,-1
 492 1094 l 2,50,51
 443 1094 443 1094 409 1059.5 c 128,-1,52
 375 1025 375 1025 375 977 c 2,53,-1
 375 859 l 2,54,55
 375 844 375 844 385 824.5 c 128,-1,56
 395 805 395 805 414 781 c 1,57,-1
 531 781 l 1,58,59
 549 777 549 777 559.5 766.5 c 128,-1,60
 570 756 570 756 570 742 c 0,61,62
 570 727 570 727 558.5 715 c 128,-1,63
 547 703 547 703 531 703 c 2,64,-1
 414 703 l 1,65,-1
 414 498 l 1,66,-1
 492 498 l 2,67,68
 549 498 549 498 589 458 c 128,-1,69
 629 418 629 418 629 361 c 2,70,-1
 629 39 l 2,71,72
 629 -51 629 -51 574.5 -113.5 c 128,-1,73
 520 -176 520 -176 443 -176 c 2,74,-1
 111 -176 l 2,75,76
 84 -176 84 -176 63.5 -193.5 c 128,-1,77
 43 -211 43 -211 43 -234 c 2,78,-1
 43 -352 l 2,79,80
 43 -391 43 -391 4 -391 c 128,-1,81
 -35 -391 -35 -391 -35 -352 c 2,82,-1
 -35 -234 l 2,83,84
 -35 -178 -35 -178 8 -138 c 128,-1,85
 51 -98 51 -98 111 -98 c 2,86,-1
 443 -98 l 2,87,88
 488 -98 488 -98 519.5 -58 c 128,-1,89
 551 -18 551 -18 551 39 c 2,90,-1
 551 361 l 2,91,92
 551 385 551 385 533.5 402.5 c 128,-1,93
 516 420 516 420 492 420 c 2,94,-1
 414 420 l 1,95,-1
 414 137 l 2,96,97
 414 80 414 80 374 40 c 128,-1,98
 334 0 334 0 277 0 c 2,99,-1
 189 0 l 2,100,101
 137 0 137 0 99.5 40 c 128,-1,102
 62 80 62 80 62 137 c 2,0,-1
268 703 m 2,103,104
 248 703 248 703 233.5 691.5 c 128,-1,105
 219 680 219 680 219 664 c 2,106,-1
 219 498 l 1,107,-1
 336 498 l 1,108,-1
 336 703 l 1,109,-1
 268 703 l 2,103,104
189 420 m 2,110,111
 170 420 170 420 155.5 408 c 128,-1,112
 141 396 141 396 141 381 c 2,113,-1
 141 137 l 2,114,115
 141 113 141 113 155.5 95.5 c 128,-1,116
 170 78 170 78 189 78 c 2,117,-1
 277 78 l 2,118,119
 301 78 301 78 318.5 95.5 c 128,-1,120
 336 113 336 113 336 137 c 2,121,-1
 336 420 l 1,122,-1
 189 420 l 2,110,111
EndSplineSet
Ligature2: "'psts' Post Base Substitutions lookup 8 subtable" tm_ta tm_ikaar
EndChar

